SplineFontDB: 3.2
FontName: PhotonicoCode-Regular
FullName: Photonico Code Regular
FamilyName: Photonico Code
Weight: Regular
Copyright: Copyright 2022-2027 Lu Niu (https://github.com/Photonico)
Version: 0.14
ItalicAngle: 0
UnderlinePosition: -125
UnderlineWidth: 50
Ascent: 1560
Descent: 390
InvalidEm: 0
sfntRevision: 0x0000199a
LayerCount: 6
Layer: 0 1 "Back" 1
Layer: 1 1 "Fore" 0
Layer: 2 0 "Wo" 1
Layer: 3 0 "wd" 1
Layer: 4 0 "we" 1
Layer: 5 0 "wb" 1
XUID: [1021 350 -1293522647 13888384]
StyleMap: 0x0040
FSType: 0
OS2Version: 4
OS2_WeightWidthSlopeOnly: 0
OS2_UseTypoMetrics: 1
CreationTime: 1638550126
ModificationTime: 1667845976
PfmFamily: 17
TTFWeight: 400
TTFWidth: 5
LineGap: 0
VLineGap: 0
Panose: 0 0 0 0 0 0 0 0 0 0
OS2TypoAscent: 1800
OS2TypoAOffset: 0
OS2TypoDescent: -600
OS2TypoDOffset: 0
OS2TypoLinegap: 0
OS2WinAscent: 1800
OS2WinAOffset: 0
OS2WinDescent: 600
OS2WinDOffset: 0
HheadAscent: 1800
HheadAOffset: 0
HheadDescent: -600
HheadDOffset: 0
OS2SubXSize: 1268
OS2SubYSize: 1170
OS2SubXOff: 0
OS2SubYOff: 146
OS2SupXSize: 1268
OS2SupYSize: 1170
OS2SupXOff: 0
OS2SupYOff: 683
OS2StrikeYSize: 50
OS2StrikeYPos: 318
OS2CapHeight: 1377
OS2XHeight: 1053
OS2Vendor: 'CTDB'
OS2CodePages: 6000009f.dfd70000
OS2UnicodeRanges: e00002ef.1201f9fb.02002038.00000000
Lookup: 1 0 0 "'aalt' Access All Alternates lookup 0" { "'aalt' Access All Alternates lookup 0 subtable"  } ['aalt' ('DFLT' <'dflt' > 'cyrl' <'dflt' > 'grek' <'dflt' > 'latn' <'AFK ' 'AZE ' 'CAT ' 'CRT ' 'KAZ ' 'MOL ' 'PLK ' 'ROM ' 'TAT ' 'TRK ' 'dflt' > 'zinh' <'dflt' > 'zyyy' <'dflt' > ) ]
Lookup: 3 0 0 "'aalt' Access All Alternates lookup 1" { "'aalt' Access All Alternates lookup 1 subtable"  } ['aalt' ('DFLT' <'dflt' > 'cyrl' <'dflt' > 'grek' <'dflt' > 'latn' <'AFK ' 'AZE ' 'CAT ' 'CRT ' 'KAZ ' 'MOL ' 'PLK ' 'ROM ' 'TAT ' 'TRK ' 'dflt' > 'zinh' <'dflt' > 'zyyy' <'dflt' > ) ]

StartChar: .notdef
Encoding: 193 -1 0
Width: 1200
GlyphClass: 1
Flags: W
LayerCount: 6
Fore
SplineSet
80 1430 m 2,0,1
 80 1451 80 1451 94.5 1465.5 c 128,-1,2
 109 1480 109 1480 130 1480 c 2,3,-1
 1070 1480 l 2,4,5
 1091 1480 1091 1480 1105.5 1465.5 c 128,-1,6
 1120 1451 1120 1451 1120 1430 c 2,7,-1
 1120 -50 l 2,8,9
 1120 -71 1120 -71 1105.5 -85.5 c 128,-1,10
 1091 -100 1091 -100 1070 -100 c 2,11,-1
 130 -100 l 2,12,13
 109 -100 109 -100 94.5 -85.5 c 128,-1,14
 80 -71 80 -71 80 -50 c 2,15,-1
 80 1430 l 2,0,1
970 0 m 2,16,17
 991 0 991 0 1005.5 14.5 c 128,-1,18
 1020 29 1020 29 1020 50 c 2,19,-1
 1020 1330 l 2,20,21
 1020 1351 1020 1351 1005.5 1365.5 c 128,-1,22
 991 1380 991 1380 970 1380 c 2,23,-1
 230 1380 l 2,24,25
 209 1380 209 1380 194.5 1365.5 c 128,-1,26
 180 1351 180 1351 180 1330 c 2,27,-1
 180 50 l 2,28,29
 180 29 180 29 194.5 14.5 c 128,-1,30
 209 0 209 0 230 0 c 2,31,-1
 970 0 l 2,16,17
496 816 m 0,32,33
 499 809 499 809 499 800 c 0,34,35
 499 779 499 779 484.5 764.5 c 128,-1,36
 470 750 470 750 449 750 c 0,37,38
 414 750 414 750 402 784 c 1024,39,-1
650 560 m 26,40,-1
 650 540 l 2,41,42
 650 519 650 519 635.5 504.5 c 128,-1,43
 621 490 621 490 600 490 c 128,-1,44
 579 490 579 490 564.5 504.5 c 128,-1,45
 550 519 550 519 550 540 c 2,46,-1
 550 560 l 2,47,48
 550 602 550 602 575 646 c 128,-1,49
 600 690 600 690 630 720.5 c 128,-1,50
 660 751 660 751 685 786.5 c 128,-1,51
 710 822 710 822 710 850 c 0,52,53
 710 896 710 896 678 928 c 128,-1,54
 646 960 646 960 600 960 c 128,-1,55
 554 960 554 960 522 928 c 128,-1,56
 490 896 490 896 490 850 c 0,57,58
 490 834 490 834 495 816 c 0,59,60
 499 806 499 806 499 800 c 0,61,62
 499 779 499 779 484.5 764.5 c 128,-1,63
 470 750 470 750 449 750 c 0,64,65
 415 750 415 750 403 784 c 0,66,67
 392 817 392 817 392 850 c 0,68,69
 392 937 392 937 453.5 998.5 c 128,-1,70
 515 1060 515 1060 602 1060 c 128,-1,71
 689 1060 689 1060 750.5 998.5 c 128,-1,72
 812 937 812 937 812 850 c 0,73,74
 812 812 812 812 800 781 c 128,-1,75
 788 750 788 750 770 731 c 128,-1,76
 752 712 752 712 731 692.5 c 128,-1,77
 710 673 710 673 692 656.5 c 128,-1,78
 674 640 674 640 662 615 c 128,-1,79
 650 590 650 590 650 560 c 26,40,-1
525 335 m 128,-1,81
 525 366 525 366 547 388 c 128,-1,82
 569 410 569 410 600 410 c 128,-1,83
 631 410 631 410 653 388 c 128,-1,84
 675 366 675 366 675 335 c 128,-1,85
 675 304 675 304 653 282 c 128,-1,86
 631 260 631 260 600 260 c 128,-1,87
 569 260 569 260 547 282 c 128,-1,80
 525 304 525 304 525 335 c 128,-1,81
EndSplineSet
Validated: 3
Layer: 2
SplineSet
80 1430 m 1
 80 1458 102 1480 130 1480 c 1
 1070 1480 l 1
 1098 1480 1120 1458 1120 1430 c 1
 1120 -50 l 1
 1120 -78 1098 -100 1070 -100 c 1
 130 -100 l 1
 102 -100 80 -78 80 -50 c 1
 80 1430 l 1
970 0 m 1
 998 0 1020 22 1020 50 c 1
 1020 1330 l 1
 1020 1358 998 1380 970 1380 c 1
 230 1380 l 1
 202 1380 180 1358 180 1330 c 1
 180 50 l 1
 180 22 202 0 230 0 c 1
 970 0 l 1
496 816 m 5
 498 811 499 806 499 800 c 4
 499 772 477 750 449 750 c 4
 427 750 409 764 402 784 c 1029
650 560 m 31
 650 553 650 540 650 540 c 5
 650 512 628 490 600 490 c 4
 572 490 550 512 550 540 c 5
 550 540 550 552 550 560 c 28
 550 686 710 765 710 850 c 4
 710 911 661 960 600 960 c 4
 539 960 490 911 490 850 c 4
 490 838 492 827 495 816 c 5
 497 811 499 806 499 800 c 4
 499 772 477 750 449 750 c 4
 427 750 410 764 403 784 c 5
 396 805 392 827 392 850 c 4
 392 966 486 1060 602 1060 c 4
 718 1060 812 966 812 850 c 4
 812 686 650 690 650 560 c 31
525 335 m 4
 525 376 559 410 600 410 c 4
 641 410 675 376 675 335 c 4
 675 294 641 260 600 260 c 4
 559 260 525 294 525 335 c 4
EndSplineSet
EndChar

StartChar: A
Encoding: 35 65 1
Width: 1200
GlyphClass: 2
Flags: W
AnchorPoint: "Anchor-1" 596 1 basechar 0
AnchorPoint: "Anchor-0" 600 1378 basechar 0
LayerCount: 6
Fore
SplineSet
780 440 m 1,0,-1
 420 440 l 1,1,-1
 340 140 l 1,2,-1
 420 140 l 2,3,4
 449 140 449 140 469.5 119.5 c 128,-1,5
 490 99 490 99 490 70 c 128,-1,6
 490 41 490 41 469.5 20.5 c 128,-1,7
 449 0 449 0 420 0 c 2,8,9
 420 0 420 0 100 0 c 2,10,11
 71 0 71 0 50.5 20.5 c 128,-1,12
 30 41 30 41 30 70 c 128,-1,13
 30 99 30 99 50.5 119.5 c 128,-1,14
 71 140 71 140 100 140 c 2,15,16
 100 140 100 140 195 140 c 1,17,-1
 497 1267 l 2,18,19
 503 1291 503 1291 521.5 1305.5 c 128,-1,20
 540 1320 540 1320 565 1320 c 2,21,22
 565 1320 565 1320 600 1320 c 1,23,-1
 635 1320 l 2,24,25
 660 1320 660 1320 678.5 1305.5 c 128,-1,26
 697 1291 697 1291 703 1267 c 2,27,28
 703 1267 703 1267 1005 140 c 1,29,-1
 1100 140 l 2,30,31
 1129 140 1129 140 1149.5 119.5 c 128,-1,32
 1170 99 1170 99 1170 70 c 128,-1,33
 1170 41 1170 41 1149.5 20.5 c 128,-1,34
 1129 0 1129 0 1100 0 c 2,35,36
 1100 0 1100 0 780 0 c 2,37,38
 751 0 751 0 730.5 20.5 c 128,-1,39
 710 41 710 41 710 70 c 128,-1,40
 710 99 710 99 730.5 119.5 c 128,-1,41
 751 140 751 140 780 140 c 2,42,43
 780 140 780 140 860 140 c 1,44,-1
 780 440 l 1,0,-1
742 580 m 1,45,-1
 600 1110 l 1,46,-1
 458 580 l 1,47,-1
 742 580 l 1,45,-1
EndSplineSet
Validated: 1
Layer: 2
SplineSet
779.587890625 440 m 1
 779.587628866 440 860 140 860 140 c 1
 780 140 l 1
 741 140 710 109 710 70 c 3
 710 31 741 0 780 0 c 1
 1100 0 l 1
 1139 0 1170 31 1170 70 c 3
 1170 109 1139 140 1100 140 c 1
 1005 140 l 1
 703 1267 l 1
 695 1298 669 1320 635 1320 c 0
 600 1320 l 0
 565 1320 l 0
 531 1320 505 1298 497 1267 c 1
 195 140 l 1
 100 140 l 1
 61 140 30 109 30 70 c 3
 30 31 61 0 100 0 c 1
 420 0 l 1
 459 0 490 31 490 70 c 3
 490 109 459 140 420 140 c 1
 340 140 l 1
 340 140 420.412371134 440 420.412109375 440 c 1
 779.587890625 440 l 1
742.061523438 580 m 1
 742.06185567 580 600 1110 600 1110 c 1
 600 1110 457.93814433 580 457.938476562 580 c 1
 742.061523438 580 l 1
EndSplineSet
Layer: 3
SplineSet
703 1266 m 5
 1005 139 l 5
 1100 139 l 5
 1139 139 1170 108 1170 69 c 7
 1170 30 1139 -1 1100 -1 c 5
 780 -1 l 5
 741 -1 710 30 710 69 c 7
 710 108 741 139 780 139 c 5
 860 139 l 5
 780 440 l 1029
EndSplineSet
Substitution2: "Single Substitution lookup 12 subtable" ordfeminine
Substitution2: "'aalt' Access All Alternates lookup 0 subtable" ordfeminine
EndChar

StartChar: Aacute
Encoding: 130 193 2
Width: 1200
GlyphClass: 2
Flags: W
AnchorPoint: "Anchor-1" 596 0 basechar 0
AnchorPoint: "Anchor-0" 600 1377 basechar 0
LayerCount: 6
Fore
Refer: 1687 -1 S 1 0 0 1 0 0 2
Refer: 1 65 S 1 0 0 1 0 0 3
Validated: 1
Layer: 2
SplineSet
745 1791 m 5
 755 1797 767 1800 780 1800 c 4
 821 1800 855 1766 855 1725 c 4
 855 1693 834 1666 806 1655 c 5
 458 1523 l 5
 452 1521 446 1520 440 1520 c 4
 412 1520 390 1542 390 1570 c 4
 390 1589 400 1606 416 1614 c 5
 745 1791 l 5
EndSplineSet
EndChar

StartChar: Acircumflex
Encoding: 131 194 4
Width: 1200
GlyphClass: 2
Flags: W
AnchorPoint: "Anchor-1" 596 0 basechar 0
AnchorPoint: "Anchor-0" 600 1377 basechar 0
LayerCount: 6
Fore
Refer: 1 65 N 1 0 0 1 0 0 3
Refer: 1689 -1 S 1 0 0 1 0 0 2
Validated: 1
Layer: 2
SplineSet
600 1810 m 4
 616 1810 630 1805 642 1796 c 5
 910 1590 l 5
 922 1581 930 1567 930 1550 c 4
 930 1522 908 1500 880 1500 c 4
 870 1500 862 1503 854 1507 c 5
 600 1659 l 5
 346 1507 l 5
 338 1503 330 1500 320 1500 c 4
 292 1500 270 1522 270 1550 c 4
 270 1567 278 1581 290 1590 c 5
 558 1796 l 5
 570 1805 584 1810 600 1810 c 4
EndSplineSet
EndChar

StartChar: Adieresis
Encoding: 133 196 5
Width: 1200
GlyphClass: 2
Flags: W
AnchorPoint: "Anchor-1" 596 0 basechar 0
AnchorPoint: "Anchor-0" 600 1377 basechar 0
LayerCount: 6
Fore
Refer: 1684 -1 N 1 0 0 1 0 0 2
Refer: 1 65 N 1 0 0 1 0 0 3
Validated: 1
Layer: 2
SplineSet
700 1640 m 4
 700 1698 747 1745 805 1745 c 4
 863 1745 910 1698 910 1640 c 4
 910 1582 863 1535 805 1535 c 4
 747 1535 700 1582 700 1640 c 4
290 1640 m 4
 290 1698 337 1745 395 1745 c 4
 453 1745 500 1698 500 1640 c 4
 500 1582 453 1535 395 1535 c 4
 337 1535 290 1582 290 1640 c 4
EndSplineSet
EndChar

StartChar: uni00C0
Encoding: 129 192 6
Width: 1200
GlyphClass: 2
Flags: W
AnchorPoint: "Anchor-1" 596 0 basechar 0
AnchorPoint: "Anchor-0" 600 1377 basechar 0
LayerCount: 6
Fore
Refer: 1686 -1 S 1 0 0 1 0 0 2
Refer: 1 65 N 1 0 0 1 0 0 3
Validated: 9
Layer: 2
SplineSet
455 1791 m 5
 445 1797 433 1800 420 1800 c 4
 379 1800 345 1766 345 1725 c 4
 345 1693 366 1666 394 1655 c 5
 742 1523 l 5
 748 1521 754 1520 760 1520 c 4
 788 1520 810 1542 810 1570 c 4
 810 1589 800 1606 784 1614 c 5
 455 1791 l 5
EndSplineSet
EndChar

StartChar: Aring
Encoding: 134 197 9
Width: 1200
GlyphClass: 2
Flags: W
AnchorPoint: "Anchor-1" 596 0 basechar 0
AnchorPoint: "Anchor-0" 600 1377 basechar 0
LayerCount: 6
Fore
Refer: 1 65 N 1 0 0 1 0 0 3
Refer: 1692 -1 N 1 0 0 1 0 0 2
Validated: 1
Layer: 2
SplineSet
480 1670 m 4
 480 1604 534 1550 600 1550 c 4
 666 1550 720 1604 720 1670 c 4
 720 1736 666 1790 600 1790 c 4
 534 1790 480 1736 480 1670 c 4
380 1670 m 4
 380 1791 479 1890 600 1890 c 4
 721 1890 820 1791 820 1670 c 4
 820 1549 721 1450 600 1450 c 4
 479 1450 380 1549 380 1670 c 4
EndSplineSet
EndChar

StartChar: Atilde
Encoding: 132 195 10
Width: 1200
GlyphClass: 2
Flags: W
AnchorPoint: "Anchor-1" 596 0 basechar 0
AnchorPoint: "Anchor-0" 600 1377 basechar 0
LayerCount: 6
Fore
Refer: 1 65 N 1 0 0 1 0 0 3
Refer: 1693 -1 N 1 0 0 1 0 0 2
Validated: 9
Layer: 2
SplineSet
720 1680 m 7
 670 1680 580 1780 480 1780 c 7
 386 1780 288.505859375 1667.90039062 278.092773438 1650 c 4
 272.950195312 1641.16113281 270 1630.90820312 270 1620 c 4
 270 1587 297 1560 330 1560 c 4
 352.091796875 1560 371.494140625 1572.09960938 381.907226562 1590 c 4
 387.049804688 1598.83886719 433 1660 480 1660 c 7
 530 1660 620 1560 720 1560 c 7
 814 1560 911.494140625 1672.09960938 921.907226562 1690 c 4
 927.049804688 1698.83886719 930 1709.09179688 930 1720 c 4
 930 1753 903 1780 870 1780 c 4
 847.908203125 1780 828.505859375 1767.90039062 818.092773438 1750 c 4
 812.950195312 1741.16113281 767 1680 720 1680 c 7
EndSplineSet
EndChar

StartChar: AE
Encoding: 135 198 11
Width: 1200
GlyphClass: 2
Flags: W
AnchorPoint: "Anchor-1" 600 0 basechar 0
AnchorPoint: "Anchor-0" 723 1377 basechar 0
LayerCount: 6
Fore
SplineSet
781 751 m 1,0,-1
 1088 751 l 2,1,2
 1117 751 1117 751 1137.5 730.5 c 128,-1,3
 1158 710 1158 710 1158 681 c 128,-1,4
 1158 652 1158 652 1137.5 631.5 c 128,-1,5
 1117 611 1117 611 1088 611 c 2,6,-1
 818 611 l 1,7,-1
 945 140 l 1,8,-1
 1215 140 l 2,9,10
 1244 140 1244 140 1264.5 119.5 c 128,-1,11
 1285 99 1285 99 1285 70 c 128,-1,12
 1285 41 1285 41 1264.5 20.5 c 128,-1,13
 1244 0 1244 0 1215 0 c 2,14,-1
 720 0 l 2,15,16
 691 0 691 0 670.5 20.5 c 128,-1,17
 650 41 650 41 650 70 c 128,-1,18
 650 99 650 99 670.5 119.5 c 128,-1,19
 691 140 691 140 720 140 c 2,20,-1
 800 140 l 1,21,-1
 720 441 l 1,22,-1
 360 441 l 1,23,-1
 280 140 l 1,24,-1
 360 140 l 2,25,26
 389 140 389 140 409.5 119.5 c 128,-1,27
 430 99 430 99 430 70 c 128,-1,28
 430 41 430 41 409.5 20.5 c 128,-1,29
 389 0 389 0 360 0 c 2,30,-1
 40 0 l 2,31,32
 11 0 11 0 -9.5 20.5 c 128,-1,33
 -30 41 -30 41 -30 70 c 128,-1,34
 -30 99 -30 99 -9.5 119.5 c 128,-1,35
 11 140 11 140 40 140 c 2,36,-1
 135 140 l 1,37,-1
 437 1267 l 2,38,39
 444 1290 444 1290 462 1306 c 0,40,41
 480 1320 480 1320 505 1320 c 2,42,-1
 540 1320 l 1,43,-1
 575 1320 l 1,44,-1
 966 1320 l 2,45,46
 995 1320 995 1320 1015.5 1299.5 c 128,-1,47
 1036 1279 1036 1279 1036 1250 c 128,-1,48
 1036 1221 1036 1221 1015.5 1200.5 c 128,-1,49
 995 1180 995 1180 966 1180 c 2,50,-1
 666 1180 l 1,51,-1
 781 751 l 1,0,-1
682 581 m 1,52,-1
 540 1110 l 1,53,-1
 398 581 l 1,54,-1
 682 581 l 1,52,-1
EndSplineSet
Validated: 1
Layer: 2
SplineSet
781 750 m 1
 1090 750 l 1
 1129 750 1160 719 1160 680 c 0
 1160 641 1129 610 1090 610 c 1
 818 610 l 1
 945 140 l 1
 1210 140 l 1
 1249 140 1280 109 1280 70 c 0
 1280 31 1249 0 1210 0 c 1
 720 0 l 1
 681 0 650 31 650 70 c 3
 650 109 681 140 720 140 c 1
 800 140 l 1
 720 441 l 1
 360 441 l 1
 280 140 l 1
 360 140 l 1
 399 140 430 109 430 70 c 3
 430 31 399 0 360 0 c 1
 40 0 l 1
 1 0 -30 31 -30 70 c 3
 -30 109 1 140 40 140 c 1
 135 140 l 1
 437 1267 l 1
 445 1298 471 1320 505 1320 c 0
 540 1320 l 0
 575 1320 l 1
 970 1320 l 1
 1009 1320 1040 1289 1040 1250 c 0
 1040 1211 1009 1180 970 1180 c 1
 666 1180 l 1
 781 750 l 1
682 581 m 1
 398 581 l 1
 540 1110 l 1
 682 581 l 1
EndSplineSet
EndChar

StartChar: B
Encoding: 36 66 13
Width: 1200
GlyphClass: 2
Flags: W
AnchorPoint: "Anchor-1" 600 0 basechar 0
AnchorPoint: "Anchor-0" 600 1377 basechar 0
LayerCount: 6
Fore
SplineSet
914 693 m 5,0,1
 995 643 995 643 1042.5 558.5 c 132,-1,2
 1090 474 1090 474 1090 375 c 4,3,4
 1090 220 1090 220 980 110 c 132,-1,5
 870 0 870 0 715 0 c 6,6,-1
 220 0 l 6,7,8
 191 0 191 0 170.5 20.5 c 132,-1,9
 150 41 150 41 150 70 c 132,-1,10
 150 99 150 99 170.5 119.5 c 132,-1,11
 191 140 191 140 220 140 c 6,12,13
 220 140 220 140 310 140 c 5,14,-1
 310 1160 l 5,15,-1
 220 1160 l 6,16,17
 191 1160 191 1160 170.5 1180.5 c 132,-1,18
 150 1201 150 1201 150 1230 c 132,-1,19
 150 1259 150 1259 170.5 1279.5 c 132,-1,20
 191 1300 191 1300 220 1300 c 6,21,-1
 690 1300 l 6,22,23
 832 1300 832 1300 933.5 1199 c 132,-1,24
 1035 1098 1035 1098 1035 955 c 4,25,26
 1035 878 1035 878 1003 809.5 c 132,-1,27
 971 741 971 741 914 693 c 5,0,1
450 140 m 5,28,-1
 715 140 l 6,29,30
 812 140 812 140 881 209 c 132,-1,31
 950 278 950 278 950 375 c 132,-1,32
 950 472 950 472 881 541 c 132,-1,33
 812 610 812 610 715 610 c 6,34,-1
 450 610 l 5,35,-1
 450 140 l 5,28,-1
450 750 m 5,36,-1
 690 750 l 6,37,38
 775 750 775 750 835 810 c 132,-1,39
 895 870 895 870 895 955 c 132,-1,40
 895 1040 895 1040 835 1100 c 132,-1,41
 775 1160 775 1160 690 1160 c 6,42,-1
 450 1160 l 5,43,-1
 450 750 l 5,36,-1
450 140 m 1029,44,-1
EndSplineSet
Validated: 1
Layer: 2
SplineSet
914 693 m 5
 1020 627 1090 509 1090 375 c 4
 1090 168 922 0 715 0 c 5
 220 0 l 5
 181 0 150 31 150 70 c 7
 150 109 181 140 220 140 c 5
 310 140 l 5
 310 1160 l 5
 220 1160 l 5
 181 1160 150 1191 150 1230 c 7
 150 1269 181 1300 220 1300 c 5
 690 1300 l 5
 880 1300 1035 1145 1035 955 c 4
 1035 850 988 756 914 693 c 5
450 140 m 5
 715 140 l 5
 845 140 950 245 950 375 c 4
 950 505 845 610 715 610 c 5
 450 610 l 5
 450 140 l 5
450 750 m 5
 690 750 l 5
 803 750 895 842 895 955 c 4
 895 1068 803 1160 690 1160 c 5
 450 1160 l 5
 450 750 l 5
450 140 m 1029
EndSplineSet
Layer: 3
SplineSet
885 693 m 1
 885 693 881 693 874 693 c 1025
EndSplineSet
EndChar

StartChar: C
Encoding: 37 67 14
Width: 1200
GlyphClass: 2
Flags: W
AnchorPoint: "Anchor-1" 699 0 basechar 0
AnchorPoint: "Anchor-0" 731 1377 basechar 0
LayerCount: 6
Fore
SplineSet
1040 1031 m 2,1,-1
 1040 890 l 2,2,3
 1040 861 1040 861 1019.5 840.5 c 128,-1,4
 999 820 999 820 970 820 c 128,-1,5
 941 820 941 820 920.5 840.5 c 128,-1,6
 900 861 900 861 900 890 c 2,7,-1
 900 1002 l 1,8,9
 795 1180 795 1180 620 1180 c 0,10,11
 512 1180 512 1180 427 1108.5 c 128,-1,12
 342 1037 342 1037 296 916.5 c 128,-1,13
 250 796 250 796 250 650 c 128,-1,14
 250 504 250 504 296 383.5 c 128,-1,15
 342 263 342 263 427 191.5 c 128,-1,16
 512 120 512 120 620 120 c 0,17,18
 711 120 711 120 785 171 c 128,-1,19
 859 222 859 222 909 314 c 0,20,21
 929 350 929 350 970 350 c 0,22,23
 999 350 999 350 1019.5 329.5 c 128,-1,24
 1040 309 1040 309 1040 280 c 0,25,26
 1040 261 1040 261 1031 246 c 0,27,28
 962 122 962 122 855.5 51 c 128,-1,29
 749 -20 749 -20 620 -20 c 0,30,31
 474 -20 474 -20 356.5 70 c 128,-1,32
 239 160 239 160 174.5 313 c 128,-1,33
 110 466 110 466 110 650 c 128,-1,34
 110 834 110 834 174.5 987 c 128,-1,35
 239 1140 239 1140 356.5 1230 c 128,-1,36
 474 1320 474 1320 620 1320 c 0,37,38
 790 1320 790 1320 920 1198 c 1,39,-1
 930 1237 l 2,40,41
 935 1260 935 1260 954 1275 c 128,-1,42
 973 1290 973 1290 998 1290 c 0,43,44
 1027 1290 1027 1290 1047.5 1269.5 c 128,-1,45
 1068 1249 1068 1249 1068 1220 c 0,46,47
 1068 1213 1068 1213 1066 1203 c 2,48,-1
 1057 1169 l 2,49,50
 1040 1113 1040 1113 1040 1031 c 2,1,-1
EndSplineSet
Validated: 1
Layer: 2
SplineSet
1040 1031 m 1
 1040 890 l 1
 1040 851 1009 820 970 820 c 0
 931 820 900 851 900 890 c 1
 900 1002 l 1
 835 1112 739 1180 620 1180 c 0
 399 1180 250 943 250 650 c 0
 250 357 399 120 620 120 c 0
 745 120 844 195 909 314 c 1
 921 336 943 350 970 350 c 0
 1009 350 1040 319 1040 280 c 0
 1040 268 1037 256 1031 246 c 1
 941 84 796 -20 620 -20 c 0
 322 -20 110 280 110 650 c 0
 110 1020 322 1320 620 1320 c 0
 735.657180506 1320 837.927734375 1274.76855469 920 1198 c 1
 930 1237 l 1
 937 1268 965 1290 998 1290 c 0
 1037 1290 1068 1259 1068 1220 c 0
 1068 1214 1067 1208 1066 1203 c 1
 1057.33333333 1169 l 1
 1045.06382863 1129.49172692 1040 1087 1040 1031 c 1
EndSplineSet
EndChar

StartChar: Cacute
Encoding: 198 262 15
Width: 1200
GlyphClass: 2
Flags: W
AnchorPoint: "Anchor-1" 699 0 basechar 0
AnchorPoint: "Anchor-0" 731 1377 basechar 0
LayerCount: 6
Fore
SplineSet
745 1791 m 2,0,1
 760 1800 760 1800 780 1800 c 0,2,3
 811 1800 811 1800 833 1778 c 0,4,5
 855 1756 855 1756 855 1725 c 0,6,7
 855 1702 855 1702 841.5 1682.5 c 0,8,9
 828 1663 828 1663 806 1655 c 2,10,-1
 458 1523 l 2,11,12
 449 1520 449 1520 440 1520 c 0,13,14
 419 1520 419 1520 404.5 1534.5 c 0,15,16
 390 1549 390 1549 390 1570 c 0,17,18
 390 1601 390 1601 416 1614 c 2,19,-1
 745 1791 l 2,0,1
EndSplineSet
Refer: 14 67 N 1 0 0 1 0 0 3
Validated: 1
Layer: 2
SplineSet
745 1791 m 5
 755 1797 767 1800 780 1800 c 4
 821 1800 855 1766 855 1725 c 4
 855 1693 834 1666 806 1655 c 5
 458 1523 l 5
 452 1521 446 1520 440 1520 c 4
 412 1520 390 1542 390 1570 c 4
 390 1589 400 1606 416 1614 c 5
 745 1791 l 5
EndSplineSet
Substitution2: "'locl' Localized Forms in Latin lookup 22 subtable" Cacute.loclPLK
Substitution2: "'aalt' Access All Alternates lookup 0 subtable" Cacute.loclPLK
EndChar

StartChar: D
Encoding: 38 68 20
Width: 1200
GlyphClass: 2
Flags: W
AnchorPoint: "Anchor-2" 600 689 basechar 0
AnchorPoint: "Anchor-1" 600 0 basechar 0
AnchorPoint: "Anchor-0" 567 1377 basechar 0
LayerCount: 6
Fore
SplineSet
565 140 m 2,0,1
 672 140 672 140 749 178.5 c 128,-1,2
 826 217 826 217 870 288.5 c 128,-1,3
 914 360 914 360 934.5 449 c 128,-1,4
 955 538 955 538 955 650 c 128,-1,5
 955 762 955 762 934.5 851 c 128,-1,6
 914 940 914 940 870 1011.5 c 128,-1,7
 826 1083 826 1083 749 1121.5 c 128,-1,8
 672 1160 672 1160 565 1160 c 2,9,-1
 445 1160 l 1,10,-1
 445 140 l 1,11,-1
 565 140 l 2,0,1
565 0 m 2,12,-1
 215 0 l 2,13,14
 186 0 186 0 165.5 20.5 c 128,-1,15
 145 41 145 41 145 70 c 128,-1,16
 145 99 145 99 165.5 119.5 c 128,-1,17
 186 140 186 140 215 140 c 2,18,-1
 305 140 l 1,19,-1
 305 1160 l 1,20,-1
 215 1160 l 2,21,22
 186 1160 186 1160 165.5 1180.5 c 128,-1,23
 145 1201 145 1201 145 1230 c 128,-1,24
 145 1259 145 1259 165.5 1279.5 c 128,-1,25
 186 1300 186 1300 215 1300 c 2,26,-1
 565 1300 l 2,27,28
 683 1300 683 1300 773 1267 c 0,29,30
 864 1234 864 1234 924 1176 c 128,-1,31
 984 1118 984 1118 1023 1035 c 128,-1,32
 1062 952 1062 952 1078.5 857.5 c 128,-1,33
 1095 763 1095 763 1095 650 c 128,-1,34
 1095 537 1095 537 1078.5 442.5 c 128,-1,35
 1062 348 1062 348 1023 265 c 128,-1,36
 984 182 984 182 924 124 c 0,37,38
 860 62 860 62 773 33 c 0,39,40
 672 0 672 0 565 0 c 2,12,-1
445 140 m 1025,41,-1
EndSplineSet
Validated: 1
Layer: 2
SplineSet
565 140 m 5
 858 140 955 364.001953125 955 650 c 132
 955 935.998046875 858 1160 565 1160 c 5
 445 1160 l 5
 445 140 l 5
 565 140 l 5
  Spiro
    565 140 v
    796.16 208.536 o
    919.076 390.894 o
    955 650 o
    919.076 909.106 o
    796.16 1091.46 o
    565 1160 v
    445 1160 v
    445 140 v
    0 0 z
  EndSpiro
565 0 m 5
 215 0 l 5
 176 0 145 31 145 70 c 7
 145 109 176 140 215 140 c 5
 305 140 l 5
 305 1160 l 5
 215 1160 l 5
 176 1160 145 1191 145 1230 c 7
 145 1269 176 1300 215 1300 c 5
 565 1300 l 5
 964 1300 1095 1012.62792969 1095 650 c 132
 1095 287.372070312 964 0 565 0 c 5
445 140 m 1029
  Spiro
    445 140 {
    0 0 z
  EndSpiro
EndSplineSet
EndChar

StartChar: Eth
Encoding: 145 208 21
Width: 1200
GlyphClass: 2
Flags: W
AnchorPoint: "Anchor-2" 619 689 basechar 0
AnchorPoint: "Anchor-1" 619 0 basechar 0
AnchorPoint: "Anchor-0" 586 1377 basechar 0
LayerCount: 6
Fore
SplineSet
665 650 m 132,-1,1
 665 621 665 621 644.5 600.5 c 132,-1,2
 624 580 624 580 595 580 c 6,3,-1
 155 580 l 6,4,5
 126 580 126 580 105.5 600.5 c 132,-1,6
 85 621 85 621 85 650 c 132,-1,7
 85 679 85 679 105.5 699.5 c 132,-1,8
 126 720 126 720 155 720 c 6,9,-1
 595 720 l 6,10,11
 624 720 624 720 644.5 699.5 c 132,-1,0
 665 679 665 679 665 650 c 132,-1,1
565 140 m 6,12,13
 672 140 672 140 749 178.5 c 132,-1,14
 826 217 826 217 870 288.5 c 132,-1,15
 914 360 914 360 934.5 449 c 132,-1,16
 955 538 955 538 955 650 c 132,-1,17
 955 762 955 762 934.5 851 c 132,-1,18
 914 940 914 940 870 1011.5 c 132,-1,19
 826 1083 826 1083 749 1121.5 c 132,-1,20
 672 1160 672 1160 565 1160 c 6,21,-1
 445 1160 l 5,22,-1
 445 140 l 5,23,-1
 565 140 l 6,12,13
565 0 m 6,24,-1
 215 0 l 6,25,26
 186 0 186 0 165.5 20.5 c 132,-1,27
 145 41 145 41 145 70 c 132,-1,28
 145 99 145 99 165.5 119.5 c 132,-1,29
 186 140 186 140 215 140 c 6,30,-1
 305 140 l 5,31,-1
 305 1160 l 5,32,-1
 215 1160 l 6,33,34
 186 1160 186 1160 165.5 1180.5 c 132,-1,35
 145 1201 145 1201 145 1230 c 132,-1,36
 145 1259 145 1259 165.5 1279.5 c 132,-1,37
 186 1300 186 1300 215 1300 c 6,38,-1
 565 1300 l 6,39,40
 682 1300 682 1300 773 1267 c 132,-1,41
 864 1234 864 1234 924 1176 c 132,-1,42
 984 1118 984 1118 1023 1035 c 132,-1,43
 1062 952 1062 952 1078.5 857.5 c 132,-1,44
 1095 763 1095 763 1095 650 c 132,-1,45
 1095 537 1095 537 1078.5 442.5 c 132,-1,46
 1062 348 1062 348 1023 265 c 132,-1,47
 984 182 984 182 924 124 c 132,-1,48
 864 66 864 66 773 33 c 132,-1,49
 682 0 682 0 565 0 c 6,24,-1
445 140 m 1029,50,-1
EndSplineSet
Validated: 5
Layer: 2
SplineSet
665 650 m 132
 665 610.958984375 634.04296875 580 595 580 c 6
 155 580 l 6
 115.959960938 580 85 610.95703125 85 650 c 132
 85 689.041015625 115.958007812 720 155 720 c 6
 595 720 l 6
 634.041015625 720 665 689.04296875 665 650 c 132
565 140 m 5
 858 140 955 364.001953125 955 650 c 132
 955 935.998046875 858 1160 565 1160 c 5
 445 1160 l 5
 445 140 l 5
 565 140 l 5
  Spiro
    565 140 v
    796.16 208.536 o
    919.076 390.894 o
    955 650 o
    919.076 909.106 o
    796.16 1091.46 o
    565 1160 v
    445 1160 v
    445 140 v
    0 0 z
  EndSpiro
565 0 m 5
 215 0 l 5
 176 0 145 31 145 70 c 7
 145 109 176 140 215 140 c 5
 305 140 l 5
 305 1160 l 5
 215 1160 l 5
 176 1160 145 1191 145 1230 c 7
 145 1269 176 1300 215 1300 c 5
 565 1300 l 5
 964 1300 1095 1012.62792969 1095 650 c 132
 1095 287.372070312 964 0 565 0 c 5
445 140 m 1029
  Spiro
    445 140 {
    0 0 z
  EndSpiro
EndSplineSet
EndChar

StartChar: E
Encoding: 39 69 24
Width: 1200
GlyphClass: 2
Flags: W
AnchorPoint: "Anchor-2" 600 689 basechar 0
AnchorPoint: "Anchor-1" 651 0 basechar 0
AnchorPoint: "Anchor-0" 642 1377 basechar 0
LayerCount: 6
Fore
SplineSet
760 610 m 5,0,-1
 420 610 l 5,1,-1
 420 140 l 1,2,-1
 950 140 l 1,3,-1
 950 270 l 2,4,5
 950 299 950 299 970.5 319.5 c 128,-1,6
 991 340 991 340 1020 340 c 128,-1,7
 1049 340 1049 340 1069.5 319.5 c 128,-1,8
 1090 299 1090 299 1090 270 c 2,9,10
 1090 270 1090 270 1090 70 c 2,11,12
 1090 40 1090 40 1070 20 c 128,-1,13
 1050 0 1050 0 1020 0 c 2,14,15
 1020 0 1020 0 190 0 c 2,16,17
 160 0 160 0 140 20 c 128,-1,18
 120 40 120 40 120 70 c 128,-1,19
 120 100 120 100 140 120 c 128,-1,20
 160 140 160 140 190 140 c 2,21,22
 190 140 190 140 280 140 c 1,23,-1
 280 1160 l 1,24,-1
 190 1160 l 2,25,26
 160 1160 160 1160 140 1180 c 128,-1,27
 120 1200 120 1200 120 1230 c 128,-1,28
 120 1260 120 1260 140 1280 c 128,-1,29
 160 1300 160 1300 190 1300 c 2,30,31
 190 1300 190 1300 1020 1300 c 2,32,33
 1050 1300 1050 1300 1070 1280 c 128,-1,34
 1090 1260 1090 1260 1090 1230 c 2,35,36
 1090 1230 1090 1230 1090 1030 c 2,37,38
 1090 1001 1090 1001 1069.5 980.5 c 128,-1,39
 1049 960 1049 960 1020 960 c 128,-1,40
 991 960 991 960 970.5 980.5 c 128,-1,41
 950 1001 950 1001 950 1030 c 2,42,43
 950 1030 950 1030 950 1160 c 1,44,-1
 420 1160 l 1,45,-1
 420 750 l 5,46,-1
 760 750 l 5,47,-1
 760 820 l 2,48,49
 760 849 760 849 780.5 869.5 c 128,-1,50
 801 890 801 890 830 890 c 128,-1,51
 859 890 859 890 879.5 869.5 c 128,-1,52
 900 849 900 849 900 820 c 2,53,54
 900 820 900 820 900 540 c 2,55,56
 900 510 900 510 880 490 c 128,-1,57
 860 470 860 470 830 470 c 0,58,59
 801 470 801 470 780.5 490.5 c 128,-1,60
 760 511 760 511 760 540 c 2,61,62
 760 540 760 540 760 610 c 5,0,-1
EndSplineSet
Validated: 1
Layer: 2
SplineSet
760 610 m 5
 420 610 l 5
 420 140 l 5
 950 140 l 5
 950 270 l 5
 950 309 981 340 1020 340 c 4
 1059 340 1090 309 1090 270 c 5
 1090 70 l 5
 1090 29.6669921875 1060.33398438 0 1020 0 c 5
 190 0 l 5
 149.671875 0 120 29.6650390625 120 70 c 132
 120 110.333007812 149.669921875 140 190 140 c 5
 280 140 l 5
 280 1160 l 5
 190 1160 l 5
 149.671875 1160 120 1189.66503906 120 1230 c 132
 120 1270.33300781 149.669921875 1300 190 1300 c 5
 1020 1300 l 5
 1060.33398438 1300 1090 1270.33300781 1090 1230 c 5
 1090 1030 l 5
 1090 991 1059 960 1020 960 c 4
 981 960 950 991 950 1030 c 5
 950 1160 l 5
 420 1160 l 5
 420 750 l 5
 760 750 l 5
 760 820 l 5
 760 859 791 890 830 890 c 4
 869 890 900 859 900 820 c 5
 900 540 l 5
 900 499.666992188 870.333984375 470 830 470 c 4
 791 470 760 501 760 540 c 5
 760 610 l 5
EndSplineSet
EndChar

StartChar: F
Encoding: 40 70 34
Width: 1200
GlyphClass: 2
Flags: W
AnchorPoint: "Anchor-1" 470 0 basechar 0
AnchorPoint: "Anchor-0" 600 1377 basechar 0
LayerCount: 6
Fore
SplineSet
750 750 m 1,0,-1
 420 750 l 1,1,-1
 420 1160 l 1,2,-1
 940 1160 l 1,3,-1
 940 1030 l 2,4,5
 940 1001 940 1001 960.5 980.5 c 128,-1,6
 981 960 981 960 1010 960 c 128,-1,7
 1039 960 1039 960 1059.5 980.5 c 128,-1,8
 1080 1001 1080 1001 1080 1030 c 2,9,-1
 1080 1230 l 2,10,11
 1080 1260 1080 1260 1060 1280 c 128,-1,12
 1040 1300 1040 1300 1010 1300 c 2,13,-1
 190 1300 l 2,14,15
 160 1300 160 1300 140 1280 c 128,-1,16
 120 1260 120 1260 120 1230 c 128,-1,17
 120 1200 120 1200 140 1180 c 128,-1,18
 160 1160 160 1160 190 1160 c 2,19,-1
 280 1160 l 1,20,-1
 280 140 l 1,21,-1
 190 140 l 2,22,23
 160 140 160 140 140 120 c 128,-1,24
 120 100 120 100 120 70 c 128,-1,25
 120 40 120 40 140 20 c 128,-1,26
 160 0 160 0 190 0 c 2,27,-1
 600 0 l 2,28,29
 630 0 630 0 650 20 c 128,-1,30
 670 40 670 40 670 70 c 128,-1,31
 670 100 670 100 650 120 c 128,-1,32
 630 140 630 140 600 140 c 2,33,-1
 420 140 l 1,34,-1
 420 610 l 1,35,-1
 750 610 l 1,36,-1
 750 540 l 2,37,38
 750 511 750 511 770.5 490.5 c 128,-1,39
 791 470 791 470 820 470 c 0,40,41
 850 470 850 470 870 490 c 128,-1,42
 890 510 890 510 890 540 c 2,43,-1
 890 820 l 2,44,45
 890 849 890 849 869.5 869.5 c 128,-1,46
 849 890 849 890 820 890 c 128,-1,47
 791 890 791 890 770.5 869.5 c 128,-1,48
 750 849 750 849 750 820 c 2,49,-1
 750 750 l 1,0,-1
EndSplineSet
Validated: 9
Layer: 2
SplineSet
750 750 m 5
 420 750 l 5
 420 1160 l 5
 940 1160 l 5
 940 1030 l 5
 940 991 971 960 1010 960 c 4
 1049 960 1080 991 1080 1030 c 5
 1080 1230 l 5
 1080 1270.33300781 1050.33398438 1300 1010 1300 c 5
 190 1300 l 5
 149.669921875 1300 120 1270.33300781 120 1230 c 132
 120 1189.66503906 149.671875 1160 190 1160 c 5
 280 1160 l 5
 280 140 l 5
 190 140 l 6
 150 140 120 110.333007812 120 70 c 132
 120 29.6650390625 149.672763872 0 190 0 c 6
 600 0 l 6
 640.334960938 0 670 29.6669921875 670 70 c 132
 670 110.334960938 640 140 600 140 c 6
 420 140 l 5
 420 610 l 5
 750 610 l 5
 750 540 l 5
 750 501 781 470 820 470 c 4
 860.333984375 470 890 499.666992188 890 540 c 5
 890 820 l 5
 890 859 859 890 820 890 c 4
 781 890 750 859 750 820 c 5
 750 750 l 5
EndSplineSet
Substitution2: "Single Substitution lookup 344 subtable" F.spacer
Substitution2: "'aalt' Access All Alternates lookup 0 subtable" F.spacer
EndChar

StartChar: G
Encoding: 41 71 35
Width: 1200
GlyphClass: 2
Flags: W
AnchorPoint: "Anchor-1" 661 0 basechar 0
AnchorPoint: "Anchor-0" 660 1377 basechar 0
LayerCount: 6
Fore
SplineSet
910 93 m 5,0,1
 782 -20 782 -20 620 -20 c 4,2,3
 474 -20 474 -20 356.5 70 c 132,-1,4
 239 160 239 160 174.5 313 c 132,-1,5
 110 466 110 466 110 650 c 132,-1,6
 110 834 110 834 174.5 987 c 132,-1,7
 239 1140 239 1140 356.5 1230 c 132,-1,8
 474 1320 474 1320 620 1320 c 4,9,10
 789 1320 789 1320 918 1199 c 5,11,-1
 927 1237 l 6,12,13
 932 1260 932 1260 951 1275 c 132,-1,14
 970 1290 970 1290 995 1290 c 4,15,16
 1024 1290 1024 1290 1044.5 1269.5 c 132,-1,17
 1065 1249 1065 1249 1065 1220 c 4,18,19
 1065 1213 1065 1213 1063 1203 c 6,20,-1
 1052 1167 l 6,21,22
 1040 1123 1040 1123 1040 1031 c 6,23,-1
 1040 890 l 6,24,25
 1040 861 1040 861 1019.5 840.5 c 132,-1,26
 999 820 999 820 970 820 c 132,-1,27
 941 820 941 820 920.5 840.5 c 132,-1,28
 900 861 900 861 900 890 c 6,29,-1
 900 1002 l 5,30,31
 795 1180 795 1180 620 1180 c 4,32,33
 512 1180 512 1180 427 1108.5 c 132,-1,34
 342 1037 342 1037 296 916.5 c 132,-1,35
 250 796 250 796 250 650 c 132,-1,36
 250 504 250 504 296 383.5 c 132,-1,37
 342 263 342 263 427 191.5 c 132,-1,38
 512 120 512 120 620 120 c 4,39,40
 711 120 711 120 785.5 170.5 c 132,-1,41
 860 221 860 221 910 311 c 5,42,-1
 910 440 l 5,43,-1
 710 440 l 6,44,45
 681 440 681 440 660.5 460.5 c 132,-1,46
 640 481 640 481 640 510 c 132,-1,47
 640 539 640 539 660.5 559.5 c 132,-1,48
 681 580 681 580 710 580 c 6,49,-1
 980 580 l 6,50,51
 1010 580 1010 580 1030 560 c 132,-1,52
 1050 540 1050 540 1050 510 c 6,53,-1
 1050 440 l 5,54,-1
 1050 30 l 6,55,56
 1050 1 1050 1 1029.5 -19.5 c 132,-1,57
 1009 -40 1009 -40 980 -40 c 132,-1,58
 951 -40 951 -40 930.5 -19.5 c 132,-1,59
 910 1 910 1 910 30 c 6,60,-1
 910 93 l 5,0,1
179 -911 m 1053,61,-1
179 -911 m 1053,62,-1
0 0 m 1053,63,-1
0 0 m 1053,64,-1
179 -911 m 1049,65,-1
179 -911 m 1049,66,-1
0 0 m 1049,67,-1
0 0 m 1049,68,-1
0 0 m 1049,69,-1
0 0 m 1049,70,-1
0 0 m 1049,71,-1
0 0 m 1049,72,-1
EndSplineSet
Validated: 1
Layer: 2
SplineSet
910 93 m 5
 829.372070312 21.6298828125 731.008796986 -20 620 -20 c 4
 322 -20 110 280 110 650 c 4
 110 1020 322 1320 620 1320 c 4
 735.657180506 1320 835.927734375 1275.76855469 918 1199 c 5
 927 1237 l 5
 934 1268 962 1290 995 1290 c 4
 1034 1290 1065 1259 1065 1220 c 4
 1065 1214 1064 1208 1063 1203 c 5
 1052 1167 l 5
 1041 1127 1040 1087 1040 1031 c 5
 1040 890 l 5
 1040 851 1009 820 970 820 c 4
 931 820 900 851 900 890 c 5
 900 1002 l 5
 835 1112 739 1180 620 1180 c 4
 399 1180 250 943 250 650 c 4
 250 357 399 120 620 120 c 4
 743.695346539 120 845 194 910 311 c 5
 910 440 l 5
 710 440 l 4
 671 440 640 471 640 510 c 4
 640 549 671 580 710 580 c 4
 980 580 l 5
 1020.33398438 580 1050 550.333007812 1050 510 c 5
 1050 440 l 5
 1050 30 l 5
 1050 -9 1019 -40 980 -40 c 4
 941 -40 910 -9 910 30 c 5
 910 93 l 5
179 -911 m 1053
179 -911 m 1053
0 0 m 1053
0 0 m 1053
EndSplineSet
EndChar

StartChar: H
Encoding: 42 72 40
Width: 1200
GlyphClass: 2
Flags: W
AnchorPoint: "Anchor-2" 600 689 basechar 0
AnchorPoint: "Anchor-1" 600 0 basechar 0
AnchorPoint: "Anchor-0" 600 1377 basechar 0
LayerCount: 6
Fore
SplineSet
980 140 m 1,0,-1
 1070 140 l 2,1,2
 1100 140 1100 140 1120 120 c 128,-1,3
 1140 100 1140 100 1140 70 c 128,-1,4
 1140 40 1140 40 1120 20 c 128,-1,5
 1100 0 1100 0 1070 0 c 2,6,-1
 750 0 l 2,7,8
 720 0 720 0 700 20 c 128,-1,9
 680 40 680 40 680 70 c 128,-1,10
 680 100 680 100 700 120 c 128,-1,11
 720 140 720 140 750 140 c 2,12,-1
 840 140 l 1,13,-1
 840 610 l 1,14,-1
 360 610 l 1,15,-1
 360 140 l 1,16,-1
 450 140 l 2,17,18
 480 140 480 140 500 120 c 128,-1,19
 520 100 520 100 520 70 c 128,-1,20
 520 40 520 40 500 20 c 128,-1,21
 480 0 480 0 450 0 c 2,22,-1
 130 0 l 2,23,24
 100 0 100 0 80 20 c 128,-1,25
 60 40 60 40 60 70 c 128,-1,26
 60 100 60 100 80 120 c 128,-1,27
 100 140 100 140 130 140 c 2,28,-1
 220 140 l 1,29,-1
 220 1160 l 1,30,-1
 130 1160 l 2,31,32
 100 1160 100 1160 80 1180 c 128,-1,33
 60 1200 60 1200 60 1230 c 128,-1,34
 60 1260 60 1260 80 1280 c 128,-1,35
 100 1300 100 1300 130 1300 c 2,36,-1
 450 1300 l 2,37,38
 480 1300 480 1300 500 1280 c 128,-1,39
 520 1260 520 1260 520 1230 c 128,-1,40
 520 1200 520 1200 500 1180 c 128,-1,41
 480 1160 480 1160 450 1160 c 2,42,-1
 360 1160 l 1,43,-1
 360 750 l 1,44,-1
 840 750 l 1,45,-1
 840 1160 l 1,46,-1
 750 1160 l 2,47,48
 720 1160 720 1160 700 1180 c 128,-1,49
 680 1200 680 1200 680 1230 c 128,-1,50
 680 1260 680 1260 700 1280 c 128,-1,51
 720 1300 720 1300 750 1300 c 2,52,-1
 1070 1300 l 2,53,54
 1100 1300 1100 1300 1120 1280 c 128,-1,55
 1140 1260 1140 1260 1140 1230 c 128,-1,56
 1140 1200 1140 1200 1120 1180 c 128,-1,57
 1100 1160 1100 1160 1070 1160 c 2,58,-1
 980 1160 l 1,59,-1
 980 140 l 1,0,-1
EndSplineSet
Validated: 1
Layer: 2
SplineSet
980 140 m 5
 1070 140 l 5
 1110.33203125 140 1140 110.334960938 1140 70 c 132
 1140 29.6669921875 1110.33300781 0 1070 0 c 6
 750 0 l 6
 709.672851562 0 680 29.6650390625 680 70 c 132
 680 110.333007812 709.670898438 140 750 140 c 5
 840 140 l 5
 840 610 l 5
 360 610 l 5
 360 140 l 5
 450 140 l 5
 490.33203125 140 520 110.334960938 520 70 c 132
 520 29.6669921875 490.333007812 0 450 0 c 6
 130 0 l 6
 89.6728515625 0 60 29.6650390625 60 70 c 132
 60 110.333007812 89.669921875 140 130 140 c 5
 220 140 l 5
 220 1160 l 5
 130 1160 l 5
 89.671875 1160 60 1189.66503906 60 1230 c 132
 60 1270.33300781 89.6708984375 1300 130 1300 c 6
 450 1300 l 6
 490.331054688 1300 520 1270.33496094 520 1230 c 132
 520 1189.66699219 490.333984375 1160 450 1160 c 5
 360 1160 l 5
 360 750 l 5
 840 750 l 5
 840 1160 l 5
 750 1160 l 5
 709.672851562 1160 680 1189.66503906 680 1230 c 132
 680 1270.33300781 709.670898438 1300 750 1300 c 6
 1070 1300 l 6
 1110.33105469 1300 1140 1270.33496094 1140 1230 c 132
 1140 1189.66699219 1110.33398438 1160 1070 1160 c 5
 980 1160 l 5
 980 140 l 5
EndSplineSet
EndChar

StartChar: Hbar
Encoding: 213 294 41
Width: 1200
GlyphClass: 1
Flags: W
LayerCount: 6
Fore
SplineSet
1190 960 m 128,-1,1
 1190 931 1190 931 1169.5 910.5 c 128,-1,2
 1149 890 1149 890 1120 890 c 2,3,-1
 80 890 l 2,4,5
 51 890 51 890 30.5 910.5 c 128,-1,6
 10 931 10 931 10 960 c 128,-1,7
 10 989 10 989 30.5 1009.5 c 128,-1,8
 51 1030 51 1030 80 1030 c 2,9,-1
 1120 1030 l 2,10,11
 1149 1030 1149 1030 1169.5 1009.5 c 128,-1,0
 1190 989 1190 989 1190 960 c 128,-1,1
980 140 m 1,12,-1
 1070 140 l 2,13,14
 1100 140 1100 140 1120 120 c 128,-1,15
 1140 100 1140 100 1140 70 c 128,-1,16
 1140 40 1140 40 1120 20 c 128,-1,17
 1100 0 1100 0 1070 0 c 2,18,-1
 750 0 l 2,19,20
 720 0 720 0 700 20 c 128,-1,21
 680 40 680 40 680 70 c 128,-1,22
 680 100 680 100 700 120 c 128,-1,23
 720 140 720 140 750 140 c 2,24,-1
 840 140 l 1,25,-1
 840 610 l 1,26,-1
 360 610 l 1,27,-1
 360 140 l 1,28,-1
 450 140 l 2,29,30
 480 140 480 140 500 120 c 128,-1,31
 520 100 520 100 520 70 c 128,-1,32
 520 40 520 40 500 20 c 128,-1,33
 480 0 480 0 450 0 c 2,34,-1
 130 0 l 2,35,36
 100 0 100 0 80 20 c 128,-1,37
 60 40 60 40 60 70 c 128,-1,38
 60 100 60 100 80 120 c 128,-1,39
 100 140 100 140 130 140 c 2,40,-1
 220 140 l 1,41,-1
 220 1160 l 1,42,-1
 130 1160 l 2,43,44
 100 1160 100 1160 80 1180 c 128,-1,45
 60 1200 60 1200 60 1230 c 128,-1,46
 60 1260 60 1260 80 1280 c 128,-1,47
 100 1300 100 1300 130 1300 c 2,48,-1
 450 1300 l 2,49,50
 480 1300 480 1300 500 1280 c 128,-1,51
 520 1260 520 1260 520 1230 c 128,-1,52
 520 1200 520 1200 500 1180 c 128,-1,53
 480 1160 480 1160 450 1160 c 2,54,-1
 360 1160 l 1,55,-1
 360 750 l 1,56,-1
 840 750 l 1,57,-1
 840 1160 l 1,58,-1
 750 1160 l 2,59,60
 720 1160 720 1160 700 1180 c 128,-1,61
 680 1200 680 1200 680 1230 c 128,-1,62
 680 1260 680 1260 700 1280 c 128,-1,63
 720 1300 720 1300 750 1300 c 2,64,-1
 1070 1300 l 2,65,66
 1100 1300 1100 1300 1120 1280 c 128,-1,67
 1140 1260 1140 1260 1140 1230 c 128,-1,68
 1140 1200 1140 1200 1120 1180 c 128,-1,69
 1100 1160 1100 1160 1070 1160 c 2,70,-1
 980 1160 l 1,71,-1
 980 140 l 1,12,-1
EndSplineSet
Validated: 5
Layer: 2
SplineSet
1190 960 m 132
 1190 920.958984375 1159.04296875 890 1120 890 c 6
 80 890 l 6
 40.9590308032 890 10 920.95703125 10 960 c 132
 10 999.041015625 40.9570776805 1030 80 1030 c 6
 1120 1030 l 6
 1159.04101562 1030 1190 999.04296875 1190 960 c 132
980 140 m 1
 1070 140 l 1
 1110.33203125 140 1140 110.334960938 1140 70 c 128
 1140 29.6669921875 1110.33300781 0 1070 0 c 2
 750 0 l 2
 709.672851562 0 680 29.6650390625 680 70 c 128
 680 110.333007812 709.670898438 140 750 140 c 1
 840 140 l 1
 840 610 l 1
 360 610 l 1
 360 140 l 1
 450 140 l 1
 490.33203125 140 520 110.334960938 520 70 c 128
 520 29.6669921875 490.333007812 0 450 0 c 2
 130 0 l 2
 89.6728515625 0 60 29.6650390625 60 70 c 128
 60 110.333007812 89.669921875 140 130 140 c 1
 220 140 l 1
 220 1160 l 1
 130 1160 l 1
 89.671875 1160 60 1189.66503906 60 1230 c 128
 60 1270.33300781 89.6708984375 1300 130 1300 c 2
 450 1300 l 2
 490.331054688 1300 520 1270.33496094 520 1230 c 128
 520 1189.66699219 490.333984375 1160 450 1160 c 1
 360 1160 l 1
 360 750 l 1
 840 750 l 1
 840 1160 l 1
 750 1160 l 1
 709.672851562 1160 680 1189.66503906 680 1230 c 128
 680 1270.33300781 709.670898438 1300 750 1300 c 2
 1070 1300 l 2
 1110.33105469 1300 1140 1270.33496094 1140 1230 c 128
 1140 1189.66699219 1110.33398438 1160 1070 1160 c 1
 980 1160 l 1
 980 140 l 1
EndSplineSet
EndChar

StartChar: I
Encoding: 43 73 43
Width: 1200
GlyphClass: 2
Flags: W
AnchorPoint: "Anchor-1" 600 0 basechar 0
AnchorPoint: "Anchor-0" 600 1377 basechar 0
LayerCount: 6
Fore
SplineSet
530 140 m 5,0,-1
 530 1160 l 5,1,-1
 260 1160 l 6,2,3
 230 1160 230 1160 210 1180 c 132,-1,4
 190 1200 190 1200 190 1230 c 132,-1,5
 190 1260 190 1260 210 1280 c 132,-1,6
 230 1300 230 1300 260 1300 c 6,7,-1
 940 1300 l 6,8,9
 970 1300 970 1300 990 1280 c 132,-1,10
 1010 1260 1010 1260 1010 1230 c 132,-1,11
 1010 1200 1010 1200 990 1180 c 132,-1,12
 970 1160 970 1160 940 1160 c 6,13,-1
 670 1160 l 5,14,-1
 670 140 l 5,15,-1
 940 140 l 6,16,17
 970 140 970 140 990 120 c 132,-1,18
 1010 100 1010 100 1010 70 c 132,-1,19
 1010 40 1010 40 990 20 c 132,-1,20
 970 0 970 0 940 0 c 6,21,-1
 260 0 l 6,22,23
 230 0 230 0 210 20 c 132,-1,24
 190 40 190 40 190 70 c 132,-1,25
 190 100 190 100 210 120 c 132,-1,26
 230 140 230 140 260 140 c 6,27,-1
 530 140 l 5,0,-1
EndSplineSet
Validated: 1
Layer: 2
SplineSet
530 140 m 5
 530 1160 l 5
 260 1160 l 2
 220 1160 190 1189.66503906 190 1230 c 128
 190 1270.33300781 219.665039062 1300 260 1300 c 2
 940 1300 l 2
 980.333007812 1300 1010 1270.33496094 1010 1230 c 128
 1010 1189.66699219 980 1160 940 1160 c 2
 670 1160 l 5
 670 140 l 5
 940 140 l 6
 980 140 1010 110.334960938 1010 70 c 132
 1010 29.6669921875 980.334960938 0 940 0 c 6
 260 0 l 6
 219.666992188 0 190 29.6650390625 190 70 c 132
 190 110.333007812 220 140 260 140 c 6
 530 140 l 5
EndSplineSet
EndChar

StartChar: IJ
Encoding: 215 306 44
Width: 1200
GlyphClass: 1
Flags: W
LayerCount: 6
Fore
SplineSet
660 1160 m 5,0,-1
 390 1160 l 5,1,-1
 390 140 l 5,2,-1
 570 140 l 6,3,4
 600 140 600 140 620 120 c 132,-1,5
 640 100 640 100 640 70 c 132,-1,6
 640 40 640 40 620 20 c 132,-1,7
 600 0 600 0 570 0 c 6,8,-1
 70 0 l 6,9,10
 40 0 40 0 20 20 c 132,-1,11
 0 40 0 40 0 70 c 132,-1,12
 0 100 0 100 20 120 c 132,-1,13
 40 140 40 140 70 140 c 6,14,-1
 250 140 l 5,15,-1
 250 1160 l 5,16,-1
 70 1160 l 6,17,18
 40 1160 40 1160 20 1180 c 132,-1,19
 0 1200 0 1200 0 1230 c 132,-1,20
 0 1260 0 1260 20 1280 c 132,-1,21
 40 1300 40 1300 70 1300 c 6,22,-1
 660 1300 l 5,23,-1
 1130 1300 l 6,24,25
 1160 1300 1160 1300 1180 1280 c 132,-1,26
 1200 1260 1200 1260 1200 1230 c 132,-1,27
 1200 1200 1200 1200 1180 1180 c 132,-1,28
 1160 1160 1160 1160 1130 1160 c 6,29,-1
 950 1160 l 5,30,-1
 950 79 l 6,31,32
 950 0 950 0 932.5 -60.5 c 132,-1,33
 915 -121 915 -121 886 -158.5 c 132,-1,34
 857 -196 857 -196 815 -219 c 132,-1,35
 773 -242 773 -242 728.5 -251 c 132,-1,36
 684 -260 684 -260 630 -260 c 4,37,38
 530 -260 530 -260 419 -227 c 4,39,40
 397 -220 397 -220 383.5 -202 c 132,-1,41
 370 -184 370 -184 370 -160 c 4,42,43
 370 -131 370 -131 390.5 -110.5 c 132,-1,44
 411 -90 411 -90 440 -90 c 4,45,46
 452 -90 452 -90 461 -93 c 4,47,48
 552 -120 552 -120 630 -120 c 4,49,50
 739 -120 739 -120 774.5 -72 c 132,-1,51
 810 -24 810 -24 810 79 c 6,52,-1
 810 1160 l 5,53,-1
 660 1160 l 5,0,-1
EndSplineSet
Validated: 1
Layer: 2
SplineSet
660 1160 m 6
 390 1160 l 5
 390 140 l 5
 570 140 l 6
 610 140 640 110.334960938 640 70 c 132
 640 29.6669921875 610.334960938 0 570 0 c 6
 70 0 l 6
 29.6669921875 0 0 29.6650390625 0 70 c 132
 0 110.333007812 30 140 70 140 c 6
 250 140 l 5
 250 1160 l 5
 70 1160 l 6
 30 1160 0 1189.66503906 0 1230 c 132
 0 1270.33300781 30 1300 70 1300 c 6
 660 1300 l 6
 1130 1300 l 6
 1169.99902344 1300 1200 1270 1200 1230 c 132
 1200 1190 1170 1160 1130 1160 c 6
 950 1160 l 5
 950 79 l 5
 950 -194.001953125 798 -260 630 -260 c 7
 566.801757812 -260 493 -249 419 -227 c 5
 390 -218 370 -192 370 -160 c 4
 370 -121 401 -90 440 -90 c 4
 447 -90 455 -91 461 -93 c 5
 516.645507812 -109.475585938 574.374023438 -120 630 -120 c 7
 786.002929688 -120 810 -43 810 79 c 5
 810 1160 l 5
 660 1160 l 6
EndSplineSet
EndChar

StartChar: J
Encoding: 44 74 54
Width: 1200
GlyphClass: 2
Flags: W
AnchorPoint: "Anchor-1" 600 0 basechar 0
AnchorPoint: "Anchor-0" 699 1377 basechar 0
LayerCount: 6
Fore
SplineSet
288 267 m 0,0,1
 306 203 306 203 359 161.5 c 128,-1,2
 412 120 412 120 480 120 c 0,3,4
 562 120 562 120 621 179 c 128,-1,5
 680 238 680 238 680 320 c 2,6,-1
 680 1160 l 1,7,-1
 360 1160 l 2,8,9
 330 1160 330 1160 310 1180 c 128,-1,10
 290 1200 290 1200 290 1230 c 128,-1,11
 290 1260 290 1260 310 1280 c 128,-1,12
 330 1300 330 1300 360 1300 c 2,13,-1
 1000 1300 l 2,14,15
 1030 1300 1030 1300 1050 1280 c 128,-1,16
 1070 1260 1070 1260 1070 1230 c 128,-1,17
 1070 1200 1070 1200 1050 1180 c 128,-1,18
 1030 1160 1030 1160 1000 1160 c 2,19,-1
 820 1160 l 1,20,-1
 820 320 l 2,21,22
 820 179 820 179 720.5 79.5 c 128,-1,23
 621 -20 621 -20 480 -20 c 0,24,25
 363 -20 363 -20 273 50.5 c 128,-1,26
 183 121 183 121 153 231 c 0,27,28
 150 242 150 242 150 250 c 0,29,30
 150 279 150 279 170.5 299.5 c 128,-1,31
 191 320 191 320 220 320 c 0,32,33
 245 320 245 320 263.5 305 c 128,-1,34
 282 290 282 290 288 267 c 0,0,1
EndSplineSet
Validated: 1
Layer: 2
SplineSet
287.96875 267 m 5
 311 183 388 120 480 120 c 4
 590 120 680 210 680 320 c 5
 680 1160 l 5
 360 1160 l 6
 320 1160 290 1190 290 1230 c 132
 290 1270 320 1300 360 1300 c 6
 1000 1300 l 6
 1040 1300 1070 1270 1070 1230 c 132
 1070 1190 1040 1160 1000 1160 c 6
 820 1160 l 5
 820 320 l 5
 820 132 668 -20 480 -20 c 4
 323 -20 192 86 153 231 c 5
 151.3359375 237.030273438 150 243.400390625 150 250 c 4
 150 289 181 320 220 320 c 4
 253.125976562 320 280.479492188 297.635742188 287.96875 267 c 5
EndSplineSet
EndChar

StartChar: K
Encoding: 45 75 56
Width: 1200
GlyphClass: 2
Flags: W
AnchorPoint: "Anchor-1" 645 0 basechar 0
AnchorPoint: "Anchor-0" 653 1377 basechar 0
LayerCount: 6
Fore
SplineSet
595 767 m 5,0,-1
 988 1160 l 5,1,-1
 1050 1160 l 6,2,3
 1080 1160 1080 1160 1100 1180 c 132,-1,4
 1120 1200 1120 1200 1120 1230 c 132,-1,5
 1120 1260 1120 1260 1100 1280 c 132,-1,6
 1080 1300 1080 1300 1050 1300 c 6,7,-1
 730 1300 l 6,8,9
 700 1300 700 1300 680 1280 c 132,-1,10
 660 1260 660 1260 660 1230 c 132,-1,11
 660 1200 660 1200 680 1180 c 132,-1,12
 700 1160 700 1160 730 1160 c 6,13,-1
 792 1160 l 5,14,-1
 340 708 l 5,15,-1
 340 1160 l 5,16,-1
 430 1160 l 6,17,18
 460 1160 460 1160 480 1180 c 132,-1,19
 500 1200 500 1200 500 1230 c 4,20,21
 500 1259 500 1259 477.5 1279.5 c 132,-1,22
 455 1300 455 1300 430 1300 c 6,23,-1
 110 1300 l 6,24,25
 80 1300 80 1300 60 1280 c 132,-1,26
 40 1260 40 1260 40 1230 c 132,-1,27
 40 1200 40 1200 60 1180 c 132,-1,28
 80 1160 80 1160 110 1160 c 6,29,-1
 200 1160 l 5,30,-1
 200 140 l 5,31,-1
 110 140 l 6,32,33
 80 140 80 140 60 120 c 132,-1,34
 40 100 40 100 40 70 c 132,-1,35
 40 40 40 40 60 20 c 132,-1,36
 80 0 80 0 110 0 c 6,37,-1
 430 0 l 6,38,39
 455 0 455 0 477.5 20.5 c 132,-1,40
 500 41 500 41 500 70 c 4,41,42
 500 100 500 100 480 120 c 132,-1,43
 460 140 460 140 430 140 c 6,44,-1
 340 140 l 5,45,-1
 340 512 l 5,46,-1
 494 666 l 5,47,-1
 846 140 l 5,48,-1
 770 140 l 6,49,50
 740 140 740 140 720 120 c 132,-1,51
 700 100 700 100 700 70 c 132,-1,52
 700 40 700 40 720 20 c 132,-1,53
 740 0 740 0 770 0 c 6,54,-1
 1090 0 l 6,55,56
 1120 0 1120 0 1140 20 c 132,-1,57
 1160 40 1160 40 1160 70 c 132,-1,58
 1160 100 1160 100 1140 120 c 132,-1,59
 1120 140 1120 140 1090 140 c 6,60,-1
 1014 140 l 5,61,-1
 595 767 l 5,0,-1
EndSplineSet
Validated: 9
Layer: 2
SplineSet
595 767 m 5
 988 1160 l 5
 1050 1160 l 5
 1090.33398438 1160 1120 1189.66699219 1120 1230 c 132
 1120 1270.33496094 1090.33105469 1300 1050 1300 c 6
 730 1300 l 6
 689.672059551 1300 660 1270.33300781 660 1230 c 132
 660 1189.66503906 689.672851562 1160 730 1160 c 5
 792 1160 l 5
 340 708 l 5
 340 1160 l 5
 430 1160 l 5
 470.333984375 1160 500 1189.66699219 500 1230 c 132
 500 1270.33496094 460.9375 1300 430 1300 c 6
 110 1300 l 6
 69.6710830169 1300 40 1270.33300781 40 1230 c 132
 40 1189.66503906 69.671875 1160 110 1160 c 5
 200 1160 l 5
 200 140 l 5
 110 140 l 5
 69.669921875 140 40 110.333007812 40 70 c 132
 40 29.6650390625 69.6730360856 0 110 0 c 6
 430 0 l 6
 460.938476562 0 500 29.6669921875 500 70 c 132
 500 110.334960938 470.33203125 140 430 140 c 5
 340 140 l 5
 340 512 l 5
 494 666 l 5
 846 140 l 5
 770 140 l 5
 729.670898438 140 700 110.333007812 700 70 c 132
 700 29.6650390625 729.67401262 0 770 0 c 6
 1090 0 l 6
 1130.33300781 0 1160 29.6669921875 1160 70 c 132
 1160 110.334960938 1130.33203125 140 1090 140 c 5
 1014 140 l 5
 595 767 l 5
EndSplineSet
EndChar

StartChar: L
Encoding: 46 76 58
Width: 1200
GlyphClass: 2
Flags: W
AnchorPoint: "Anchor-2" 943 759 basechar 0
AnchorPoint: "Anchor-1" 663 0 basechar 0
AnchorPoint: "Anchor-0" 359 1377 basechar 0
LayerCount: 6
Fore
SplineSet
390 1160 m 5,0,-1
 390 140 l 5,1,-1
 950 140 l 5,2,-1
 950 270 l 6,3,4
 950 299 950 299 970.5 319.5 c 132,-1,5
 991 340 991 340 1020 340 c 132,-1,6
 1049 340 1049 340 1069.5 319.5 c 132,-1,7
 1090 299 1090 299 1090 270 c 6,8,-1
 1090 70 l 6,9,10
 1090 40 1090 40 1070 20 c 132,-1,11
 1050 0 1050 0 1020 0 c 6,12,-1
 160 0 l 6,13,14
 130 0 130 0 110 20 c 132,-1,15
 90 40 90 40 90 70 c 132,-1,16
 90 100 90 100 110 120 c 132,-1,17
 130 140 130 140 160 140 c 6,18,-1
 250 140 l 5,19,-1
 250 1160 l 5,20,-1
 160 1160 l 6,21,22
 130 1160 130 1160 110 1180 c 132,-1,23
 90 1200 90 1200 90 1230 c 132,-1,24
 90 1260 90 1260 110 1280 c 132,-1,25
 130 1300 130 1300 160 1300 c 6,26,-1
 570 1300 l 6,27,28
 600 1300 600 1300 620 1280 c 132,-1,29
 640 1260 640 1260 640 1230 c 132,-1,30
 640 1200 640 1200 620 1180 c 132,-1,31
 600 1160 600 1160 570 1160 c 6,32,-1
 390 1160 l 5,0,-1
EndSplineSet
Validated: 1
Layer: 2
SplineSet
390 1160 m 5
 390 140 l 5
 950 140 l 5
 950 270 l 5
 950 309 981 340 1020 340 c 4
 1059 340 1090 309 1090 270 c 5
 1090 70 l 5
 1090 29.6669921875 1060.33398438 0 1020 0 c 5
 160 0 l 5
 119.671875 0 90 29.6650390625 90 70 c 132
 90 110.333007812 119.669921875 140 160 140 c 5
 250 140 l 5
 250 1160 l 5
 160 1160 l 6
 120 1160 90 1189.66699219 90 1230 c 132
 90 1270.33496094 119.672343033 1299.90163986 160 1300 c 6
 570 1301 l 6
 610.333007812 1301 640 1271.33300781 640 1231 c 132
 640 1190.66503906 610 1161 570 1161 c 6
 390 1160 l 5
EndSplineSet
EndChar

StartChar: Lcaron
Encoding: 224 317 60
Width: 1200
GlyphClass: 2
Flags: W
AnchorPoint: "Anchor-2" 943 759 basechar 0
AnchorPoint: "Anchor-1" 663 0 basechar 0
AnchorPoint: "Anchor-0" 359 1377 basechar 0
LayerCount: 6
Fore
SplineSet
937 1310 m 2,0,-1
 858 1045 l 2,1,2
 853 1030 853 1030 840 1020 c 0,3,4
 827 1010 827 1010 810 1010 c 0,5,6
 789 1010 789 1010 774.5 1024.5 c 0,7,8
 760 1039 760 1039 760 1060 c 0,9,10
 760 1061 760 1061 801 1341 c 0,11,12
 805 1367 805 1367 824.5 1383.5 c 0,13,14
 844 1400 844 1400 870 1400 c 0,15,16
 899 1400 899 1400 919.5 1379.5 c 0,17,18
 940 1359 940 1359 940 1330 c 0,19,20
 940 1319 940 1319 937 1310 c 2,0,-1
EndSplineSet
Refer: 58 76 N 1 0 0 1 0 0 3
Validated: 1
Layer: 2
SplineSet
937 1310 m 5
 858 1045 l 5
 852 1025 833 1010 810 1010 c 4
 782 1010 760 1032 760 1060 c 4
 760 1061 760 1061 801 1341 c 4
 805.979492188 1375.00292969 835 1400 870 1400 c 4
 909 1400 940 1369 940 1330 c 4
 940 1323 939 1316 937 1310 c 5
810 1060 m 1029
870 1330 m 1029
EndSplineSet
EndChar

StartChar: Lslash
Encoding: 227 321 63
Width: 1200
GlyphClass: 2
Flags: W
AnchorPoint: "Anchor-2" 939 759 basechar 0
AnchorPoint: "Anchor-1" 659 0 basechar 0
AnchorPoint: "Anchor-0" 356 1377 basechar 0
LayerCount: 6
Fore
SplineSet
151 487 m 2,0,1
 138 480 138 480 120 480 c 0,2,3
 91 480 91 480 70.5 500.5 c 128,-1,4
 50 521 50 521 50 550 c 0,5,6
 50 594 50 594 89 613 c 2,7,-1
 749 943 l 2,8,9
 762 950 762 950 780 950 c 0,10,11
 809 950 809 950 829.5 929.5 c 128,-1,12
 850 909 850 909 850 880 c 0,13,14
 850 836 850 836 811 817 c 2,15,-1
 151 487 l 2,0,1
390 1160 m 1,16,-1
 390 140 l 1,17,-1
 950 140 l 1,18,-1
 950 270 l 2,19,20
 950 299 950 299 970.5 319.5 c 128,-1,21
 991 340 991 340 1020 340 c 128,-1,22
 1049 340 1049 340 1069.5 319.5 c 128,-1,23
 1090 299 1090 299 1090 270 c 2,24,-1
 1090 70 l 2,25,26
 1090 40 1090 40 1070 20 c 128,-1,27
 1050 0 1050 0 1020 0 c 2,28,-1
 160 0 l 2,29,30
 130 0 130 0 110 20 c 128,-1,31
 90 40 90 40 90 70 c 128,-1,32
 90 100 90 100 110 120 c 128,-1,33
 130 140 130 140 160 140 c 2,34,-1
 250 140 l 1,35,-1
 250 1160 l 1,36,-1
 160 1160 l 2,37,38
 130 1160 130 1160 110 1180 c 128,-1,39
 90 1200 90 1200 90 1230 c 128,-1,40
 90 1260 90 1260 110 1280 c 128,-1,41
 130 1300 130 1300 160 1300 c 2,42,-1
 570 1301 l 2,43,44
 600 1301 600 1301 620 1281 c 128,-1,45
 640 1261 640 1261 640 1231 c 128,-1,46
 640 1201 640 1201 620 1181 c 128,-1,47
 600 1161 600 1161 570 1161 c 2,48,-1
 390 1160 l 1,16,-1
EndSplineSet
Validated: 5
Layer: 2
SplineSet
390 1160 m 1
 390 140 l 1
 950 140 l 1
 950 270 l 1
 950 309 981 340 1020 340 c 0
 1059 340 1090 309 1090 270 c 1
 1090 70 l 1
 1090 29.6669921875 1060.33398438 0 1020 0 c 1
 160 0 l 1
 119.671875 0 90 29.6650390625 90 70 c 128
 90 110.333007812 119.669921875 140 160 140 c 1
 250 140 l 1
 250 1160 l 1
 160 1160 l 2
 120 1160 90 1189.66699219 90 1230 c 128
 90 1270.33496094 119.672343033 1299.90163986 160 1300 c 2
 570 1301 l 2
 610.333007812 1301 640 1271.33300781 640 1231 c 128
 640 1190.66503906 610 1161 570 1161 c 2
 390 1160 l 1
749 943 m 1025
151 487 m 5
 142 482 131 480 120 480 c 4
 81 480 50 511 50 550 c 4
 50 578 66 602 89 613 c 5
 749 943 l 5
 758 948 769 950 780 950 c 4
 819 950 850 919 850 880 c 4
 850 852 834 828 811 817 c 5
 151 487 l 5
EndSplineSet
EndChar

StartChar: M
Encoding: 47 77 64
Width: 1200
GlyphClass: 2
Flags: W
AnchorPoint: "Anchor-1" 600 0 basechar 0
AnchorPoint: "Anchor-0" 600 1377 basechar 0
LayerCount: 6
Fore
SplineSet
665 484 m 2,0,1
 657 464 657 464 639.5 452 c 128,-1,2
 622 440 622 440 600 440 c 128,-1,3
 578 440 578 440 560.5 452 c 128,-1,4
 543 464 543 464 535 484 c 2,5,-1
 300 1048 l 1,6,-1
 300 140 l 1,7,-1
 390 140 l 2,8,9
 420 140 420 140 440 120 c 128,-1,10
 460 100 460 100 460 70 c 128,-1,11
 460 40 460 40 440 20 c 128,-1,12
 420 0 420 0 390 0 c 2,13,-1
 70 0 l 2,14,15
 40 0 40 0 20 20 c 128,-1,16
 0 40 0 40 0 70 c 128,-1,17
 0 100 0 100 20 120 c 128,-1,18
 40 140 40 140 70 140 c 2,19,-1
 160 140 l 1,20,-1
 160 1160 l 1,21,-1
 70 1160 l 2,22,23
 40 1160 40 1160 20 1180 c 128,-1,24
 0 1200 0 1200 0 1230 c 128,-1,25
 0 1260 0 1260 20 1280 c 128,-1,26
 40 1300 40 1300 70 1300 c 2,27,-1
 300 1300 l 2,28,29
 322 1300 322 1300 339.5 1288 c 128,-1,30
 357 1276 357 1276 365 1256 c 2,31,-1
 600 692 l 1,32,-1
 835 1256 l 2,33,34
 843 1276 843 1276 860.5 1288 c 128,-1,35
 878 1300 878 1300 900 1300 c 2,36,-1
 1130 1300 l 2,37,38
 1160 1300 1160 1300 1180 1280 c 128,-1,39
 1200 1260 1200 1260 1200 1230 c 128,-1,40
 1200 1200 1200 1200 1180 1180 c 128,-1,41
 1160 1160 1160 1160 1130 1160 c 2,42,-1
 1040 1160 l 1,43,-1
 1040 140 l 1,44,-1
 1130 140 l 2,45,46
 1160 140 1160 140 1180 120 c 128,-1,47
 1200 100 1200 100 1200 70 c 128,-1,48
 1200 40 1200 40 1180 20 c 128,-1,49
 1160 0 1160 0 1130 0 c 2,50,-1
 810 0 l 2,51,52
 780 0 780 0 760 20 c 128,-1,53
 740 40 740 40 740 70 c 128,-1,54
 740 100 740 100 760 120 c 128,-1,55
 780 140 780 140 810 140 c 2,56,-1
 900 140 l 1,57,-1
 900 1048 l 1,58,-1
 665 484 l 2,0,1
EndSplineSet
Validated: 1
Layer: 2
SplineSet
665 484 m 5
 654.79296875 458.08203125 629.786132812 440 600 440 c 4
 570.213867188 440 545.20703125 458.08203125 535 484 c 5
 300 1048 l 5
 300 140 l 5
 390 140 l 5
 430.33203125 140 460 110.334960938 460 70 c 132
 460 29.6669921875 430.333007812 0 390 0 c 6
 70 0 l 6
 29.6743315697 0 0 29.6650390625 0 70 c 132
 0 110.333007812 29.669921875 140 70 140 c 5
 160 140 l 5
 160 1160 l 5
 70 1160 l 5
 29.671875 1160 0 1189.66503906 0 1230 c 132
 0 1270.33300781 29.669921875 1300 70 1300 c 5
 300 1300 l 5
 329.785650153 1300 354.79296875 1281.91796875 365 1256 c 5
 600 692 l 5
 835 1256 l 5
 845.20703125 1281.91796875 870.213867188 1300 900 1300 c 5
 1130 1300 l 5
 1170.33007812 1300 1200 1270.33300781 1200 1230 c 132
 1200 1189.66503906 1170.328125 1160 1130 1160 c 5
 1040 1160 l 5
 1040 140 l 5
 1130 140 l 5
 1170.33007812 140 1200 110.333007812 1200 70 c 132
 1200 29.6650390625 1170.328125 0 1130 0 c 6
 810 0 l 6
 769.668472552 0 740 29.6669921875 740 70 c 132
 740 110.334960938 769.66796875 140 810 140 c 5
 900 140 l 5
 900 1048 l 5
 665 484 l 5
EndSplineSet
EndChar

StartChar: N
Encoding: 48 78 65
Width: 1200
GlyphClass: 2
Flags: W
AnchorPoint: "Anchor-1" 600 0 basechar 0
AnchorPoint: "Anchor-0" 597 1377 basechar 0
LayerCount: 6
Fore
SplineSet
424 1258 m 2,0,1
 424 1258 424 1258 840 251 c 1,2,-1
 840 1160 l 1,3,-1
 750 1160 l 2,4,5
 720 1160 720 1160 700 1180 c 128,-1,6
 680 1200 680 1200 680 1230 c 128,-1,7
 680 1260 680 1260 700 1280 c 128,-1,8
 720 1300 720 1300 750 1300 c 2,9,10
 750 1300 750 1300 1070 1300 c 2,11,12
 1100 1300 1100 1300 1120 1280 c 128,-1,13
 1140 1260 1140 1260 1140 1230 c 128,-1,14
 1140 1200 1140 1200 1120 1180 c 128,-1,15
 1100 1160 1100 1160 1070 1160 c 2,16,17
 1070 1160 1070 1160 980 1160 c 1,18,-1
 980 70 l 2,19,20
 980 41 980 41 959.5 20.5 c 128,-1,21
 939 0 939 0 910 0 c 2,22,23
 910 0 910 0 840 0 c 2,24,25
 819 0 819 0 801.5 11.5 c 128,-1,26
 784 23 784 23 776 42 c 2,27,28
 776 42 776 42 360 1049 c 1,29,-1
 360 140 l 1,30,-1
 450 140 l 2,31,32
 480 140 480 140 500 120 c 128,-1,33
 520 100 520 100 520 70 c 128,-1,34
 520 40 520 40 500 20 c 128,-1,35
 480 0 480 0 450 0 c 2,36,37
 450 0 450 0 130 0 c 2,38,39
 100 0 100 0 80 20 c 128,-1,40
 60 40 60 40 60 70 c 128,-1,41
 60 100 60 100 80 120 c 128,-1,42
 100 140 100 140 130 140 c 2,43,44
 130 140 130 140 220 140 c 1,45,-1
 220 1160 l 1,46,-1
 130 1160 l 2,47,48
 100 1160 100 1160 80 1180 c 128,-1,49
 60 1200 60 1200 60 1230 c 128,-1,50
 60 1260 60 1260 80 1280 c 128,-1,51
 100 1300 100 1300 130 1300 c 2,52,53
 130 1300 130 1300 360 1300 c 2,54,55
 381 1300 381 1300 398.5 1288.5 c 128,-1,56
 416 1277 416 1277 424 1258 c 2,0,1
EndSplineSet
Validated: 1
Layer: 2
SplineSet
424.288085938 1258 m 5
 840 251 l 5
 840 1160 l 5
 750 1160 l 5
 709.672851562 1160 680 1189.66503906 680 1230 c 132
 680 1270.33300781 709.671337704 1300 750 1300 c 6
 1070 1300 l 6
 1110.33203125 1300 1140 1270.33496094 1140 1230 c 132
 1140 1189.66699219 1110.33398438 1160 1070 1160 c 5
 980 1160 l 5
 980 70 l 5
 980 31 949 0 910 0 c 5
 840 0 l 5
 810.986624166 0 786.400735392 17.1565123575 775.711914062 42 c 5
 360 1049 l 5
 360 140 l 5
 450 140 l 5
 490.33203125 140 520 110.334960938 520 70 c 132
 520 29.6669921875 490.333984375 0 450 0 c 6
 130 0 l 6
 89.6723142563 0 60 29.6650390625 60 70 c 132
 60 110.333007812 89.669921875 140 130 140 c 5
 220 140 l 5
 220 1160 l 5
 130 1160 l 5
 89.671875 1160 60 1189.66503906 60 1230 c 132
 60 1270.33300781 89.669921875 1300 130 1300 c 5
 360 1300 l 5
 389.013375834 1300 413.599264608 1282.84348764 424.288085938 1258 c 5
EndSplineSet
EndChar

StartChar: Eng
Encoding: 231 330 70
Width: 1200
GlyphClass: 2
Flags: W
AnchorPoint: "Anchor-1" 600 0 basechar 0
AnchorPoint: "Anchor-0" 597 1377 basechar 0
LayerCount: 6
Fore
SplineSet
980 -110 m 6,0,1
 980 -259 980 -259 909 -359.5 c 132,-1,2
 838 -460 838 -460 720 -460 c 4,3,4
 644 -460 644 -460 586 -417 c 132,-1,5
 528 -374 528 -374 496 -298 c 4,6,7
 490 -285 490 -285 490 -270 c 4,8,9
 490 -241 490 -241 510.5 -220.5 c 132,-1,10
 531 -200 531 -200 560 -200 c 4,11,12
 606 -200 606 -200 624 -242 c 4,13,14
 656 -320 656 -320 720 -320 c 4,15,16
 775 -320 775 -320 807.5 -260 c 132,-1,17
 840 -200 840 -200 840 -110 c 6,18,-1
 840 0 l 5,19,20
 819 0 819 0 801.5 11.5 c 132,-1,21
 784 23 784 23 776 42 c 6,22,-1
 360 1049 l 5,23,-1
 360 140 l 5,24,-1
 450 140 l 6,25,26
 480 140 480 140 500 120 c 132,-1,27
 520 100 520 100 520 70 c 132,-1,28
 520 40 520 40 500 20 c 132,-1,29
 480 0 480 0 450 0 c 6,30,-1
 130 0 l 6,31,32
 100 0 100 0 80 20 c 132,-1,33
 60 40 60 40 60 70 c 132,-1,34
 60 100 60 100 80 120 c 132,-1,35
 100 140 100 140 130 140 c 6,36,-1
 220 140 l 5,37,-1
 220 1160 l 5,38,-1
 130 1160 l 6,39,40
 100 1160 100 1160 80 1180 c 132,-1,41
 60 1200 60 1200 60 1230 c 132,-1,42
 60 1260 60 1260 80 1280 c 132,-1,43
 100 1300 100 1300 130 1300 c 6,44,-1
 360 1300 l 6,45,46
 381 1300 381 1300 398.5 1288.5 c 132,-1,47
 416 1277 416 1277 424 1258 c 6,48,-1
 840 251 l 5,49,-1
 840 1160 l 5,50,-1
 750 1160 l 6,51,52
 720 1160 720 1160 700 1180 c 132,-1,53
 680 1200 680 1200 680 1230 c 132,-1,54
 680 1260 680 1260 700 1280 c 132,-1,55
 720 1300 720 1300 750 1300 c 6,56,-1
 1070 1300 l 6,57,58
 1100 1300 1100 1300 1120 1280 c 132,-1,59
 1140 1260 1140 1260 1140 1230 c 132,-1,60
 1140 1200 1140 1200 1120 1180 c 132,-1,61
 1100 1160 1100 1160 1070 1160 c 6,62,-1
 980 1160 l 5,63,-1
 980 70 l 5,64,-1
 980 -110 l 6,0,1
840 1160 m 1025,65,-1
EndSplineSet
Validated: 1
Layer: 2
SplineSet
980 -110 m 5
 980 -303 882 -460 720 -460 c 4
 616 -460 537.711914062 -396 495.711914062 -298 c 5
 492.032226562 -289.448242188 490 -279.986328125 490 -270 c 4
 490 -231 521 -200 560 -200 c 4
 589.013671875 -200 613.311523438 -217.15625 624 -242 c 5
 644 -290 677 -320 720 -320 c 4
 796 -320 840 -226 840 -110 c 5
 840 0 l 1
 810.986624166 0 786.400735392 17.1565123575 775.711914062 42 c 1
 360 1049 l 1
 360 140 l 1
 450 140 l 1
 490.33203125 140 520 110.334960938 520 70 c 128
 520 29.6669921875 490.333984375 0 450 0 c 2
 130 0 l 2
 89.6723142563 0 60 29.6650390625 60 70 c 128
 60 110.333007812 89.669921875 140 130 140 c 1
 220 140 l 1
 220 1160 l 1
 130 1160 l 1
 89.671875 1160 60 1189.66503906 60 1230 c 128
 60 1270.33300781 89.669921875 1300 130 1300 c 1
 360 1300 l 1
 389.013375834 1300 413.599264608 1282.84348764 424.288085938 1258 c 1
 840 251 l 1
 840 1160 l 1
 750 1160 l 1
 709.672851562 1160 680 1189.66503906 680 1230 c 128
 680 1270.33300781 709.671337704 1300 750 1300 c 2
 1070 1300 l 2
 1110.33203125 1300 1140 1270.33496094 1140 1230 c 128
 1140 1189.66699219 1110.33398438 1160 1070 1160 c 1
 980 1160 l 1
 980 70 l 1
 980 -110 l 5
840 1160 m 1025
EndSplineSet
EndChar

StartChar: O
Encoding: 49 79 71
Width: 1200
GlyphClass: 2
Flags: W
AnchorPoint: "Anchor-1" 600 0 basechar 0
AnchorPoint: "Anchor-0" 600 1377 basechar 0
LayerCount: 6
Fore
SplineSet
600 120 m 128,-1,1
 756 120 756 120 853 257 c 128,-1,2
 950 394 950 394 950 650 c 128,-1,3
 950 906 950 906 853 1043 c 128,-1,4
 756 1180 756 1180 600 1180 c 128,-1,5
 444 1180 444 1180 347 1043 c 128,-1,6
 250 906 250 906 250 650 c 128,-1,7
 250 394 250 394 347 257 c 128,-1,0
 444 120 444 120 600 120 c 128,-1,1
600 -20 m 128,-1,9
 494 -20 494 -20 405.5 22.5 c 128,-1,10
 317 65 317 65 250.5 147 c 128,-1,11
 184 229 184 229 147 357.5 c 128,-1,12
 110 486 110 486 110 650 c 128,-1,13
 110 814 110 814 147 942.5 c 128,-1,14
 184 1071 184 1071 250.5 1153 c 128,-1,15
 317 1235 317 1235 405.5 1277.5 c 128,-1,16
 494 1320 494 1320 600 1320 c 128,-1,17
 706 1320 706 1320 794.5 1277.5 c 128,-1,18
 883 1235 883 1235 949.5 1153 c 128,-1,19
 1016 1071 1016 1071 1053 942.5 c 128,-1,20
 1090 814 1090 814 1090 650 c 128,-1,21
 1090 486 1090 486 1053 357.5 c 128,-1,22
 1016 229 1016 229 949.5 147 c 128,-1,23
 883 65 883 65 794.5 22.5 c 128,-1,8
 706 -20 706 -20 600 -20 c 128,-1,9
EndSplineSet
Validated: 1
Layer: 2
SplineSet
600 120 m 132
 400 120 250 297 250 650 c 132
 250 1003 400 1180 600 1180 c 132
 800 1180 950 1003 950 650 c 132
 950 297 800 120 600 120 c 132
600 -20 m 132
 879 -20 1090 203 1090 650 c 132
 1090 1097 879 1320 600 1320 c 132
 321 1320 110 1097 110 650 c 132
 110 203 321 -20 600 -20 c 132
600 650 m 1041
EndSplineSet
Substitution2: "Single Substitution lookup 12 subtable" ordmasculine
Substitution2: "'aalt' Access All Alternates lookup 0 subtable" ordmasculine
EndChar

StartChar: Oacute
Encoding: 148 211 72
Width: 1200
GlyphClass: 2
Flags: W
AnchorPoint: "Anchor-1" 600 0 basechar 0
AnchorPoint: "Anchor-0" 600 1377 basechar 0
LayerCount: 6
Fore
SplineSet
745 1791 m 2,0,1
 760 1800 760 1800 780 1800 c 0,2,3
 811 1800 811 1800 833 1778 c 0,4,5
 855 1756 855 1756 855 1725 c 0,6,7
 855 1702 855 1702 841.5 1682.5 c 0,8,9
 828 1663 828 1663 806 1655 c 2,10,-1
 458 1523 l 2,11,12
 449 1520 449 1520 440 1520 c 0,13,14
 419 1520 419 1520 404.5 1534.5 c 0,15,16
 390 1549 390 1549 390 1570 c 0,17,18
 390 1601 390 1601 416 1614 c 2,19,-1
 745 1791 l 2,0,1
EndSplineSet
Refer: 71 79 N 1 0 0 1 0 0 3
Validated: 1
Layer: 2
SplineSet
745 1791 m 5
 755 1797 767 1800 780 1800 c 4
 821 1800 855 1766 855 1725 c 4
 855 1693 834 1666 806 1655 c 5
 458 1523 l 5
 452 1521 446 1520 440 1520 c 4
 412 1520 390 1542 390 1570 c 4
 390 1589 400 1606 416 1614 c 5
 745 1791 l 5
EndSplineSet
Substitution2: "'locl' Localized Forms in Latin lookup 22 subtable" Oacute.loclPLK
Substitution2: "'aalt' Access All Alternates lookup 0 subtable" Oacute.loclPLK
EndChar

StartChar: Ocircumflex
Encoding: 149 212 74
Width: 1200
GlyphClass: 2
Flags: W
AnchorPoint: "Anchor-1" 600 0 basechar 0
AnchorPoint: "Anchor-0" 600 1377 basechar 0
LayerCount: 6
Fore
SplineSet
600 1810 m 0,0,1
 623 1810 623 1810 642 1796 c 2,2,-1
 910 1590 l 2,3,4
 930 1575 930 1575 930 1550 c 0,5,6
 930 1529 930 1529 915.5 1514.5 c 0,7,8
 901 1500 901 1500 880 1500 c 0,9,10
 868 1500 868 1500 854 1507 c 2,11,-1
 600 1659 l 1,12,-1
 346 1507 l 2,13,14
 332 1500 332 1500 320 1500 c 0,15,16
 299 1500 299 1500 284.5 1514.5 c 0,17,18
 270 1529 270 1529 270 1550 c 0,19,20
 270 1575 270 1575 290 1590 c 2,21,-1
 558 1796 l 2,22,23
 577 1810 577 1810 600 1810 c 0,0,1
EndSplineSet
Refer: 71 79 N 1 0 0 1 0 0 3
Validated: 1
Layer: 2
SplineSet
600 1810 m 4
 616 1810 630 1805 642 1796 c 5
 910 1590 l 5
 922 1581 930 1567 930 1550 c 4
 930 1522 908 1500 880 1500 c 4
 870 1500 862 1503 854 1507 c 5
 600 1659 l 5
 346 1507 l 5
 338 1503 330 1500 320 1500 c 4
 292 1500 270 1522 270 1550 c 4
 270 1567 278 1581 290 1590 c 5
 558 1796 l 5
 570 1805 584 1810 600 1810 c 4
EndSplineSet
EndChar

StartChar: Ograve
Encoding: 147 210 76
Width: 1200
GlyphClass: 2
Flags: W
AnchorPoint: "Anchor-1" 600 0 basechar 0
AnchorPoint: "Anchor-0" 600 1377 basechar 0
LayerCount: 6
Fore
Refer: 1686 -1 S 1 0 0 1 0 0 2
Refer: 71 79 N 1 0 0 1 0 0 3
Validated: 9
Layer: 2
SplineSet
455 1791 m 5
 445 1797 433 1800 420 1800 c 4
 379 1800 345 1766 345 1725 c 4
 345 1693 366 1666 394 1655 c 5
 742 1523 l 5
 748 1521 754 1520 760 1520 c 4
 788 1520 810 1542 810 1570 c 4
 810 1589 800 1606 784 1614 c 5
 455 1791 l 5
EndSplineSet
EndChar

StartChar: Omacron
Encoding: 234 332 78
Width: 1200
GlyphClass: 2
Flags: W
AnchorPoint: "Anchor-1" 600 0 basechar 0
AnchorPoint: "Anchor-0" 600 1377 basechar 0
LayerCount: 6
Fore
Refer: 71 79 N 1 0 0 1 0 0 3
Refer: 1694 -1 S 1 0 0 1 -0.0927734 0 2
Validated: 1
Layer: 2
SplineSet
800 1560 m 5
 400 1560 l 5
 361 1560 330 1591 330 1630 c 4
 330 1669 361 1700 400 1700 c 5
 800 1700 l 5
 839 1700 870 1669 870 1630 c 4
 870 1591 839 1560 800 1560 c 5
EndSplineSet
EndChar

StartChar: Oslash
Encoding: 153 216 79
Width: 1200
GlyphClass: 2
Flags: W
AnchorPoint: "Anchor-1" 600 0 basechar 0
AnchorPoint: "Anchor-0" 600 1377 basechar 0
LayerCount: 6
Fore
SplineSet
915 1013 m 1,0,-1
 1021 1119 l 2,1,2
 1042 1140 1042 1140 1070 1140 c 0,3,4
 1099 1140 1099 1140 1119.5 1119.5 c 128,-1,5
 1140 1099 1140 1099 1140 1070 c 0,6,7
 1140 1042 1140 1042 1119 1021 c 2,8,-1
 1013 915 l 1,9,10
 1120 776 1120 776 1120 600 c 0,11,12
 1120 494 1120 494 1079 398 c 128,-1,13
 1038 302 1038 302 968 232 c 128,-1,14
 898 162 898 162 802 121 c 128,-1,15
 706 80 706 80 600 80 c 0,16,17
 424 80 424 80 285 187 c 1,18,-1
 179 81 l 2,19,20
 158 60 158 60 130 60 c 0,21,22
 101 60 101 60 80.5 80.5 c 128,-1,23
 60 101 60 101 60 130 c 0,24,25
 60 158 60 158 81 179 c 2,26,-1
 187 285 l 1,27,28
 80 424 80 424 80 600 c 0,29,30
 80 706 80 706 121 802 c 128,-1,31
 162 898 162 898 232 968 c 128,-1,32
 302 1038 302 1038 398 1079 c 128,-1,33
 494 1120 494 1120 600 1120 c 0,34,35
 776 1120 776 1120 915 1013 c 1,0,-1
913 815 m 1,36,-1
 385 287 l 1,37,38
 482 220 482 220 600 220 c 0,39,40
 758 220 758 220 869 331 c 128,-1,41
 980 442 980 442 980 600 c 0,42,43
 980 718 980 718 913 815 c 1,36,-1
815 913 m 1,44,45
 718 980 718 980 600 980 c 0,46,47
 442 980 442 980 331 869 c 128,-1,48
 220 758 220 758 220 600 c 0,49,50
 220 482 220 482 287 385 c 1,51,52
 287 385 287 385 815 913 c 1,44,45
EndSplineSet
Validated: 1
Layer: 2
SplineSet
915 1013 m 1
 1021 1119 l 5
 1035 1133 1051.33300781 1140 1070 1140 c 4
 1109.04882812 1140 1140 1109.04882812 1140 1070 c 4
 1140 1051.33300781 1133 1035 1119 1021 c 5
 1013 915 l 1
 1080 828 1120 718 1120 600 c 0
 1120 313 887 80 600 80 c 0
 482 80 372 120 285 187 c 1
 179 81 l 5
 165 67 148.666992188 60 130 60 c 4
 90.951171875 60 60 90.951171875 60 130 c 4
 60 148.666992188 67 165 81 179 c 5
 187 285 l 1
 120 372 80 482 80 600 c 0
 80 887 313 1120 600 1120 c 0
 718 1120 828 1080 915 1013 c 1
913 815 m 1
 385 287 l 1
 446 245 520 220 600 220 c 0
 810 220 980 390 980 600 c 0
 980 680 955 754 913 815 c 1
815 913 m 1
 287 385 l 1
 245 446 220 520 220 600 c 0
 220 810 390 980 600 980 c 0
 680 980 754 955 815 913 c 1
EndSplineSet
Layer: 3
SplineSet
915.368599652 1013.36859965 m 5
 815.265014312 913.265014312 l 5
 853.617180509 886.87280995 886.87280995 853.617180509 913.265014312 815.265014312 c 5
 1013.36859965 915.368599652 l 1029
284.631400348 186.631400348 m 5
 384.734985688 286.734985688 l 5
 346.382819491 313.12719005 313.12719005 346.382819491 286.734985688 384.734985688 c 5
 186.631400348 284.631400348 l 1029
915.368599652 1013.36859965 m 5
 952.220119325 985.200814241 985.200814241 952.220119325 1013.36859965 915.368599652 c 1029
284.631400348 186.631400348 m 5
 247.779880675 214.799185759 214.799185759 247.779880675 186.631400348 284.631400348 c 1029
EndSplineSet
EndChar

StartChar: Otilde
Encoding: 150 213 81
Width: 1200
GlyphClass: 2
Flags: W
AnchorPoint: "Anchor-1" 600 0 basechar 0
AnchorPoint: "Anchor-0" 600 1377 basechar 0
LayerCount: 6
Fore
SplineSet
720 1680 m 0,0,1
 701 1680 701 1680 661.5 1705 c 0,2,3
 622 1730 622 1730 572.5 1755 c 0,4,5
 523 1780 523 1780 480 1780 c 0,6,7
 447.406739302 1780 447.406739302 1780 410.923743825 1762.5844206 c 0,8,9
 374.440748347 1745.16884119 374.440748347 1745.16884119 347.03763618 1721.33296832 c 0,10,11
 319.634524013 1697.49709545 319.634524013 1697.49709545 301.478705983 1678.24390546 c 0,12,13
 283.322887953 1658.99071547 283.322887953 1658.99071547 278.092773438 1650 c 0,14,15
 270 1636.0904496 270 1636.0904496 270 1620 c 0,16,17
 270 1595 270 1595 287.5 1577.5 c 0,18,19
 305 1560 305 1560 330 1560 c 0,20,21
 364.455508068 1560 364.455508068 1560 381.907226562 1590 c 0,22,23
 391.740548755 1606.90113923 391.740548755 1606.90113923 420.897500129 1633.45056961 c 0,24,25
 450.054451503 1660 450.054451503 1660 480 1660 c 0,26,27
 499 1660 499 1660 538.5 1635 c 0,28,29
 578 1610 578 1610 627.5 1585 c 0,30,31
 677 1560 677 1560 720 1560 c 0,32,33
 752.593260698 1560 752.593260698 1560 789.076256175 1577.4155794 c 0,34,35
 825.559251653 1594.83115881 825.559251653 1594.83115881 852.96236382 1618.66703168 c 0,36,37
 880.365475987 1642.50290455 880.365475987 1642.50290455 898.521294017 1661.75609454 c 0,38,39
 916.677112047 1681.00928453 916.677112047 1681.00928453 921.907226562 1690 c 0,40,41
 930 1703.9095504 930 1703.9095504 930 1720 c 0,42,43
 930 1745 930 1745 912.5 1762.5 c 0,44,45
 895 1780 895 1780 870 1780 c 0,46,47
 835.544491932 1780 835.544491932 1780 818.092773438 1750 c 0,48,49
 808.259451245 1733.09886077 808.259451245 1733.09886077 779.102499871 1706.54943039 c 0,50,51
 749.945548497 1680 749.945548497 1680 720 1680 c 0,0,1
EndSplineSet
Refer: 71 79 N 1 0 0 1 0 0 3
Validated: 9
Layer: 2
SplineSet
720 1680 m 7
 670 1680 580 1780 480 1780 c 7
 386 1780 288.505859375 1667.90039062 278.092773438 1650 c 4
 272.950195312 1641.16113281 270 1630.90820312 270 1620 c 4
 270 1587 297 1560 330 1560 c 4
 352.091796875 1560 371.494140625 1572.09960938 381.907226562 1590 c 4
 387.049804688 1598.83886719 433 1660 480 1660 c 7
 530 1660 620 1560 720 1560 c 7
 814 1560 911.494140625 1672.09960938 921.907226562 1690 c 4
 927.049804688 1698.83886719 930 1709.09179688 930 1720 c 4
 930 1753 903 1780 870 1780 c 4
 847.908203125 1780 828.505859375 1767.90039062 818.092773438 1750 c 4
 812.950195312 1741.16113281 767 1680 720 1680 c 7
EndSplineSet
EndChar

StartChar: OE
Encoding: 236 338 82
Width: 1200
GlyphClass: 2
Flags: W
AnchorPoint: "Anchor-1" 600 0 basechar 0
AnchorPoint: "Anchor-0" 600 1377 basechar 0
LayerCount: 6
Fore
SplineSet
1010 610 m 6,0,-1
 703 610 l 5,1,-1
 703 750 l 5,2,-1
 1010 750 l 6,3,4
 1039 750 1039 750 1059.5 729.5 c 132,-1,5
 1080 709 1080 709 1080 680 c 132,-1,6
 1080 651 1080 651 1059.5 630.5 c 132,-1,7
 1039 610 1039 610 1010 610 c 6,0,-1
1150 1160 m 6,8,-1
 489 1160 l 5,9,-1
 489 1300 l 5,10,-1
 1150 1300 l 6,11,12
 1179 1300 1179 1300 1199.5 1279.5 c 132,-1,13
 1220 1259 1220 1259 1220 1230 c 132,-1,14
 1220 1201 1220 1201 1199.5 1180.5 c 132,-1,15
 1179 1160 1179 1160 1150 1160 c 6,8,-1
1150 0 m 6,16,-1
 489 0 l 5,17,-1
 489 140 l 5,18,-1
 1150 140 l 6,19,20
 1179 140 1179 140 1199.5 119.5 c 132,-1,21
 1220 99 1220 99 1220 70 c 132,-1,22
 1220 41 1220 41 1199.5 20.5 c 132,-1,23
 1179 0 1179 0 1150 0 c 6,16,-1
110 650 m 132,-1,25
 110 394 110 394 187.5 257 c 132,-1,26
 265 120 265 120 390 120 c 132,-1,27
 515 120 515 120 592.5 257 c 132,-1,28
 670 394 670 394 670 650 c 132,-1,29
 670 906 670 906 592.5 1043 c 132,-1,30
 515 1180 515 1180 390 1180 c 132,-1,31
 265 1180 265 1180 187.5 1043 c 132,-1,24
 110 906 110 906 110 650 c 132,-1,25
-30 650 m 132,-1,33
 -30 813 -30 813 4 942.5 c 132,-1,34
 38 1072 38 1072 96 1153.5 c 132,-1,35
 154 1235 154 1235 229 1277.5 c 132,-1,36
 304 1320 304 1320 390 1320 c 132,-1,37
 476 1320 476 1320 551 1277.5 c 132,-1,38
 626 1235 626 1235 684 1153.5 c 132,-1,39
 742 1072 742 1072 776 942.5 c 132,-1,40
 810 813 810 813 810 650 c 132,-1,41
 810 487 810 487 776 357.5 c 132,-1,42
 742 228 742 228 684 146.5 c 132,-1,43
 626 65 626 65 551 22.5 c 132,-1,44
 476 -20 476 -20 390 -20 c 132,-1,45
 304 -20 304 -20 229 22.5 c 132,-1,46
 154 65 154 65 96 146.5 c 132,-1,47
 38 228 38 228 4 357.5 c 132,-1,32
 -30 487 -30 487 -30 650 c 132,-1,33
EndSplineSet
Validated: 5
Layer: 2
SplineSet
1010 610 m 5
 703 610 l 5
 703 750 l 5
 1010 750 l 5
 1049 750 1080 719 1080 680 c 4
 1080 641 1049 610 1010 610 c 5
1150 1160 m 5
 489 1160 l 5
 489 1300 l 5
 1150 1300 l 5
 1189 1300 1220 1269 1220 1230 c 4
 1220 1191 1189 1160 1150 1160 c 5
1150 0 m 5
 489 0 l 5
 489 140 l 5
 1150 140 l 5
 1189 140 1220 109 1220 70 c 4
 1220 31 1189 0 1150 0 c 5
110 650 m 132
 110 297 230 120 390 120 c 132
 550 120 670 297 670 650 c 132
 670 1003 550 1180 390 1180 c 132
 230 1180 110 1003 110 650 c 132
-30 650 m 132
 -30 1097 165 1320 390 1320 c 132
 615 1320 810 1097 810 650 c 132
 810 203 615 -20 390 -20 c 132
 165 -20 -30 203 -30 650 c 132
EndSplineSet
EndChar

StartChar: P
Encoding: 50 80 83
Width: 1200
GlyphClass: 2
Flags: W
AnchorPoint: "Anchor-1" 600 0 basechar 0
AnchorPoint: "Anchor-0" 600 1377 basechar 0
LayerCount: 6
Fore
SplineSet
675 530 m 2,0,-1
 450 530 l 1,1,-1
 450 140 l 1,2,-1
 630 140 l 2,3,4
 660 140 660 140 680 120 c 128,-1,5
 700 100 700 100 700 70 c 128,-1,6
 700 40 700 40 680 20 c 128,-1,7
 660 0 660 0 630 0 c 2,8,-1
 220 0 l 2,9,10
 191 0 191 0 170.5 20.5 c 128,-1,11
 150 41 150 41 150 70 c 128,-1,12
 150 99 150 99 170.5 119.5 c 128,-1,13
 191 140 191 140 220 140 c 2,14,-1
 310 140 l 1,15,-1
 310 1160 l 1,16,-1
 220 1160 l 2,17,18
 191 1160 191 1160 170.5 1180.5 c 128,-1,19
 150 1201 150 1201 150 1230 c 128,-1,20
 150 1259 150 1259 170.5 1279.5 c 128,-1,21
 191 1300 191 1300 220 1300 c 2,22,-1
 675 1300 l 2,23,24
 835 1300 835 1300 947.5 1187.5 c 128,-1,25
 1060 1075 1060 1075 1060 915 c 128,-1,26
 1060 755 1060 755 947.5 642.5 c 128,-1,27
 835 530 835 530 675 530 c 2,0,-1
675 670 m 2,28,29
 776 670 776 670 848 742 c 128,-1,30
 920 814 920 814 920 915 c 128,-1,31
 920 1016 920 1016 848 1088 c 128,-1,32
 776 1160 776 1160 675 1160 c 2,33,34
 675 1160 675 1160 450 1160 c 1,35,-1
 450 670 l 1,36,-1
 675 670 l 2,28,29
EndSplineSet
Validated: 1
Layer: 2
SplineSet
675 530 m 5
 450 530 l 5
 450 140 l 5
 630 140 l 6
 670 140 700 110.334960938 700 70 c 132
 700 29.6669921875 670.334960938 0 630 0 c 5
 220 0 l 5
 181 0 150 31 150 70 c 7
 150 109 181 140 220 140 c 5
 310 140 l 5
 310 1160 l 5
 220 1160 l 5
 181 1160 150 1191 150 1230 c 7
 150 1269 181 1300 220 1300 c 5
 675 1300 l 5
 888 1300 1060 1128 1060 915 c 4
 1060 702 888 530 675 530 c 5
675 670 m 5
 450 670 l 5
 450 1160 l 5
 675 1160 l 5
 810 1160 920 1050 920 915 c 4
 920 780 810 670 675 670 c 5
EndSplineSet
EndChar

StartChar: Thorn
Encoding: 159 222 84
Width: 1200
GlyphClass: 2
Flags: W
AnchorPoint: "Anchor-1" 600 0 basechar 0
AnchorPoint: "Anchor-0" 600 1377 basechar 0
LayerCount: 6
Fore
SplineSet
450 1035 m 1,0,-1
 675 1035 l 2,1,2
 835 1035 835 1035 947.5 922.5 c 128,-1,3
 1060 810 1060 810 1060 650 c 128,-1,4
 1060 490 1060 490 947.5 377.5 c 128,-1,5
 835 265 835 265 675 265 c 2,6,-1
 450 265 l 1,7,-1
 450 140 l 1,8,-1
 630 140 l 2,9,10
 660 140 660 140 680 120 c 128,-1,11
 700 100 700 100 700 70 c 128,-1,12
 700 40 700 40 680 20 c 128,-1,13
 660 0 660 0 630 0 c 2,14,-1
 220 0 l 2,15,16
 191 0 191 0 170.5 20.5 c 128,-1,17
 150 41 150 41 150 70 c 128,-1,18
 150 99 150 99 170.5 119.5 c 128,-1,19
 191 140 191 140 220 140 c 2,20,-1
 310 140 l 1,21,-1
 310 1160 l 1,22,-1
 220 1160 l 2,23,24
 191 1160 191 1160 170.5 1180.5 c 128,-1,25
 150 1201 150 1201 150 1230 c 128,-1,26
 150 1259 150 1259 170.5 1279.5 c 128,-1,27
 191 1300 191 1300 220 1300 c 2,28,-1
 630 1300 l 2,29,30
 660 1300 660 1300 680 1280 c 128,-1,31
 700 1260 700 1260 700 1230 c 128,-1,32
 700 1200 700 1200 680 1180 c 128,-1,33
 660 1160 660 1160 630 1160 c 2,34,-1
 450 1160 l 1,35,-1
 450 1035 l 1,0,-1
675 405 m 2,36,37
 776 405 776 405 848 477 c 128,-1,38
 920 549 920 549 920 650 c 128,-1,39
 920 751 920 751 848 823 c 128,-1,40
 776 895 776 895 675 895 c 2,41,42
 675 895 675 895 450 895 c 1,43,-1
 450 405 l 1,44,-1
 675 405 l 2,36,37
EndSplineSet
Validated: 1
Layer: 2
SplineSet
450 1035 m 5
 675 1035 l 5
 888 1035 1060 863 1060 650 c 4
 1060 437 888 265 675 265 c 5
 450 265 l 5
 450 140 l 5
 630 140 l 6
 670 140 700 110.334960938 700 70 c 132
 700 29.6669921875 670.334960938 0 630 0 c 5
 220 0 l 5
 181 0 150 31 150 70 c 7
 150 109 181 140 220 140 c 5
 310 140 l 5
 310 1160 l 5
 220 1160 l 5
 181 1160 150 1191 150 1230 c 7
 150 1269 181 1300 220 1300 c 5
 630 1300 l 5
 670.334960938 1300 700 1270.33300781 700 1230 c 132
 700 1189.66503906 670 1160 630 1160 c 6
 450 1160 l 5
 450 1035 l 5
675 405 m 5
 450 405 l 5
 450 895 l 5
 675 895 l 5
 810 895 920 785 920 650 c 4
 920 515 810 405 675 405 c 5
EndSplineSet
EndChar

StartChar: Q
Encoding: 51 81 85
Width: 1200
GlyphClass: 2
Flags: W
AnchorPoint: "Anchor-1" 600 0 basechar 0
AnchorPoint: "Anchor-0" 600 1377 basechar 0
LayerCount: 6
Fore
SplineSet
916 131 m 1,0,1
 937 69 937 69 958 34.5 c 128,-1,2
 979 0 979 0 1010 0 c 0,3,4
 1025 0 1025 0 1039 4.5 c 128,-1,5
 1053 9 1053 9 1065.5 18 c 128,-1,6
 1078 27 1078 27 1084.5 33 c 128,-1,7
 1091 39 1091 39 1101 49.5 c 2,8,-1
 1111 60 l 2,9,10
 1133 80 1133 80 1160 80 c 0,11,12
 1189 80 1189 80 1209.5 59.5 c 128,-1,13
 1230 39 1230 39 1230 10 c 128,-1,14
 1230 -19 1230 -19 1209 -40 c 0,15,16
 1208 -41 1208 -41 1198.5 -51.5 c 128,-1,17
 1189 -62 1189 -62 1179 -71.5 c 128,-1,18
 1169 -81 1169 -81 1150 -94.5 c 128,-1,19
 1131 -108 1131 -108 1111 -117 c 128,-1,20
 1091 -126 1091 -126 1062 -133 c 128,-1,21
 1033 -140 1033 -140 1001 -140 c 0,22,23
 976 -140 976 -140 956 -134.5 c 128,-1,24
 936 -129 936 -129 910 -113 c 128,-1,25
 884 -97 884 -97 857 -58.5 c 128,-1,26
 830 -20 830 -20 805 38 c 1,27,28
 705 -20 705 -20 580 -20 c 0,29,30
 474 -20 474 -20 385.5 22.5 c 128,-1,31
 297 65 297 65 230.5 147 c 128,-1,32
 164 229 164 229 127 357.5 c 128,-1,33
 90 486 90 486 90 650 c 128,-1,34
 90 814 90 814 127 942.5 c 128,-1,35
 164 1071 164 1071 230.5 1153 c 128,-1,36
 297 1235 297 1235 385.5 1277.5 c 128,-1,37
 474 1320 474 1320 580 1320 c 128,-1,38
 686 1320 686 1320 774.5 1277.5 c 128,-1,39
 863 1235 863 1235 929.5 1153 c 128,-1,40
 996 1071 996 1071 1033 942.5 c 128,-1,41
 1070 814 1070 814 1070 650 c 0,42,43
 1070 309 1070 309 916 131 c 1,0,1
850 284 m 1,44,45
 930 423 930 423 930 650 c 0,46,47
 930 906 930 906 833 1043 c 128,-1,48
 736 1180 736 1180 580 1180 c 128,-1,49
 424 1180 424 1180 327 1043 c 128,-1,50
 230 906 230 906 230 650 c 0,51,52
 230 423 230 423 310 284 c 1,53,54
 412 460 412 460 580 460 c 128,-1,55
 748 460 748 460 850 284 c 1,44,45
752 173 m 1,56,57
 688 320 688 320 580 320 c 128,-1,58
 472 320 472 320 408 173 c 1,59,60
 482 120 482 120 580 120 c 128,-1,61
 678 120 678 120 752 173 c 1,56,57
EndSplineSet
Validated: 1
Layer: 2
SplineSet
916 131 m 5
 938 67 964 0 1010 0 c 4
 1063 0 1098 47 1111 60 c 4
 1124 72 1141 80 1160 80 c 4
 1199 80 1230 49 1230 10 c 4
 1230 -10 1222 -27 1209 -40 c 4
 1196 -52 1134 -140 1001 -140 c 4
 946 -140 876 -126 805 38 c 5
 738 -1 662 -20 580 -20 c 132
 301 -20 90 203 90 650 c 132
 90 1097 301 1320 580 1320 c 132
 859 1320 1070 1097 1070 650 c 132
 1070 415 1012 242 916 131 c 5
850 284 m 5
 900 371 930 493 930 650 c 132
 930 1003 780 1180 580 1180 c 132
 380 1180 230 1003 230 650 c 132
 230 493 260 371 310 284 c 5
 371 389 459 460 580 460 c 4
 701 460 789 389 850 284 c 5
752 173 m 5
 715 258 664 320 580 320 c 4
 496 320 445 258 408 173 c 5
 458 137 517 120 580 120 c 132
 643 120 702 137 752 173 c 5
EndSplineSet
Layer: 5
SplineSet
1001 -140 m 4
 1134 -140 1196.65234375 -52.4033203125 1209.24707031 -40 c 4
 1222.09472656 -27.34765625 1230 -9.693359375 1230 10 c 4
 1230 49 1199 80 1160 80 c 4
 1140.69335938 80 1123.34765625 72.4033203125 1110.75292969 60 c 4
 1097.90527344 47.34765625 1063 0 1010 0 c 4
 955 0 929 96 904 167 c 4
 845.801757812 332.284179688 742.517578125 460 580 460 c 4
 417.482421875 460 315 332 256 167 c 5
 385 115 l 5
 424 228 477.813476562 320 580 320 c 4
 682.186523438 320 736.113320847 228.039076122 775 115 c 4
 856.530593449 -122 938 -140 1001 -140 c 4
580 120 m 132
 380 120 230 297 230 650 c 132
 230 1003 380 1180 580 1180 c 132
 780 1180 930 1003 930 650 c 132
 930 297 780 120 580 120 c 132
580 -20 m 132
 859 -20 1070 203 1070 650 c 132
 1070 1097 859 1320 580 1320 c 132
 301 1320 90 1097 90 650 c 132
 90 203 301 -20 580 -20 c 132
EndSplineSet
EndChar

StartChar: R
Encoding: 52 82 86
Width: 1200
GlyphClass: 2
Flags: W
AnchorPoint: "Anchor-1" 597 0 basechar 0
AnchorPoint: "Anchor-0" 600 1377 basechar 0
LayerCount: 6
Fore
SplineSet
625 710 m 2,0,-1
 390 710 l 1,1,-1
 390 1160 l 1,2,-1
 625 1160 l 2,3,4
 718 1160 718 1160 784 1094 c 128,-1,5
 850 1028 850 1028 850 935 c 128,-1,6
 850 842 850 842 784 776 c 128,-1,7
 718 710 718 710 625 710 c 2,0,-1
804 617 m 1,8,9
 889 665 889 665 939.5 750 c 128,-1,10
 990 835 990 835 990 935 c 0,11,12
 990 1086 990 1086 883 1193 c 128,-1,13
 776 1300 776 1300 625 1300 c 2,14,-1
 160 1300 l 2,15,16
 131 1300 131 1300 110.5 1279.5 c 128,-1,17
 90 1259 90 1259 90 1230 c 128,-1,18
 90 1201 90 1201 110.5 1180.5 c 128,-1,19
 131 1160 131 1160 160 1160 c 2,20,-1
 250 1160 l 1,21,-1
 250 140 l 1,22,-1
 160 140 l 2,23,24
 131 140 131 140 110.5 119.5 c 128,-1,25
 90 99 90 99 90 70 c 128,-1,26
 90 41 90 41 110.5 20.5 c 128,-1,27
 131 0 131 0 160 0 c 2,28,-1
 480 0 l 2,29,30
 510 0 510 0 530 20 c 128,-1,31
 550 40 550 40 550 70 c 128,-1,32
 550 100 550 100 530 120 c 128,-1,33
 510 140 510 140 480 140 c 2,34,-1
 390 140 l 1,35,-1
 390 570 l 1,36,-1
 590 570 l 2,37,38
 646 570 646 570 681 537.5 c 128,-1,39
 716 505 716 505 732 453 c 128,-1,40
 748 401 748 401 758 338 c 128,-1,41
 768 275 768 275 779.5 212 c 128,-1,42
 791 149 791 149 810.5 97 c 128,-1,43
 830 45 830 45 872.5 12.5 c 128,-1,44
 915 -20 915 -20 980 -20 c 0,45,46
 1032 -20 1032 -20 1078 8.5 c 128,-1,47
 1124 37 1124 37 1151 85 c 0,48,49
 1160 101 1160 101 1160 120 c 0,50,51
 1160 149 1160 149 1139.5 169.5 c 128,-1,52
 1119 190 1119 190 1090 190 c 0,53,54
 1049 190 1049 190 1029 155 c 0,55,56
 1010 120 1010 120 980 120 c 0,57,58
 951 120 951 120 935 155 c 128,-1,59
 919 190 919 190 911 248 c 128,-1,60
 903 306 903 306 894.5 369.5 c 128,-1,61
 886 433 886 433 863.5 502.5 c 128,-1,62
 841 572 841 572 804 617 c 1,8,9
EndSplineSet
Validated: 9
Layer: 2
SplineSet
804 617 m 5
 915 680 990 798.960298314 990 935 c 4
 990 1136 826 1300 625 1300 c 5
 160 1300 l 5
 121 1300 90 1269 90 1230 c 7
 90 1191 121 1160 160 1160 c 5
 250 1160 l 5
 250 140 l 5
 160 140 l 5
 121 140 90 109 90 70 c 7
 90 31 121 0 160 0 c 5
 480 0 l 5
 520.334960938 0 550 29.6669921875 550 70 c 132
 550 110.334960938 520 140 480 140 c 6
 390 140 l 5
 390 570 l 5
 590 570 l 5
 865 570 659.998437504 -20 980 -20 c 7
 1050.0833492 -20 1115.25683594 21.810546875 1151 85 c 5
 1156.86523438 95.2626953125 1160 107.200672313 1160 120 c 4
 1160 159 1129 190 1090 190 c 4
 1063.79932769 190 1041.00585938 176.008789062 1029 155 c 5
 1017.98535156 134.237304688 998.98362021 120 980 120 c 7
 875.909100432 120 938 451 804 617 c 5
625 710 m 5
 390 710 l 5
 390 1160 l 5
 625 1160 l 5
 749 1160 850 1059 850 935 c 4
 850 811 749 710 625 710 c 5
EndSplineSet
EndChar

StartChar: S
Encoding: 53 83 90
Width: 1200
GlyphClass: 2
Flags: W
AnchorPoint: "Anchor-1" 593 0 basechar 0
AnchorPoint: "Anchor-0" 611 1353 basechar 0
LayerCount: 6
Fore
SplineSet
875 1212 m 1,0,1
 875 1212 875 1212 875 1230 c 2,2,3
 875 1259 875 1259 895.5 1279.5 c 128,-1,4
 916 1300 916 1300 945 1300 c 128,-1,5
 974 1300 974 1300 994.5 1279.5 c 128,-1,6
 1015 1259 1015 1259 1015 1230 c 2,7,8
 1015 1230 1015 1230 1015 910 c 2,9,10
 1015 881 1015 881 994.5 860.5 c 128,-1,11
 974 840 974 840 945 840 c 128,-1,12
 916 840 916 840 895.5 860.5 c 128,-1,13
 875 881 875 881 875 910 c 2,14,15
 875 910 875 910 875 940 c 2,16,17
 875 983 875 983 845 1031.5 c 128,-1,18
 815 1080 815 1080 774 1116 c 0,19,20
 698 1180 698 1180 590 1180 c 128,-1,21
 482 1180 482 1180 406 1115.5 c 128,-1,22
 330 1051 330 1051 330 960 c 0,23,24
 330 872 330 872 411 804 c 0,25,26
 443 777 443 777 490.5 767.5 c 128,-1,27
 538 758 538 758 590 758 c 128,-1,28
 642 758 642 758 696.5 755 c 128,-1,29
 751 752 751 752 811 730 c 128,-1,30
 871 708 871 708 921 663 c 0,31,32
 1060 537 1060 537 1060 380 c 0,33,34
 1060 214 1060 214 931 97 c 128,-1,35
 802 -20 802 -20 620 -20 c 0,36,37
 435 -20 435 -20 304 102 c 1,38,39
 304 102 304 102 304 70 c 2,40,41
 304 41 304 41 283.5 20.5 c 128,-1,42
 263 0 263 0 234 0 c 128,-1,43
 205 0 205 0 184.5 20.5 c 128,-1,44
 164 41 164 41 164 70 c 2,45,46
 164 70 164 70 164 400 c 2,47,48
 164 429 164 429 184.5 449.5 c 128,-1,49
 205 470 205 470 234 470 c 128,-1,50
 263 470 263 470 283.5 449.5 c 128,-1,51
 304 429 304 429 304 400 c 2,52,53
 304 400 304 400 304 380 c 2,54,55
 304 286 304 286 408 196 c 0,56,57
 496 120 496 120 620.5 120 c 128,-1,58
 745 120 745 120 832.5 196 c 128,-1,59
 920 272 920 272 920 380 c 0,60,61
 920 479 920 479 822 564 c 0,62,63
 786 595 786 595 735.5 607.5 c 128,-1,64
 685 620 685 620 633 620.5 c 128,-1,65
 581 621 581 621 527 623 c 128,-1,66
 473 625 473 625 415.5 644.5 c 128,-1,67
 358 664 358 664 312 706 c 0,68,69
 190 816 190 816 190 960 c 0,70,71
 190 1109 190 1109 307 1214.5 c 128,-1,72
 424 1320 424 1320 590 1320 c 0,73,74
 755 1320 755 1320 875 1212 c 1,0,1
600 36 m 1049,75,-1
601 1316 m 1049,76,-1
EndSplineSet
Validated: 1
Layer: 2
SplineSet
875 1212 m 5
 797 1282.33300781 700.666992188 1320 590 1320 c 128
 479.333007812 1320 385 1284.83300781 307 1214.5 c 128
 229 1144.16699219 190 1059.33300781 190 960 c 128
 190 860.666992188 234.000297019 775.833337208 312 705.5 c 128
 478.534179688 555.333984375 691.430664062 677.842773438 822.5 564 c 128
 880.833007812 513.333007812 920 452 920 380 c 128
 920 308 890.833007812 246.666992188 832.5 196 c 128
 774.166992188 145.333007812 703.333007812 120 620 120 c 128
 536.666992188 120 465.833007812 145.333007812 407.5 196 c 128
 349.166992188 246.666992188 304 308 304 380 c 1
 304 400 l 1
 304 439 273 470 234 470 c 0
 195 470 164 439 164 400 c 1
 164 70 l 1
 164 31 195 0 234 0 c 0
 273 0 304 31 304 70 c 1
 304 102 l 1
 340.09375 68.4521484375 438.68359375 -20 620 -20 c 128
 741.333007812 -20 845 19 931 97 c 128
 1017 175 1060 269.333007812 1060 380 c 128
 1060 490.666992188 1007 585 921 663 c 128
 741.915039062 825.42578125 527.245369663 705.845024054 411 804.5 c 128
 360.333007812 847.5 330 899.333007812 330 960 c 128
 330 1020.66699219 355.333007812 1072.5 406 1115.5 c 128
 456.666992188 1158.5 518 1180 590 1180 c 128
 662 1180 723.333007812 1158.5 774 1115.5 c 128
 824.666992188 1072.5 875 1000.66699219 875 940 c 5
 875 910 l 5
 875 871 906 840 945 840 c 4
 984 840 1015 871 1015 910 c 5
 1015 1230 l 5
 1015 1269 984 1300 945 1300 c 4
 906 1300 875 1269 875 1230 c 5
 875 1212 l 5
620 380 m 1025
590 960 m 1025
EndSplineSet
EndChar

StartChar: Scedilla
Encoding: 242 350 93
Width: 1200
GlyphClass: 2
Flags: W
AnchorPoint: "Anchor-1" 593 0 basechar 0
AnchorPoint: "Anchor-0" 611 1377 basechar 0
LayerCount: 6
Fore
SplineSet
600 1268 m 1048
EndSplineSet
Refer: 90 83 S 1 0 0 1 0 0 3
Refer: 1695 -1 N 1 0 0 1 -7 0 2
Validated: 5
Substitution2: "'locl' Localized Forms in Latin lookup 20 subtable" Scommaaccent
Substitution2: "'locl' Localized Forms in Latin lookup 19 subtable" Scommaaccent
Substitution2: "'aalt' Access All Alternates lookup 0 subtable" Scommaaccent
EndChar

StartChar: uni1E9E
Encoding: 245 7838 96
Width: 1200
GlyphClass: 1
Flags: W
LayerCount: 6
Fore
SplineSet
1029 1152 m 6,0,1
 1040 1169 1040 1169 1040 1190 c 4,2,3
 1040 1214 1040 1214 1026 1232.5 c 132,-1,4
 1012 1251 1012 1251 989 1257 c 4,5,6
 815 1300 815 1300 610 1300 c 4,7,8
 469 1300 469 1300 369.5 1212 c 132,-1,9
 270 1124 270 1124 270 1000 c 6,10,-1
 270 140 l 5,11,-1
 180 140 l 6,12,13
 150 140 150 140 130 120 c 132,-1,14
 110 100 110 100 110 70 c 132,-1,15
 110 40 110 40 130 20 c 132,-1,16
 150 0 150 0 180 0 c 6,17,-1
 340 0 l 6,18,19
 370 0 370 0 390 20 c 132,-1,20
 410 40 410 40 410 70 c 6,21,-1
 410 1000 l 6,22,23
 410 1067 410 1067 464 1113 c 132,-1,24
 518 1159 518 1159 600 1159 c 4,25,26
 737 1159 737 1159 859 1140 c 5,27,-1
 646 803 l 6,28,29
 620 763 620 763 620 690 c 4,30,31
 620 636 620 636 640 595.5 c 132,-1,32
 660 555 660 555 691.5 530 c 132,-1,33
 723 505 723 505 761.5 485 c 132,-1,34
 800 465 800 465 838.5 447 c 132,-1,35
 877 429 877 429 908.5 408.5 c 132,-1,36
 940 388 940 388 960 355.5 c 132,-1,37
 980 323 980 323 980 280 c 4,38,39
 980 215 980 215 933 167.5 c 132,-1,40
 886 120 886 120 820 120 c 4,41,42
 762 120 762 120 714.5 148 c 132,-1,43
 667 176 667 176 642 222 c 4,44,45
 622 260 622 260 580 260 c 4,46,47
 551 260 551 260 530.5 239.5 c 132,-1,48
 510 219 510 219 510 190 c 4,49,50
 510 174 510 174 518 158 c 4,51,52
 560 77 560 77 640.5 28.5 c 132,-1,53
 721 -20 721 -20 820 -20 c 4,54,55
 944 -20 944 -20 1032 68 c 132,-1,56
 1120 156 1120 156 1120 280 c 4,57,58
 1120 340 1120 340 1100 387.5 c 132,-1,59
 1080 435 1080 435 1048.5 465.5 c 132,-1,60
 1017 496 1017 496 978.5 520 c 132,-1,61
 940 544 940 544 901.5 562 c 132,-1,62
 863 580 863 580 831.5 597.5 c 132,-1,63
 800 615 800 615 780 638.5 c 132,-1,64
 760 662 760 662 760 690 c 4,65,66
 760 726 760 726 775 749 c 6,67,-1
 1029 1152 l 6,0,1
EndSplineSet
Validated: 9
Layer: 2
SplineSet
1029 1152 m 5
 1036 1163 1040 1176 1040 1190 c 4
 1040 1222 1019 1249 989 1257 c 5
 880 1284 750 1300 610 1300 c 4
 422 1300 270 1166 270 1000 c 5
 270 140 l 5
 180 140 l 5
 140 140 110 110 110 70 c 132
 110 30 140 0 180 0 c 5
 340 0 l 5
 380 0 410 30 410 70 c 5
 410 1000 l 5
 410 1088 490 1159 600 1159 c 4
 694 1159 782 1152 859 1140 c 4
 646 803 l 4
 626 772 620 730 620 690 c 7
 620 425 980 493 980 280 c 31
 980 193 908 120 820 120 c 4
 741 120 674 162 642 222 c 5
 630 245 607 260 580 260 c 7
 541 260 510 229 510 190 c 4
 510 178 513 168 518 158 c 5
 573 52 686 -20 820 -20 c 4
 986 -20 1120 114 1120 280 c 7
 1120 574 760 548 760 690 c 7
 760 712 765 734 775 749 c 4
 1029 1152 l 5
EndSplineSet
EndChar

StartChar: T
Encoding: 54 84 97
Width: 1200
GlyphClass: 2
Flags: W
AnchorPoint: "Anchor-2" 600 689 basechar 0
AnchorPoint: "Anchor-1" 598 0 basechar 0
AnchorPoint: "Anchor-0" 598 1377 basechar 0
LayerCount: 6
Fore
SplineSet
670 140 m 1,0,-1
 850 140 l 2,1,2
 880 140 880 140 900 120 c 0,3,4
 920 100 920 100 920 70 c 128,-1,5
 920 40 920 40 900 20 c 128,-1,6
 880 0 880 0 850 0 c 2,7,8
 850 0 850 0 350 0 c 2,9,10
 320 0 320 0 300 20 c 128,-1,11
 280 40 280 40 280 70 c 128,-1,12
 280 100 280 100 300 120 c 0,13,14
 320 140 320 140 350 140 c 2,15,16
 350 140 350 140 530 140 c 1,17,-1
 530 1160 l 1,18,-1
 230 1160 l 1,19,-1
 230 1030 l 2,20,21
 230 1001 230 1001 209.5 980.5 c 128,-1,22
 189 960 189 960 160 960 c 128,-1,23
 131 960 131 960 110.5 980.5 c 128,-1,24
 90 1001 90 1001 90 1030 c 2,25,26
 90 1030 90 1030 90 1230 c 2,27,28
 90 1260 90 1260 110 1280 c 128,-1,29
 130 1300 130 1300 160 1300 c 1,30,31
 160 1300 160 1300 1040 1300 c 1,32,33
 1070 1300 1070 1300 1090 1280 c 128,-1,34
 1110 1260 1110 1260 1110 1230 c 2,35,36
 1110 1230 1110 1230 1110 1030 c 2,37,38
 1110 1001 1110 1001 1089.5 980.5 c 128,-1,39
 1069 960 1069 960 1040 960 c 128,-1,40
 1011 960 1011 960 990.5 980.5 c 128,-1,41
 970 1001 970 1001 970 1030 c 2,42,43
 970 1030 970 1030 970 1160 c 1,44,-1
 670 1160 l 1,45,-1
 670 140 l 1,0,-1
EndSplineSet
Validated: 1
Layer: 2
SplineSet
160 1300 m 5
 119.666015625 1300 90 1270.33300781 90 1230 c 5
 90 1030 l 5
 90 991 121 960 160 960 c 4
 199 960 230 991 230 1030 c 5
 230 1160 l 5
 530 1160 l 1
 530 140 l 1
 350 140 l 1
 309.669921875 140 280 110.333007812 280 70 c 128
 280 29.6650390625 309.673828125 0 350 0 c 2
 850 0 l 2
 890.333984375 -4.93948848617e-15 920 29.6669921875 920 70 c 128
 920 110.334960938 890.33203125 140 850 140 c 1
 670 140 l 1
 670 1160 l 1
 970 1160 l 1
 970 1030 l 1
 970 991 1001 960 1040 960 c 0
 1079 960 1110 991 1110 1030 c 1
 1110 1230 l 1
 1110 1270.33300781 1080.33398438 1300 1040 1300 c 1
 160 1300 l 5
EndSplineSet
Substitution2: "Single Substitution lookup 342 subtable" T.spacer
Substitution2: "'aalt' Access All Alternates lookup 0 subtable" T.spacer
EndChar

StartChar: Tbar
Encoding: 246 358 98
Width: 1200
GlyphClass: 2
Flags: W
AnchorPoint: "Anchor-2" 600 689 basechar 0
AnchorPoint: "Anchor-1" 598 0 basechar 0
AnchorPoint: "Anchor-0" 598 1377 basechar 0
LayerCount: 6
Fore
SplineSet
670 660 m 1,0,-1
 875 660 l 2,1,2
 905 660 905 660 925 680 c 128,-1,3
 945 700 945 700 945 730 c 128,-1,4
 945 760 945 760 925 780 c 128,-1,5
 905 800 905 800 875 800 c 2,6,-1
 670 800 l 1,7,-1
 670 1160 l 1,8,-1
 940 1160 l 1,9,-1
 940 1030 l 2,10,11
 940 1001 940 1001 960.5 980.5 c 128,-1,12
 981 960 981 960 1010 960 c 128,-1,13
 1039 960 1039 960 1059.5 980.5 c 128,-1,14
 1080 1001 1080 1001 1080 1030 c 2,15,-1
 1080 1230 l 2,16,17
 1080 1260 1080 1260 1060 1280 c 128,-1,18
 1040 1300 1040 1300 1010 1300 c 2,19,-1
 190 1300 l 2,20,21
 160 1300 160 1300 140 1280 c 128,-1,22
 120 1260 120 1260 120 1230 c 2,23,-1
 120 1030 l 2,24,25
 120 1001 120 1001 140.5 980.5 c 128,-1,26
 161 960 161 960 190 960 c 128,-1,27
 219 960 219 960 239.5 980.5 c 128,-1,28
 260 1001 260 1001 260 1030 c 2,29,-1
 260 1160 l 1,30,-1
 530 1160 l 1,31,-1
 530 800 l 1,32,-1
 325 800 l 2,33,34
 295 800 295 800 275 780 c 128,-1,35
 255 760 255 760 255 730 c 128,-1,36
 255 700 255 700 275 680 c 128,-1,37
 295 660 295 660 325 660 c 2,38,-1
 530 660 l 1,39,-1
 530 140 l 1,40,-1
 350 140 l 2,41,42
 320 140 320 140 300 120 c 128,-1,43
 280 100 280 100 280 70 c 128,-1,44
 280 40 280 40 300 20 c 128,-1,45
 320 0 320 0 350 0 c 2,46,-1
 850 0 l 2,47,48
 880 0 880 0 900 20 c 128,-1,49
 920 40 920 40 920 70 c 128,-1,50
 920 100 920 100 900 120 c 128,-1,51
 880 140 880 140 850 140 c 2,52,-1
 670 140 l 1,53,-1
 670 660 l 1,0,-1
EndSplineSet
Validated: 9
Layer: 2
SplineSet
670 660 m 5
 875 660 l 6
 895 660 911.666992188 666.666992188 925 680 c 132
 938.333007812 693.333007812 945 710 945 730 c 132
 945 750 938.333007812 766.666992188 925 780 c 132
 911.666992188 793.333007812 895 800 875 800 c 6
 670 800 l 5
 670 1160 l 5
 940 1160 l 5
 940 1030 l 5
 940 991 971 960 1010 960 c 4
 1049 960 1080 991 1080 1030 c 5
 1080 1230 l 5
 1080 1270.33300781 1050.33398438 1300 1010 1300 c 5
 190 1300 l 5
 149.666015625 1300 120 1270.33300781 120 1230 c 5
 120 1030 l 5
 120 991 151 960 190 960 c 4
 229 960 260 991 260 1030 c 5
 260 1160 l 5
 530 1160 l 5
 530 800 l 5
 325 800 l 6
 305 800 288.333007812 793.333007812 275 780 c 132
 261.666992188 766.666992188 255 750 255 730 c 132
 255 710 261.666992188 693.333007812 275 680 c 132
 288.333007812 666.666992188 305 660 325 660 c 6
 530 660 l 5
 530 140 l 5
 350 140 l 5
 309.669921875 140 280 110.333007812 280 70 c 132
 280 29.6650390625 309.673828125 0 350 0 c 6
 850 0 l 6
 890.333984375 -4.93948848617e-15 920 29.6669921875 920 70 c 132
 920 110.334960938 890.33203125 140 850 140 c 5
 670 140 l 5
 670 660 l 5
EndSplineSet
EndChar

StartChar: U
Encoding: 55 85 102
Width: 1200
GlyphClass: 2
Flags: W
AnchorPoint: "Anchor-1" 600 0 basechar 0
AnchorPoint: "Anchor-0" 600 1377 basechar 0
LayerCount: 6
Fore
SplineSet
870 400 m 6,0,-1
 870 1160 l 5,1,-1
 780 1160 l 6,2,3
 750 1160 750 1160 730 1180 c 132,-1,4
 710 1200 710 1200 710 1230 c 132,-1,5
 710 1260 710 1260 730 1280 c 132,-1,6
 750 1300 750 1300 780 1300 c 6,7,-1
 1100 1300 l 6,8,9
 1130 1300 1130 1300 1150 1280 c 132,-1,10
 1170 1260 1170 1260 1170 1230 c 132,-1,11
 1170 1200 1170 1200 1150 1180 c 132,-1,12
 1130 1160 1130 1160 1100 1160 c 6,13,-1
 1010 1160 l 5,14,-1
 1010 400 l 6,15,16
 1010 225 1010 225 891.5 102.5 c 132,-1,17
 773 -20 773 -20 600 -20 c 132,-1,18
 427 -20 427 -20 308.5 102.5 c 132,-1,19
 190 225 190 225 190 400 c 6,20,-1
 190 1160 l 5,21,-1
 100 1160 l 6,22,23
 70 1160 70 1160 50 1180 c 132,-1,24
 30 1200 30 1200 30 1230 c 132,-1,25
 30 1260 30 1260 50 1280 c 132,-1,26
 70 1300 70 1300 100 1300 c 6,27,-1
 420 1300 l 6,28,29
 450 1300 450 1300 470 1280 c 132,-1,30
 490 1260 490 1260 490 1230 c 132,-1,31
 490 1200 490 1200 470 1180 c 132,-1,32
 450 1160 450 1160 420 1160 c 6,33,-1
 330 1160 l 5,34,-1
 330 400 l 6,35,36
 330 283 330 283 407.5 201.5 c 132,-1,37
 485 120 485 120 600 120 c 132,-1,38
 715 120 715 120 792.5 201.5 c 132,-1,39
 870 283 870 283 870 400 c 6,0,-1
EndSplineSet
Validated: 1
Layer: 2
SplineSet
870 400 m 5
 870 1160 l 5
 780 1160 l 5
 739.672851562 1160 710 1189.66503906 710 1230 c 132
 710 1270.33300781 739.670898438 1300 780 1300 c 6
 1100 1300 l 6
 1140.33007812 1300 1170 1270.33496094 1170 1230 c 132
 1170 1189.66699219 1140.33398438 1160 1100 1160 c 5
 1010 1160 l 5
 1010 400 l 5
 1010 168 832 -20 600 -20 c 4
 368 -20 190 168 190 400 c 5
 190 1160 l 5
 100 1160 l 5
 59.671875 1160 30 1189.66503906 30 1230 c 132
 30 1270.33300781 59.669921875 1300 100 1300 c 6
 420 1300 l 6
 460.330078125 1300 490 1270.33496094 490 1230 c 132
 490 1189.66699219 460.333984375 1160 420 1160 c 5
 330 1160 l 5
 330 400 l 5
 330 245 445 120 600 120 c 4
 755 120 870 245 870 400 c 5
EndSplineSet
EndChar

StartChar: V
Encoding: 56 86 113
Width: 1200
GlyphClass: 2
Flags: W
AnchorPoint: "Anchor-1" 600 0 basechar 0
AnchorPoint: "Anchor-0" 600 1377 basechar 0
LayerCount: 6
Fore
SplineSet
600 -20 m 5,0,-1
 565 -20 l 6,1,2
 540 -20 540 -20 521.5 -5.5 c 132,-1,3
 503 9 503 9 497 33 c 6,4,-1
 195 1160 l 5,5,-1
 100 1160 l 6,6,7
 71 1160 71 1160 50.5 1180.5 c 132,-1,8
 30 1201 30 1201 30 1230 c 132,-1,9
 30 1259 30 1259 50.5 1279.5 c 132,-1,10
 71 1300 71 1300 100 1300 c 6,11,-1
 420 1300 l 6,12,13
 449 1300 449 1300 469.5 1279.5 c 132,-1,14
 490 1259 490 1259 490 1230 c 132,-1,15
 490 1201 490 1201 469.5 1180.5 c 132,-1,16
 449 1160 449 1160 420 1160 c 6,17,-1
 340 1160 l 5,18,-1
 600 190 l 5,19,-1
 860 1160 l 5,20,-1
 780 1160 l 6,21,22
 751 1160 751 1160 730.5 1180.5 c 132,-1,23
 710 1201 710 1201 710 1230 c 132,-1,24
 710 1259 710 1259 730.5 1279.5 c 132,-1,25
 751 1300 751 1300 780 1300 c 6,26,-1
 1100 1300 l 6,27,28
 1129 1300 1129 1300 1149.5 1279.5 c 132,-1,29
 1170 1259 1170 1259 1170 1230 c 132,-1,30
 1170 1201 1170 1201 1149.5 1180.5 c 132,-1,31
 1129 1160 1129 1160 1100 1160 c 6,32,-1
 1005 1160 l 5,33,-1
 703 33 l 6,34,35
 697 9 697 9 678.5 -5.5 c 132,-1,36
 660 -20 660 -20 635 -20 c 6,37,-1
 600 -20 l 5,0,-1
EndSplineSet
Validated: 1
Layer: 2
SplineSet
600 -20 m 4
 565 -20 l 7
 531 -20 505 2 497 33 c 5
 195 1160 l 5
 100 1160 l 1
 61 1160 30 1191 30 1230 c 3
 30 1269 61 1300 100 1300 c 1
 420 1300 l 1
 459 1300 490 1269 490 1230 c 3
 490 1191 459 1160 420 1160 c 1
 340 1160 l 5
 600 190 l 5
 860 1160 l 5
 780 1160 l 1
 741 1160 710 1191 710 1230 c 3
 710 1269 741 1300 780 1300 c 1
 1100 1300 l 1
 1139 1300 1170 1269 1170 1230 c 3
 1170 1191 1139 1160 1100 1160 c 1
 1005 1160 l 5
 703 33 l 5
 695 2 669 -20 635 -20 c 20
 600 -20 l 4
EndSplineSet
EndChar

StartChar: W
Encoding: 57 87 114
Width: 1200
GlyphClass: 2
Flags: W
AnchorPoint: "Anchor-1" 600 0 basechar 0
AnchorPoint: "Anchor-0" 600 1377 basechar 0
LayerCount: 6
Fore
SplineSet
620 862 m 2,0,1
 645 862 645 862 664 847.5 c 128,-1,2
 683 833 683 833 689 810 c 2,3,-1
 825 287 l 1,4,-1
 950 1160 l 1,5,-1
 850 1160 l 2,6,7
 820 1160 820 1160 800 1180 c 128,-1,8
 780 1200 780 1200 780 1230 c 128,-1,9
 780 1260 780 1260 800 1280 c 128,-1,10
 820 1300 820 1300 850 1300 c 2,11,-1
 1170 1300 l 2,12,13
 1200 1300 1200 1300 1220 1280 c 128,-1,14
 1240 1260 1240 1260 1240 1230 c 128,-1,15
 1240 1200 1240 1200 1220 1180 c 128,-1,16
 1200 1160 1200 1160 1170 1160 c 2,17,-1
 1090 1160 l 1,18,-1
 930 43 l 2,19,20
 927 16 927 16 907 -2 c 128,-1,21
 887 -20 887 -20 860 -20 c 2,22,-1
 820 -20 l 2,23,24
 796 -20 796 -20 778 -6.5 c 128,-1,25
 760 7 760 7 753 29 c 2,26,-1
 600 617 l 1,27,-1
 447 29 l 2,28,29
 440 7 440 7 422 -6.5 c 128,-1,30
 404 -20 404 -20 380 -20 c 2,31,-1
 340 -20 l 2,32,33
 313 -20 313 -20 293 -2 c 128,-1,34
 273 16 273 16 270 43 c 2,35,-1
 110 1160 l 1,36,-1
 30 1160 l 2,37,38
 0 1160 0 1160 -20 1180 c 128,-1,39
 -40 1200 -40 1200 -40 1230 c 128,-1,40
 -40 1260 -40 1260 -20 1280 c 128,-1,41
 0 1300 0 1300 30 1300 c 2,42,-1
 350 1300 l 2,43,44
 380 1300 380 1300 400 1280 c 128,-1,45
 420 1260 420 1260 420 1230 c 128,-1,46
 420 1200 420 1200 400 1180 c 128,-1,47
 380 1160 380 1160 350 1160 c 2,48,-1
 250 1160 l 1,49,-1
 375 287 l 1,50,-1
 511 810 l 2,51,52
 517 833 517 833 536 847.5 c 128,-1,53
 555 862 555 862 580 862 c 2,54,-1
 620 862 l 2,0,1
EndSplineSet
Validated: 1
Layer: 2
SplineSet
620.08203125 862 m 1
 654.08203125 862 681.08203125 840 689.08203125 810 c 1
 825.08203125 287 l 1
 950.08203125 1160 l 1
 850.08203125 1160 l 1
 810.08203125 1160 780.08203125 1190 780.08203125 1230 c 129
 780.08203125 1270 810.08203125 1300 850.08203125 1300 c 1
 1170.08203125 1300 l 1
 1210.08203125 1300 1240.08203125 1270 1240.08203125 1230 c 129
 1240.08203125 1190 1210.08203125 1160 1170.08203125 1160 c 1
 1090.08203125 1160 l 1
 930.08203125 43 l 1
 926.08203125 7 896.08203125 -20 860.08203125 -20 c 1
 820.08203125 -20 l 1
 788.08203125 -20 762.08203125 0 753.08203125 29 c 1
 600.041015625 617 l 1
 600.04109589 617 447 29 447 29 c 1
 438 0 412 -20 380 -20 c 1
 340 -20 l 1
 304 -20 274 7 270 43 c 1
 110 1160 l 1
 30 1160 l 1
 -10 1160 -40 1190 -40 1230 c 133
 -40 1270 -10 1300 30 1300 c 1
 350 1300 l 1
 390 1300 420 1270 420 1230 c 129
 420 1190 390 1160 350 1160 c 1
 250 1160 l 1
 375 287 l 1
 511 810 l 1
 519 840 546 862 580 862 c 1
 620.08203125 862 l 1
EndSplineSet
EndChar

StartChar: X
Encoding: 58 88 119
Width: 1200
GlyphClass: 2
Flags: W
AnchorPoint: "Anchor-1" 600 0 basechar 0
AnchorPoint: "Anchor-0" 600 1377 basechar 0
LayerCount: 6
Fore
SplineSet
600 804 m 5,0,-1
 827 1160 l 5,1,-1
 750 1160 l 6,2,3
 721 1160 721 1160 700.5 1180.5 c 132,-1,4
 680 1201 680 1201 680 1230 c 132,-1,5
 680 1259 680 1259 700.5 1279.5 c 132,-1,6
 721 1300 721 1300 750 1300 c 6,7,8
 750 1300 750 1300 1070 1300 c 6,9,10
 1099 1300 1099 1300 1119.5 1279.5 c 132,-1,11
 1140 1259 1140 1259 1140 1230 c 132,-1,12
 1140 1201 1140 1201 1119.5 1180.5 c 132,-1,13
 1099 1160 1099 1160 1070 1160 c 6,14,15
 1070 1160 1070 1160 993 1160 c 5,16,-1
 683 674 l 5,17,-1
 1023 140 l 5,18,-1
 1100 140 l 6,19,20
 1129 140 1129 140 1149.5 119.5 c 132,-1,21
 1170 99 1170 99 1170 70 c 132,-1,22
 1170 41 1170 41 1149.5 20.5 c 132,-1,23
 1129 0 1129 0 1100 0 c 6,24,25
 1100 0 1100 0 780 0 c 6,26,27
 751 0 751 0 730.5 20.5 c 132,-1,28
 710 41 710 41 710 70 c 132,-1,29
 710 99 710 99 730.5 119.5 c 132,-1,30
 751 140 751 140 780 140 c 6,31,32
 780 140 780 140 857 140 c 5,33,-1
 600 543 l 5,34,-1
 343 140 l 5,35,-1
 420 140 l 6,36,37
 449 140 449 140 469.5 119.5 c 132,-1,38
 490 99 490 99 490 70 c 132,-1,39
 490 41 490 41 469.5 20.5 c 132,-1,40
 449 0 449 0 420 0 c 6,41,42
 420 0 420 0 100 0 c 6,43,44
 71 0 71 0 50.5 20.5 c 132,-1,45
 30 41 30 41 30 70 c 132,-1,46
 30 99 30 99 50.5 119.5 c 132,-1,47
 71 140 71 140 100 140 c 6,48,49
 100 140 100 140 177 140 c 5,50,-1
 517 674 l 5,51,-1
 207 1160 l 5,52,-1
 130 1160 l 6,53,54
 101 1160 101 1160 80.5 1180.5 c 132,-1,55
 60 1201 60 1201 60 1230 c 132,-1,56
 60 1259 60 1259 80.5 1279.5 c 132,-1,57
 101 1300 101 1300 130 1300 c 6,58,59
 130 1300 130 1300 450 1300 c 6,60,61
 479 1300 479 1300 499.5 1279.5 c 132,-1,62
 520 1259 520 1259 520 1230 c 132,-1,63
 520 1201 520 1201 499.5 1180.5 c 132,-1,64
 479 1160 479 1160 450 1160 c 6,65,66
 450 1160 450 1160 373 1160 c 5,67,-1
 600 804 l 5,0,-1
450 1230 m 1049,68,-1
EndSplineSet
Validated: 1
Layer: 2
SplineSet
750 1230 m 1049
600 804 m 5
 373 1160 l 5
 450 1160 l 5
 489 1160 520 1191 520 1230 c 7
 520 1269 489 1300 450 1300 c 5
 130 1300 l 5
 91 1300 60 1269 60 1230 c 7
 60 1191 91 1160 130 1160 c 5
 207 1160 l 5
 517 674 l 5
 177 140 l 5
 100 140 l 5
 61 140 30 109 30 70 c 7
 30 31 61 0 100 0 c 5
 420 0 l 5
 459 0 490 31 490 70 c 7
 490 109 459 140 420 140 c 5
 343 140 l 5
 600 543 l 5
 857 140 l 5
 780 140 l 5
 741 140 710 109 710 70 c 7
 710 31 741 0 780 0 c 5
 1100 0 l 5
 1139 0 1170 31 1170 70 c 7
 1170 109 1139 140 1100 140 c 5
 1023 140 l 5
 683 674 l 5
 993 1160 l 5
 1070 1160 l 5
 1109 1160 1140 1191 1140 1230 c 7
 1140 1269 1109 1300 1070 1300 c 5
 750 1300 l 5
 711 1300 680 1269 680 1230 c 7
 680 1191 711 1160 750 1160 c 5
 827 1160 l 5
 600 804 l 5
450 1230 m 1053
EndSplineSet
Layer: 3
SplineSet
0 0 m 5
 0 1600 l 5
 600 1600 l 5
 600 0 l 5
 0 0 l 5
EndSplineSet
EndChar

StartChar: Y
Encoding: 59 89 120
Width: 1200
GlyphClass: 2
Flags: W
AnchorPoint: "Anchor-1" 600 0 basechar 0
AnchorPoint: "Anchor-0" 607 1377 basechar 0
LayerCount: 6
Fore
SplineSet
350 140 m 2,0,1
 350 140 350 140 530 140 c 1,2,-1
 530 588 l 1,3,-1
 177 1160 l 1,4,-1
 100 1160 l 2,5,6
 71 1160 71 1160 50.5 1180.5 c 128,-1,7
 30 1201 30 1201 30 1230 c 128,-1,8
 30 1259 30 1259 50.5 1279.5 c 128,-1,9
 71 1300 71 1300 100 1300 c 2,10,11
 100 1300 100 1300 420 1300 c 2,12,13
 449 1300 449 1300 469.5 1279.5 c 128,-1,14
 490 1259 490 1259 490 1230 c 128,-1,15
 490 1201 490 1201 469.5 1180.5 c 128,-1,16
 449 1160 449 1160 420 1160 c 2,17,18
 420 1160 420 1160 343 1160 c 1,19,-1
 600 740 l 1,20,-1
 857 1160 l 1,21,-1
 780 1160 l 2,22,23
 751 1160 751 1160 730.5 1180.5 c 128,-1,24
 710 1201 710 1201 710 1230 c 128,-1,25
 710 1259 710 1259 730.5 1279.5 c 128,-1,26
 751 1300 751 1300 780 1300 c 2,27,28
 780 1300 780 1300 1100 1300 c 2,29,30
 1129 1300 1129 1300 1149.5 1279.5 c 128,-1,31
 1170 1259 1170 1259 1170 1230 c 128,-1,32
 1170 1201 1170 1201 1149.5 1180.5 c 128,-1,33
 1129 1160 1129 1160 1100 1160 c 2,34,35
 1100 1160 1100 1160 1023 1160 c 1,36,-1
 670 588 l 1,37,-1
 670 140 l 1,38,-1
 850 140 l 2,39,40
 880 140 880 140 900 120 c 128,-1,41
 920 100 920 100 920 70 c 128,-1,42
 920 40 920 40 900 20 c 128,-1,43
 880 0 880 0 850 0 c 2,44,45
 850 0 850 0 350 0 c 2,46,47
 320 0 320 0 300 20 c 128,-1,48
 280 40 280 40 280 70 c 128,-1,49
 280 100 280 100 300 120 c 128,-1,50
 320 140 320 140 350 140 c 2,0,1
EndSplineSet
Validated: 1
Layer: 2
SplineSet
350 140 m 5
 309.669921875 140 280 110.333007812 280 70 c 132
 280 29.6650390625 309.673828125 0 350 0 c 6
 850 0 l 6
 890.333810765 -4.93946722506e-15 920 29.6669921875 920 70 c 132
 920 110.334960938 890.33203125 140 850 140 c 5
 670 140 l 5
 670 588 l 5
 1023 1160 l 5
 1100 1160 l 5
 1139 1160 1170 1191 1170 1230 c 7
 1170 1269 1139 1300 1100 1300 c 5
 780 1300 l 5
 741 1300 710 1269 710 1230 c 7
 710 1191 741 1160 780 1160 c 5
 857 1160 l 5
 600 740 l 5
 343 1160 l 5
 420 1160 l 5
 459 1160 490 1191 490 1230 c 7
 490 1269 459 1300 420 1300 c 5
 100 1300 l 5
 61 1300 30 1269 30 1230 c 7
 30 1191 61 1160 100 1160 c 5
 177 1160 l 5
 530 588 l 5
 530 140 l 5
 350 140 l 5
EndSplineSet
EndChar

StartChar: Z
Encoding: 60 90 125
Width: 1200
GlyphClass: 2
Flags: W
AnchorPoint: "Anchor-1" 600 0 basechar 0
AnchorPoint: "Anchor-0" 637 1377 basechar 0
LayerCount: 6
Fore
SplineSet
1067 1189 m 6,0,1
 1067 1189 1067 1189 325 140 c 5,2,-1
 950 140 l 5,3,-1
 950 270 l 6,4,5
 950 299 950 299 970.5 319.5 c 132,-1,6
 991 340 991 340 1020 340 c 132,-1,7
 1049 340 1049 340 1069.5 319.5 c 132,-1,8
 1090 299 1090 299 1090 270 c 6,9,10
 1090 270 1090 270 1090 70 c 6,11,12
 1090 40 1090 40 1070 20 c 132,-1,13
 1050 0 1050 0 1020 0 c 6,14,15
 1020 0 1020 0 190 0 c 6,16,17
 161 0 161 0 140.5 20.5 c 132,-1,18
 120 41 120 41 120 70 c 4,19,20
 120 93 120 93 133 111 c 6,21,22
 133 111 133 111 875 1160 c 5,23,-1
 250 1160 l 5,24,-1
 250 1030 l 6,25,26
 250 1001 250 1001 229.5 980.5 c 132,-1,27
 209 960 209 960 180 960 c 132,-1,28
 151 960 151 960 130.5 980.5 c 132,-1,29
 110 1001 110 1001 110 1030 c 6,30,31
 110 1030 110 1030 110 1230 c 6,32,33
 110 1260 110 1260 130 1280 c 132,-1,34
 150 1300 150 1300 180 1300 c 6,35,36
 180 1300 180 1300 1010 1300 c 6,37,38
 1039 1300 1039 1300 1059.5 1279.5 c 132,-1,39
 1080 1259 1080 1259 1080 1230 c 4,40,41
 1080 1207 1080 1207 1067 1189 c 6,0,1
EndSplineSet
Validated: 1
Layer: 2
SplineSet
1067 1189 m 5
 325 140 l 5
 950 140 l 5
 950 270 l 5
 950 309 981 340 1020 340 c 4
 1059 340 1090 309 1090 270 c 5
 1090 70 l 5
 1090 30 1060 0 1020 0 c 5
 190 0 l 5
 151 0 120 31 120 70 c 4
 120 85 125 100 133 111 c 5
 875 1160 l 5
 250 1160 l 5
 250 1030 l 5
 250 991 219 960 180 960 c 4
 141 960 110 991 110 1030 c 5
 110 1230 l 5
 110 1270 140 1300 180 1300 c 5
 1010 1300 l 5
 1049 1300 1080 1269 1080 1230 c 4
 1080 1215 1075 1200 1067 1189 c 5
EndSplineSet
EndChar

StartChar: F_l.liga.ss10
Encoding: 273 -1 136
Width: 1200
GlyphClass: 3
Flags: W
LayerCount: 6
Fore
SplineSet
320 1160 m 1,0,-1
 550 1160 l 1,1,-1
 550 140 l 1,2,-1
 290 140 l 2,3,4
 260 140 260 140 240 120 c 128,-1,5
 220 100 220 100 220 70 c 128,-1,6
 220 40 220 40 240 20 c 128,-1,7
 260 0 260 0 290 0 c 2,8,-1
 950 0 l 2,9,10
 980 0 980 0 1000 20 c 128,-1,11
 1020 40 1020 40 1020 70 c 128,-1,12
 1020 100 1020 100 1000 120 c 128,-1,13
 980 140 980 140 950 140 c 2,14,-1
 690 140 l 1,15,-1
 690 1230 l 2,16,17
 690 1260 690 1260 670 1280 c 128,-1,18
 650 1300 650 1300 620 1300 c 2,19,-1
 320 1300 l 1,20,-1
 -1010 1300 l 2,21,22
 -1040 1300 -1040 1300 -1060 1280 c 128,-1,23
 -1080 1260 -1080 1260 -1080 1230 c 128,-1,24
 -1080 1200 -1080 1200 -1060 1180 c 128,-1,25
 -1040 1160 -1040 1160 -1010 1160 c 2,26,-1
 -920 1160 l 1,27,-1
 -920 140 l 1,28,-1
 -1010 140 l 2,29,30
 -1040 140 -1040 140 -1060 120 c 128,-1,31
 -1080 100 -1080 100 -1080 70 c 128,-1,32
 -1080 40 -1080 40 -1060 20 c 128,-1,33
 -1040 0 -1040 0 -1010 0 c 2,34,-1
 -600 0 l 2,35,36
 -570 0 -570 0 -550 20 c 128,-1,37
 -530 40 -530 40 -530 70 c 128,-1,38
 -530 100 -530 100 -550 120 c 128,-1,39
 -570 140 -570 140 -600 140 c 2,40,-1
 -780 140 l 1,41,-1
 -780 610 l 1,42,-1
 -450 610 l 1,43,-1
 -450 540 l 2,44,45
 -450 511 -450 511 -429.5 490.5 c 128,-1,46
 -409 470 -409 470 -380 470 c 0,47,48
 -350 470 -350 470 -330 490 c 128,-1,49
 -310 510 -310 510 -310 540 c 2,50,-1
 -310 820 l 2,51,52
 -310 849 -310 849 -330.5 869.5 c 128,-1,53
 -351 890 -351 890 -380 890 c 128,-1,54
 -409 890 -409 890 -429.5 869.5 c 128,-1,55
 -450 849 -450 849 -450 820 c 2,56,-1
 -450 750 l 1,57,-1
 -780 750 l 1,58,-1
 -780 1160 l 1,59,-1
 320 1160 l 1,0,-1
EndSplineSet
Validated: 9
Layer: 2
SplineSet
320 1160 m 5
 550 1160 l 5
 550 140 l 5
 290 140 l 6
 250 140 220 110.333007812 220 70 c 132
 220 29.6650390625 249.666992188 0 290 0 c 6
 950 0 l 6
 990.334960938 0 1020 29.6669921875 1020 70 c 132
 1020 110.334960938 990 140 950 140 c 6
 690 140 l 5
 690 1230 l 133
 690 1270.33496094 660.333007812 1300 620 1300 c 5
 320 1300 l 5
 -1010 1300 l 5
 -1050.33007812 1300 -1080 1270.33300781 -1080 1230 c 132
 -1080 1189.66503906 -1050.328125 1160 -1010 1160 c 5
 -920 1160 l 5
 -920 140 l 5
 -1010 140 l 6
 -1050 140 -1080 110.333007812 -1080 70 c 132
 -1080 29.6650390625 -1050.32714844 0 -1010 0 c 6
 -600 0 l 6
 -559.665039062 0 -530 29.6669921875 -530 70 c 132
 -530 110.334960938 -560 140 -600 140 c 6
 -780 140 l 5
 -780 610 l 5
 -450 610 l 5
 -450 540 l 5
 -450 501 -419 470 -380 470 c 4
 -339.666015625 470 -310 499.666992188 -310 540 c 5
 -310 820 l 5
 -310 859 -341 890 -380 890 c 4
 -419 890 -450 859 -450 820 c 5
 -450 750 l 5
 -780 750 l 5
 -780 1160 l 5
 320 1160 l 5
EndSplineSet
EndChar

StartChar: T_l.liga.ss10
Encoding: 274 -1 137
Width: 1200
GlyphClass: 3
Flags: W
LayerCount: 6
Fore
SplineSet
320 1160 m 1,0,-1
 550 1160 l 1,1,-1
 550 140 l 1,2,-1
 290 140 l 2,3,4
 260 140 260 140 240 120 c 128,-1,5
 220 100 220 100 220 70 c 128,-1,6
 220 40 220 40 240 20 c 128,-1,7
 260 0 260 0 290 0 c 2,8,-1
 950 0 l 2,9,10
 980 0 980 0 1000 20 c 128,-1,11
 1020 40 1020 40 1020 70 c 128,-1,12
 1020 100 1020 100 1000 120 c 128,-1,13
 980 140 980 140 950 140 c 2,14,-1
 690 140 l 1,15,-1
 690 1230 l 2,16,17
 690 1260 690 1260 670 1280 c 128,-1,18
 650 1300 650 1300 620 1300 c 2,19,-1
 320 1300 l 1,20,-1
 -1010 1300 l 2,21,22
 -1040 1300 -1040 1300 -1060 1280 c 128,-1,23
 -1080 1260 -1080 1260 -1080 1230 c 2,24,-1
 -1080 1030 l 2,25,26
 -1080 1001 -1080 1001 -1059.5 980.5 c 128,-1,27
 -1039 960 -1039 960 -1010 960 c 128,-1,28
 -981 960 -981 960 -960.5 980.5 c 128,-1,29
 -940 1001 -940 1001 -940 1030 c 2,30,-1
 -940 1160 l 1,31,-1
 -670 1160 l 1,32,-1
 -670 140 l 1,33,-1
 -850 140 l 2,34,35
 -880 140 -880 140 -900 120 c 128,-1,36
 -920 100 -920 100 -920 70 c 128,-1,37
 -920 40 -920 40 -900 20 c 128,-1,38
 -880 0 -880 0 -850 0 c 2,39,-1
 -350 0 l 2,40,41
 -320 0 -320 0 -300 20 c 128,-1,42
 -280 40 -280 40 -280 70 c 128,-1,43
 -280 100 -280 100 -300 120 c 128,-1,44
 -320 140 -320 140 -350 140 c 2,45,-1
 -530 140 l 1,46,-1
 -530 1160 l 1,47,-1
 320 1160 l 1,0,-1
EndSplineSet
Validated: 9
Layer: 2
SplineSet
320 1160 m 5
 550 1160 l 5
 550 140 l 5
 290 140 l 6
 250 140 220 110.333007812 220 70 c 132
 220 29.6650390625 249.666992188 0 290 0 c 6
 950 0 l 6
 990.334960938 0 1020 29.6669921875 1020 70 c 132
 1020 110.334960938 990 140 950 140 c 6
 690 140 l 5
 690 1230 l 133
 690 1270.33496094 660.333007812 1300 620 1300 c 5
 320 1300 l 5
 -1010 1300 l 5
 -1050.33398438 1300 -1080 1270.33300781 -1080 1230 c 5
 -1080 1030 l 5
 -1080 991 -1049 960 -1010 960 c 4
 -971 960 -940 991 -940 1030 c 5
 -940 1160 l 5
 -670 1160 l 5
 -670 140 l 5
 -850 140 l 5
 -890.330078125 140 -920 110.333007812 -920 70 c 132
 -920 29.6650390625 -890.326171875 0 -850 0 c 6
 -350 0 l 6
 -309.666015625 0 -280 29.6669921875 -280 70 c 132
 -280 110.334960938 -309.66796875 140 -350 140 c 5
 -530 140 l 5
 -530 1160 l 5
 320 1160 l 5
EndSplineSet
EndChar

StartChar: a
Encoding: 67 97 138
Width: 1200
GlyphClass: 2
Flags: W
AnchorPoint: "Anchor-1" 600 0 basechar 0
AnchorPoint: "Anchor-0" 584 1053 basechar 0
LayerCount: 6
Fore
SplineSet
345 795 m 4,0,1
 332 790 332 790 320 790 c 4,2,3
 291 790 291 790 270.5 810.5 c 132,-1,4
 250 831 250 831 250 860 c 4,5,6
 250 882 250 882 262 899.5 c 132,-1,7
 274 917 274 917 294 925 c 4,8,9
 436 980 436 980 560 980 c 4,10,11
 736 980 736 980 838 899 c 132,-1,12
 940 818 940 818 940 640 c 6,13,14
 940 640 940 640 940 140 c 5,15,-1
 1010 140 l 6,16,17
 1039 140 1039 140 1059.5 119.5 c 132,-1,18
 1080 99 1080 99 1080 70 c 132,-1,19
 1080 41 1080 41 1059.5 20.5 c 132,-1,20
 1039 0 1039 0 1010 0 c 6,21,22
 1010 0 1010 0 870 0 c 6,23,24
 841 0 841 0 820.5 20.5 c 132,-1,25
 800 41 800 41 800 70 c 6,26,27
 800 70 800 70 800 104 c 5,28,29
 733 47 733 47 656 13.5 c 132,-1,30
 579 -20 579 -20 510 -20 c 4,31,32
 364 -20 364 -20 272 69.5 c 132,-1,33
 180 159 180 159 180 290 c 132,-1,34
 180 421 180 421 272 510.5 c 132,-1,35
 364 600 364 600 510 600 c 4,36,37
 605 600 605 600 667 588 c 132,-1,38
 729 576 729 576 800 548 c 5,39,40
 800 548 800 548 800 640 c 6,41,42
 800 742 800 742 749.5 791 c 132,-1,43
 699 840 699 840 560 840 c 4,44,45
 459 840 459 840 345 795 c 4,0,1
800 281 m 1,46,47
 800 281 800 281 800 406 c 1,48,49
 726 460 726 460 510 460 c 0,50,51
 422 460 422 460 371 411.5 c 128,-1,52
 320 363 320 363 320 290 c 128,-1,53
 320 217 320 217 371 168.5 c 128,-1,54
 422 120 422 120 510 120 c 0,55,56
 579 120 579 120 667 170 c 128,-1,57
 755 220 755 220 800 281 c 1,46,47
EndSplineSet
Validated: 1
Layer: 2
SplineSet
345 795 m 4
 415.6875 822.78125 485.616948374 840 560 840 c 4
 757.040604952 840 800 764.016127983 800 640 c 13
 800 548 l 5
 713 582 645.003703653 600 510 600 c 4
 311 600 180 461 180 290 c 4
 180 119 311 -20 510 -20 c 4
 605.372017591 -20 713.376801921 31.6795002992 800 104.326171875 c 5
 800 70 l 6
 800 31 831 0 870 0 c 6
 1010 0 l 6
 1049 0 1080 31 1080 70 c 4
 1080 109 1049 140 1010 140 c 6
 940 140 l 5
 940 640 l 21
 940 889 780 980 560 980 c 4
 478.077392182 980 387.712890625 961.180664062 294 925 c 4
 268 915 250 889.786132812 250 860 c 4
 250 821 281 790 320 790 c 4
 328.833007812 790 337.254882812 792.086914062 345 795 c 4
800 281.426757812 m 5
 741.30981193 201.174074286 603.139469302 120 510 120 c 4
 389 120 320 196 320 290 c 4
 320 384 389 460 510 460 c 4
 644 460 751 442 800 406 c 5
 800 281.426757812 l 5
EndSplineSet
Substitution2: "'cv01' Character Variants 01 lookup 361 subtable" a.cv01
Substitution2: "Single Substitution lookup 12 subtable" ordfeminine
AlternateSubs2: "'aalt' Access All Alternates lookup 1 subtable" a.cv01 ordfeminine
EndChar

StartChar: aring
Encoding: 166 229 146
Width: 1200
GlyphClass: 2
Flags: W
AnchorPoint: "Anchor-1" 600 0 basechar 0
AnchorPoint: "Anchor-0" 584 1053 basechar 0
LayerCount: 6
Fore
Refer: 138 97 N 1 0 0 1 0 0 3
Refer: 1677 730 S 1 0 0 1 0 0 2
Validated: 1
Layer: 2
SplineSet
480 1430 m 4
 480 1364 534 1310 600 1310 c 4
 666 1310 720 1364 720 1430 c 4
 720 1496 666 1550 600 1550 c 4
 534 1550 480 1496 480 1430 c 4
380 1430 m 4
 380 1551 479 1650 600 1650 c 4
 721 1650 820 1551 820 1430 c 4
 820 1309 721 1210 600 1210 c 4
 479 1210 380 1309 380 1430 c 4
EndSplineSet
Substitution2: "'cv01' Character Variants 01 lookup 361 subtable" aring.cv01
Substitution2: "'aalt' Access All Alternates lookup 0 subtable" aring.cv01
EndChar

StartChar: ae
Encoding: 167 230 148
Width: 1200
GlyphClass: 2
Flags: W
AnchorPoint: "Anchor-0" 617 1053 basechar 0
LayerCount: 6
Fore
SplineSet
530 281 m 1,0,1
 530 281 530 281 530 427 c 1,2,3
 512 427 512 427 419.5 436 c 128,-1,4
 327 445 327 445 250 445 c 0,5,6
 163 445 163 445 116.5 404.5 c 128,-1,7
 70 364 70 364 70 290 c 128,-1,8
 70 216 70 216 116.5 168 c 128,-1,9
 163 120 163 120 250 120 c 0,10,11
 318 120 318 120 401 169.5 c 128,-1,12
 484 219 484 219 530 281 c 1,0,1
574 158 m 1,13,14
 528 94 528 94 487 57.5 c 128,-1,15
 446 21 446 21 388 0.5 c 128,-1,16
 330 -20 330 -20 250 -20 c 0,17,18
 105 -20 105 -20 17.5 69 c 128,-1,19
 -70 158 -70 158 -70 290 c 128,-1,20
 -70 422 -70 422 17.5 503.5 c 128,-1,21
 105 585 105 585 250 585 c 0,22,23
 328 585 328 585 422 577.5 c 128,-1,24
 516 570 516 570 530 570 c 1,25,26
 530 570 530 570 530 640 c 2,27,28
 530 742 530 742 479.5 791 c 128,-1,29
 429 840 429 840 290 840 c 0,30,31
 202 840 202 840 85 795 c 0,32,33
 72 790 72 790 60 790 c 0,34,35
 31 790 31 790 10.5 810.5 c 128,-1,36
 -10 831 -10 831 -10 860 c 0,37,38
 -10 908 -10 908 34 925 c 0,39,40
 178 980 178 980 290 980 c 0,41,42
 512 980 512 980 604 849 c 1,43,44
 703 980 703 980 888 980 c 0,45,46
 1268 980 1268 980 1268 496 c 0,47,48
 1268 470 1268 470 1246 449 c 0,49,50
 1226 430 1226 430 1198 430 c 2,51,52
 1198 430 1198 430 650 430 c 1,53,54
 665 269 665 269 717.5 195 c 128,-1,55
 770 121 770 121 888 121 c 0,56,57
 930 121 930 121 968 132.5 c 128,-1,58
 1006 144 1006 144 1032.5 159 c 128,-1,59
 1059 174 1059 174 1116 210 c 0,60,61
 1132 220 1132 220 1153 220 c 0,62,63
 1182 220 1182 220 1202.5 199.5 c 128,-1,64
 1223 179 1223 179 1223 150 c 0,65,66
 1223 112 1223 112 1190 90 c 0,67,68
 1095 28 1095 28 1034 4 c 128,-1,69
 973 -20 973 -20 888 -20 c 0,70,71
 671 -20 671 -20 574 158 c 1,13,14
1121 570 m 1,72,73
 1096 713 1096 713 1046.5 776 c 128,-1,74
 997 839 997 839 888 839 c 128,-1,75
 779 839 779 839 729.5 776 c 128,-1,76
 680 713 680 713 655 570 c 1,77,-1
 1121 570 l 1,72,73
EndSplineSet
Validated: 1
Layer: 2
SplineSet
574 158 m 5
 638 40 737 -20 888 -20 c 4
 1009 -20 1076 16 1190 90 c 5
 1210 102 1223 125 1223 150 c 4
 1223 189 1192 220 1153 220 c 4
 1139 220 1127 217 1116 210 c 5
 1023 151 976 121 888 121 c 4
 724 121 669 225 650 430 c 5
 1198 430 l 5
 1236 430 1266 459 1268 496 c 5
 1261 816 1138 980 888 980 c 4
 758 980 670 936 604 849 c 5
 539 942 432 980 290 980 c 0
 208 980 128 961 34 925 c 0
 8 915 -10 890 -10 860 c 0
 -10 821 21 790 60 790 c 0
 69 790 77 792 85 795 c 0
 156 823 216 840 290 840 c 0
 487 840 530 764 530 640 c 1
 530 570 l 1
 480 570 385 585 250 585 c 0
 51 585 -70 461 -70 290 c 0
 -70 119 51 -20 250 -20 c 0
 413 -20 488 38 574 158 c 5
530 281 m 1
 471 201 343 120 250 120 c 0
 129 120 70 196 70 290 c 0
 70 384 129 445 250 445 c 0
 384 445 475 427 530 427 c 1
 530 281 l 1
1121 570 m 5
 1090 748 1041 839 888 839 c 4
 735 839 686 748 655 570 c 5
 1121 570 l 5
EndSplineSet
EndChar

StartChar: b
Encoding: 68 98 150
Width: 1200
GlyphClass: 2
Flags: W
AnchorPoint: "Anchor-1" 600 0 basechar 0
AnchorPoint: "Anchor-0" 600 1477 basechar 0
LayerCount: 6
Fore
SplineSet
1080 480 m 128,-1,1
 1080 622 1080 622 1038.5 732.5 c 128,-1,2
 997 843 997 843 906 911.5 c 128,-1,3
 815 980 815 980 685 980 c 0,4,5
 603 980 603 980 537.5 943 c 128,-1,6
 472 906 472 906 410 839 c 1,7,-1
 410 1370 l 2,8,9
 410 1399 410 1399 389.5 1419.5 c 128,-1,10
 369 1440 369 1440 340 1440 c 2,11,-1
 180 1440 l 2,12,13
 151 1440 151 1440 130.5 1419.5 c 128,-1,14
 110 1399 110 1399 110 1370 c 128,-1,15
 110 1341 110 1341 130.5 1320.5 c 128,-1,16
 151 1300 151 1300 180 1300 c 2,17,-1
 270 1300 l 1,18,-1
 270 140 l 1,19,-1
 180 140 l 2,20,21
 151 140 151 140 130.5 119.5 c 128,-1,22
 110 99 110 99 110 70 c 128,-1,23
 110 41 110 41 130.5 20.5 c 128,-1,24
 151 0 151 0 180 0 c 2,25,-1
 340 0 l 2,26,27
 369 0 369 0 389.5 20.5 c 128,-1,28
 410 41 410 41 410 70 c 2,29,-1
 410 121 l 1,30,31
 472 54 472 54 537.5 17 c 128,-1,32
 603 -20 603 -20 685 -20 c 0,33,34
 815 -20 815 -20 906 48.5 c 128,-1,35
 997 117 997 117 1038.5 227.5 c 128,-1,0
 1080 338 1080 338 1080 480 c 128,-1,1
410 330 m 1,36,-1
 410 630 l 1,37,38
 447 721 447 721 523.5 780.5 c 128,-1,39
 600 840 600 840 685 840 c 0,40,41
 792 840 792 840 866 735 c 128,-1,42
 940 630 940 630 940 480 c 128,-1,43
 940 330 940 330 866 225 c 128,-1,44
 792 120 792 120 685 120 c 0,45,46
 600 120 600 120 523.5 179.5 c 128,-1,47
 447 239 447 239 410 330 c 1,36,-1
EndSplineSet
Validated: 9
Layer: 2
SplineSet
410 330 m 1
 410 630 l 1
 458 749 569.982421875 840 685 840 c 3
 829 840 940 679 940 480 c 0
 940 281 829 120 685 120 c 3
 569.982421875 120 458 211 410 330 c 1
1080 480 m 0
 1080 756 954 980 685 980 c 3
 567 980 483 917 410 839 c 1
 410 1370 l 2
 410 1409 379 1440 340 1440 c 5
 180 1440 l 1
 141 1440 110 1409 110 1370 c 0
 110 1331 141 1300 180 1300 c 1
 270 1300 l 1
 270 140 l 1
 180 140 l 1
 141 140 110 109 110 70 c 0
 110 31 141 0 180 0 c 1
 340 0 l 1
 379 0 410 31 410 70 c 1
 410 121 l 1
 483 43 567 -20 685 -20 c 3
 954 -20 1080 204 1080 480 c 0
EndSplineSet
EndChar

StartChar: c
Encoding: 69 99 151
Width: 1200
GlyphClass: 2
Flags: W
LayerCount: 6
Fore
SplineSet
881 891 m 5,0,1
 881 891 881 891 881 899 c 5,2,3
 885 924 885 924 904.5 941 c 132,-1,4
 924 958 924 958 950 958 c 4,5,6
 979 958 979 958 999.5 937.5 c 132,-1,7
 1020 917 1020 917 1020 888 c 6,8,9
 1020 888 1020 888 1019 639 c 6,10,11
 1019 610 1019 610 998.5 589.5 c 132,-1,12
 978 569 978 569 949 569 c 132,-1,13
 920 569 920 569 899.5 589.5 c 132,-1,14
 879 610 879 610 879 639 c 6,15,16
 879 639 879 639 880 673 c 5,17,18
 840 754 840 754 766 796.5 c 132,-1,19
 692 839 692 839 600 839 c 4,20,21
 461 839 461 839 370.5 745.5 c 132,-1,22
 280 652 280 652 280 481 c 4,23,24
 280 309 280 309 370.5 215 c 132,-1,25
 461 121 461 121 600 121 c 4,26,27
 729 121 729 121 893 225 c 4,28,29
 909 235 909 235 930 235 c 4,30,31
 959 235 959 235 979.5 214.5 c 132,-1,32
 1000 194 1000 194 1000 165 c 4,33,34
 1000 125 1000 125 967 105 c 4,35,36
 774 -20 774 -20 600 -20 c 4,37,38
 504 -20 504 -20 421 12 c 132,-1,39
 338 44 338 44 275 105 c 132,-1,40
 212 166 212 166 176 262.5 c 132,-1,41
 140 359 140 359 140 480 c 132,-1,42
 140 601 140 601 176 697.5 c 132,-1,43
 212 794 212 794 275 855 c 132,-1,44
 338 916 338 916 421 948 c 132,-1,45
 504 980 504 980 600 980 c 4,46,47
 764 980 764 980 881 891 c 5,0,1
EndSplineSet
Validated: 1
Layer: 2
SplineSet
881 891 m 5
 803.006835938 950.125976562 706.700107152 980 600 980 c 4
 346 980 140 811 140 480 c 4
 140 149 346 -20 600 -20 c 4
 720.932678224 -20 853 31 967 105 c 5
 987 117 1000 140 1000 165 c 4
 1000 204 969 235 930 235 c 4
 916 235 904 232 893 225 c 5
 800 166 688 121 600 121 c 4
 423 121 280 242 280 481 c 4
 280 718 423 839 600 839 c 4
 719.995153245 839 825.227946575 783.026051988 880 673 c 5
 879 639 l 5
 879 600 910 569 949 569 c 4
 988 569 1019 600 1019 639 c 5
 1020 888 l 5
 1020 927 989 958 950 958 c 4
 914.747070312 958 886.193359375 932.670898438 881 899 c 5
 881 891 l 5
EndSplineSet
EndChar

StartChar: d
Encoding: 70 100 157
Width: 1200
GlyphClass: 2
Flags: W
AnchorPoint: "Anchor-2" 600 527 basechar 0
AnchorPoint: "Anchor-1" 600 0 basechar 0
AnchorPoint: "Anchor-0" 600 1477 basechar 0
LayerCount: 6
Fore
SplineSet
930 1370 m 2,0,1
 930 1399 930 1399 909.5 1419.5 c 128,-1,2
 889 1440 889 1440 860 1440 c 6,3,-1
 700 1440 l 2,4,5
 671 1440 671 1440 650.5 1419.5 c 128,-1,6
 630 1399 630 1399 630 1370 c 128,-1,7
 630 1341 630 1341 650.5 1320.5 c 128,-1,8
 671 1300 671 1300 700 1300 c 2,9,-1
 790 1300 l 1,10,-1
 790 839 l 1,11,12
 728 906 728 906 662.5 943 c 128,-1,13
 597 980 597 980 515 980 c 0,14,15
 385 980 385 980 294 911.5 c 128,-1,16
 203 843 203 843 161.5 732.5 c 128,-1,17
 120 622 120 622 120 480 c 128,-1,18
 120 338 120 338 161.5 227.5 c 128,-1,19
 203 117 203 117 294 48.5 c 128,-1,20
 385 -20 385 -20 515 -20 c 0,21,22
 597 -20 597 -20 662.5 17 c 128,-1,23
 728 54 728 54 790 121 c 1,24,-1
 790 70 l 2,25,26
 790 41 790 41 810.5 20.5 c 128,-1,27
 831 0 831 0 860 0 c 2,28,-1
 1020 0 l 2,29,30
 1049 0 1049 0 1069.5 20.5 c 128,-1,31
 1090 41 1090 41 1090 70 c 128,-1,32
 1090 99 1090 99 1069.5 119.5 c 128,-1,33
 1049 140 1049 140 1020 140 c 2,34,-1
 930 140 l 1,35,-1
 930 1370 l 2,0,1
794 330 m 1,36,37
 757 239 757 239 680.5 179.5 c 128,-1,38
 604 120 604 120 519 120 c 0,39,40
 412 120 412 120 338 225 c 128,-1,41
 264 330 264 330 264 480 c 128,-1,42
 264 630 264 630 338 735 c 128,-1,43
 412 840 412 840 519 840 c 0,44,45
 604 840 604 840 680.5 780.5 c 128,-1,46
 757 721 757 721 794 630 c 1,47,48
 794 630 794 630 794 330 c 1,36,37
EndSplineSet
Validated: 9
Layer: 2
SplineSet
930 1370 m 5
 930 1409 899 1440 860 1440 c 5
 860 1440 l 5
 700 1440 l 5
 661 1440 630 1409 630 1370 c 4
 630 1331 661 1300 700 1300 c 5
 790 1300 l 29
 790 839 l 5
 717 917 633 980 515 980 c 7
 246 980 120 756 120 480 c 4
 120 204 246 -20 515 -20 c 7
 633 -20 717 43 790 121 c 5
 790 70 l 5
 790 31 821 0 860 0 c 5
 1020 0 l 5
 1059 0 1090 31 1090 70 c 4
 1090 109 1059 140 1020 140 c 5
 930 140 l 5
 930 1370 l 5
794 330 m 5
 794 630 l 5
 746 749 634.017578125 840 519 840 c 7
 375 840 264 679 264 480 c 4
 264 281 375 120 519 120 c 7
 634.017578125 120 746 211 794 330 c 5
EndSplineSet
EndChar

StartChar: eth
Encoding: 177 240 158
Width: 1200
GlyphClass: 1
Flags: W
LayerCount: 6
Fore
SplineSet
662 1153 m 5,0,-1
 367 1082 l 6,1,2
 357 1080 357 1080 350 1080 c 4,3,4
 321 1080 321 1080 300.5 1100.5 c 132,-1,5
 280 1121 280 1121 280 1150 c 4,6,7
 280 1175 280 1175 295 1194 c 132,-1,8
 310 1213 310 1213 333 1218 c 6,9,-1
 566 1274 l 5,10,11
 547 1295 547 1295 522 1319 c 4,12,13
 500 1341 500 1341 500 1370 c 132,-1,14
 500 1399 500 1399 520.5 1419.5 c 132,-1,15
 541 1440 541 1440 570 1440 c 4,16,17
 597 1440 597 1440 618 1421 c 4,18,19
 668 1374 668 1374 719 1310 c 5,20,-1
 978 1373 l 6,21,22
 988 1375 988 1375 995 1375 c 4,23,24
 1024 1375 1024 1375 1044.5 1354.5 c 132,-1,25
 1065 1334 1065 1334 1065 1305 c 4,26,27
 1065 1280 1065 1280 1050 1261 c 132,-1,28
 1035 1242 1035 1242 1012 1237 c 6,29,-1
 805 1187 l 5,30,31
 995 872 995 872 995 480 c 4,32,33
 995 338 995 338 953.5 227.5 c 132,-1,34
 912 117 912 117 821 48.5 c 132,-1,35
 730 -20 730 -20 600 -20 c 132,-1,36
 470 -20 470 -20 379 48.5 c 132,-1,37
 288 117 288 117 246.5 227.5 c 132,-1,38
 205 338 205 338 205 480 c 132,-1,39
 205 622 205 622 246.5 732.5 c 132,-1,40
 288 843 288 843 379 911.5 c 132,-1,41
 470 980 470 980 600 980 c 4,42,43
 694 980 694 980 772 942 c 5,44,45
 727 1057 727 1057 662 1153 c 5,0,-1
600 120 m 4,46,47
 708 120 708 120 783.5 225.5 c 132,-1,48
 859 331 859 331 859 480 c 132,-1,49
 859 629 859 629 783.5 734.5 c 132,-1,50
 708 840 708 840 600 840 c 4,51,52
 493 840 493 840 421 735.5 c 132,-1,53
 349 631 349 631 349 480 c 132,-1,54
 349 329 349 329 421 224.5 c 132,-1,55
 493 120 493 120 600 120 c 4,46,47
EndSplineSet
Validated: 1
Layer: 2
SplineSet
662 1153 m 5
 367 1082 l 5
 362 1081 356 1080 350 1080 c 4
 311 1080 280 1111 280 1150 c 4
 280 1183 302 1211 333 1218 c 5
 566 1274 l 5
 552 1290 537 1305 522 1319 c 5
 509 1332 500 1350 500 1370 c 4
 500 1409 531 1440 570 1440 c 4
 589 1440 605 1433 618 1421 c 5
 654 1387 687 1350 719 1310 c 5
 978 1373 l 5
 983 1374 989 1375 995 1375 c 4
 1034 1375 1065 1344 1065 1305 c 4
 1065 1272 1043 1244 1012 1237 c 5
 805 1187 l 5
 925 988 995 744 995 480 c 5
 995 204 869 -20 600 -20 c 7
 331 -20 205 204 205 480 c 4
 205 756 331 980 600 980 c 7
 666 980 723 966 772 942 c 5
 742 1018 705 1089 662 1153 c 5
600 120 m 7
 744 120 859 281 859 480 c 4
 859 679 744 840 600 840 c 7
 456 840 349 679 349 480 c 4
 349 281 456 120 600 120 c 7
EndSplineSet
EndChar

StartChar: dcroat
Encoding: 284 273 160
Width: 1200
GlyphClass: 2
Flags: W
AnchorPoint: "Anchor-2" 605 527 basechar 0
AnchorPoint: "Anchor-1" 605 0 basechar 0
AnchorPoint: "Anchor-0" 605 1477 basechar 0
LayerCount: 6
Fore
SplineSet
1180 1120 m 128,-1,1
 1180 1091 1180 1091 1159.5 1070.5 c 128,-1,2
 1139 1050 1139 1050 1110 1050 c 2,3,-1
 610 1050 l 2,4,5
 581 1050 581 1050 560.5 1070.5 c 128,-1,6
 540 1091 540 1091 540 1120 c 128,-1,7
 540 1149 540 1149 560.5 1169.5 c 128,-1,8
 581 1190 581 1190 610 1190 c 2,9,-1
 1110 1190 l 2,10,11
 1139 1190 1139 1190 1159.5 1169.5 c 128,-1,0
 1180 1149 1180 1149 1180 1120 c 128,-1,1
930 1370 m 2,12,13
 930 1370 930 1370 930 140 c 1,14,-1
 1020 140 l 2,15,16
 1049 140 1049 140 1069.5 119.5 c 128,-1,17
 1090 99 1090 99 1090 70 c 128,-1,18
 1090 41 1090 41 1069.5 20.5 c 128,-1,19
 1049 0 1049 0 1020 0 c 2,20,21
 1020 0 1020 0 860 0 c 2,22,23
 831 0 831 0 810.5 20.5 c 128,-1,24
 790 41 790 41 790 70 c 2,25,26
 790 70 790 70 790 121 c 1,27,28
 728 54 728 54 662.5 17 c 128,-1,29
 597 -20 597 -20 515 -20 c 0,30,31
 385 -20 385 -20 294 48.5 c 128,-1,32
 203 117 203 117 161.5 227.5 c 128,-1,33
 120 338 120 338 120 480 c 128,-1,34
 120 622 120 622 161.5 732.5 c 128,-1,35
 203 843 203 843 294 911.5 c 128,-1,36
 385 980 385 980 515 980 c 0,37,38
 597 980 597 980 662.5 943 c 128,-1,39
 728 906 728 906 790 839 c 1,40,41
 790 839 790 839 790 1300 c 1,42,-1
 700 1300 l 2,43,44
 671 1300 671 1300 650.5 1320.5 c 128,-1,45
 630 1341 630 1341 630 1370 c 128,-1,46
 630 1399 630 1399 650.5 1419.5 c 128,-1,47
 671 1440 671 1440 700 1440 c 2,48,49
 700 1440 700 1440 860 1440 c 2,50,51
 889 1440 889 1440 909.5 1419.5 c 128,-1,52
 930 1399 930 1399 930 1370 c 2,12,13
794 330 m 1,53,-1
 794 630 l 1,54,55
 757 721 757 721 680.5 780.5 c 128,-1,56
 604 840 604 840 519 840 c 0,57,58
 412 840 412 840 338 735 c 128,-1,59
 264 630 264 630 264 480 c 128,-1,60
 264 330 264 330 338 225 c 128,-1,61
 412 120 412 120 519 120 c 0,62,63
 604 120 604 120 680.5 179.5 c 128,-1,64
 757 239 757 239 794 330 c 1,53,-1
EndSplineSet
Validated: 5
Layer: 2
SplineSet
1180 1120 m 132
 1180 1080.95898438 1149.04068982 1050 1110 1050 c 6
 610 1050 l 6
 570.958984375 1050 540 1080.95703125 540 1120 c 132
 540 1159.04101562 570.95703125 1190 610 1190 c 6
 1110 1190 l 6
 1149.03873671 1190 1180 1159.04296875 1180 1120 c 132
930 1370 m 1
 930 1409 899 1440 860 1440 c 1
 860 1440 l 1
 700 1440 l 1
 661 1440 630 1409 630 1370 c 0
 630 1331 661 1300 700 1300 c 1
 790 1300 l 25
 790 839 l 1
 717 917 633 980 515 980 c 3
 246 980 120 756 120 480 c 0
 120 204 246 -20 515 -20 c 3
 633 -20 717 43 790 121 c 1
 790 70 l 1
 790 31 821 0 860 0 c 1
 1020 0 l 1
 1059 0 1090 31 1090 70 c 0
 1090 109 1059 140 1020 140 c 1
 930 140 l 1
 930 1370 l 1
794 330 m 1
 794 630 l 1
 746 749 634.017578125 840 519 840 c 3
 375 840 264 679 264 480 c 0
 264 281 375 120 519 120 c 3
 634.017578125 120 746 211 794 330 c 1
EndSplineSet
EndChar

StartChar: e
Encoding: 71 101 161
Width: 1200
GlyphClass: 2
Flags: W
AnchorPoint: "Anchor-1" 600 0 basechar 0
AnchorPoint: "Anchor-0" 621 1053 basechar 0
LayerCount: 6
Fore
SplineSet
982 90 m 1,0,1
 900 37 900 37 797.5 8.5 c 128,-1,2
 695 -20 695 -20 600 -20 c 0,3,4
 504 -20 504 -20 421 12 c 128,-1,5
 338 44 338 44 275 105 c 128,-1,6
 212 166 212 166 176 262.5 c 128,-1,7
 140 359 140 359 140 480 c 128,-1,8
 140 601 140 601 176 697.5 c 128,-1,9
 212 794 212 794 275 855 c 128,-1,10
 338 916 338 916 421 948 c 128,-1,11
 504 980 504 980 600 980 c 0,12,13
 796 980 796 980 925.5 853.5 c 128,-1,14
 1055 727 1055 727 1060 496 c 0,15,16
 1058 468 1058 468 1038 449 c 128,-1,17
 1018 430 1018 430 990 430 c 2,18,-1
 282 430 l 1,19,20
 296 281 296 281 384 201 c 128,-1,21
 472 121 472 121 600 121 c 0,22,23
 670 121 670 121 756 144.5 c 128,-1,24
 842 168 842 168 908 210 c 0,25,26
 924 220 924 220 945 220 c 0,27,28
 974 220 974 220 994.5 199.5 c 128,-1,29
 1015 179 1015 179 1015 150 c 0,30,31
 1015 110 1015 110 982 90 c 1,0,1
913 570 m 1,32,33
 890 699 890 699 804.5 769 c 128,-1,34
 719 839 719 839 600 839 c 128,-1,35
 481 839 481 839 395.5 769 c 128,-1,36
 310 699 310 699 287 570 c 1,37,-1
 913 570 l 1,32,33
EndSplineSet
Validated: 1
Layer: 2
SplineSet
982 90.0400390625 m 5
 868.39453125 16.3955078125 720.932678224 -20 600 -20 c 4
 346 -20 140 149 140 480 c 4
 140 811 346 980 600 980 c 4
 850 980 1053 816 1060 496 c 5
 1058 459 1028 430 990 430 c 5
 282 430 l 5
 301 225 436 121 600 121 c 4
 688 121 815 151.040039062 908 210.040039062 c 5
 919 217.040039062 931 220.040039062 945 220.040039062 c 4
 984 220.040039062 1015 189.040039062 1015 150.040039062 c 4
 1015 125.040039062 1002 102.040039062 982 90.0400390625 c 5
913 570 m 5
 882 748 753 839 600 839 c 4
 447 839 318 748 287 570 c 5
 913 570 l 5
EndSplineSet
Layer: 4
SplineSet
1054.14257812 494.625 m 4
 1054.14257812 448.659179688 1038.03515625 429.5 993.01953125 429.5 c 6
 290.59375 429.5 l 5
 297.0703125 297.158203125 360.876953125 114.217773438 600.088867188 114.217773438 c 4
 655.923828125 114.217773438 797.287109375 121.8125 929.956054688 202.61328125 c 4
 998.104492188 244.118164062 1032.78515625 136.15625 1021.15527344 95.998046875 c 4
 1016.19140625 78.8583984375 1009.40527344 55.416015625 897.454101562 14.591796875 c 4
 823.391601562 -12.416015625 727.57421875 -38.08984375 600.088867188 -38.08984375 c 4
 481.98046875 -38.08984375 137.302734375 2.2783203125 137.302734375 468.365234375 c 4
 137.302734375 765.385742188 320.783203125 976.758789062 600.088867188 976.758789062 c 4
 707.508789062 976.758789062 1029.4921875 939.420898438 1054.14257812 494.625 c 4
893.087890625 576.556640625 m 5
 869.115234375 716.21484375 789.454101562 824.450195312 600.088867188 824.450195312 c 4
 514.052734375 824.450195312 345.828125 795.421875 300.296875 576.556640625 c 5
 893.087890625 576.556640625 l 5
EndSplineSet
EndChar

StartChar: eogonek
Encoding: 289 281 170
Width: 1200
GlyphClass: 2
Flags: W
AnchorPoint: "Anchor-1" 1625 129 basechar 0
AnchorPoint: "Anchor-0" 621 1053 basechar 0
LayerCount: 6
Fore
SplineSet
333 467 m 5,0,1
 340 284 340 284 429.5 200.5 c 132,-1,2
 519 117 519 117 641 117 c 4,3,4
 722 117 722 117 787 141 c 132,-1,5
 852 165 852 165 922 212 c 5,6,-1
 1001 101 l 5,7,8
 911 30 911 30 793 -2 c 5,9,10
 692 -47 692 -47 640 -85.5 c 132,-1,11
 588 -124 588 -124 569.5 -159 c 132,-1,12
 551 -194 551 -194 551 -229 c 4,13,14
 551 -274 551 -274 575 -299.5 c 132,-1,15
 599 -325 599 -325 662 -325 c 4,16,17
 718 -325 718 -325 786 -311 c 5,18,-1
 768 -445 l 5,19,20
 738 -451 738 -451 709.5 -455 c 132,-1,21
 681 -459 681 -459 642 -459 c 4,22,23
 528 -459 528 -459 463 -402 c 132,-1,24
 398 -345 398 -345 398 -262 c 4,25,26
 398 -104 398 -104 597 -22 c 5,27,28
 386 -7 386 -7 271.5 142 c 132,-1,29
 157 291 157 291 157 525 c 4,30,31
 157 685 157 685 213.5 809 c 132,-1,32
 270 933 270 933 373.5 1004 c 132,-1,33
 477 1075 477 1075 617 1075 c 4,34,35
 816 1075 816 1075 930.5 937 c 132,-1,36
 1045 799 1045 799 1045 559 c 4,37,38
 1045 532 1045 532 1043.5 508 c 132,-1,39
 1042 484 1042 484 1041 467 c 5,40,-1
 333 467 l 5,0,1
619 937 m 0,41,42
 502 937 502 937 423 854 c 128,-1,43
 344 771 344 771 334 597 c 1,44,-1
 883 597 l 1,45,46
 880 766 880 766 809 851.5 c 128,-1,47
 738 937 738 937 619 937 c 0,41,42
EndSplineSet
Validated: 1
EndChar

StartChar: f
Encoding: 72 102 171
Width: 1200
GlyphClass: 2
Flags: W
HStem: 0 21G<439 607> 839 132<188 439 607 946> 1360 138<665.936 1061.69>
VStem: 439 168<0 839 971 1302.99>
AnchorPoint: "Anchor-1" 523 0 basechar 0
AnchorPoint: "Anchor-0" 740 1477 basechar 0
LayerCount: 6
Fore
SplineSet
600 1121 m 6,0,1
 600 1121 600 1121 600 960 c 5,2,-1
 920 960 l 6,3,4
 950 960 950 960 970 940 c 132,-1,5
 990 920 990 920 990 890 c 132,-1,6
 990 860 990 860 970 840 c 132,-1,7
 950 820 950 820 920 820 c 6,8,-1
 600 820 l 5,9,-1
 600 140 l 5,10,-1
 920 140 l 6,11,12
 950 140 950 140 970 120 c 132,-1,13
 990 100 990 100 990 70 c 132,-1,14
 990 40 990 40 970 20 c 132,-1,15
 950 0 950 0 920 0 c 6,16,-1
 280 0 l 6,17,18
 250 0 250 0 230 20 c 132,-1,19
 210 40 210 40 210 70 c 132,-1,20
 210 100 210 100 230 120 c 132,-1,21
 250 140 250 140 280 140 c 6,22,-1
 460 140 l 5,23,-1
 460 820 l 5,24,-1
 280 820 l 6,25,26
 250 820 250 820 230 840 c 132,-1,27
 210 860 210 860 210 890 c 132,-1,28
 210 920 210 920 230 940 c 132,-1,29
 250 960 250 960 280 960 c 6,30,-1
 460 960 l 5,31,-1
 460 1121 l 6,32,33
 460 1200 460 1200 477.5 1260.5 c 132,-1,34
 495 1321 495 1321 524 1358.5 c 132,-1,35
 553 1396 553 1396 595 1419 c 132,-1,36
 637 1442 637 1442 681.5 1451 c 132,-1,37
 726 1460 726 1460 780 1460 c 4,38,39
 880 1460 880 1460 991 1427 c 4,40,41
 1013 1420 1013 1420 1026.5 1402 c 132,-1,42
 1040 1384 1040 1384 1040 1360 c 4,43,44
 1040 1331 1040 1331 1019.5 1310.5 c 132,-1,45
 999 1290 999 1290 970 1290 c 4,46,47
 958 1290 958 1290 949 1293 c 4,48,49
 858 1320 858 1320 780 1320 c 4,50,51
 671 1320 671 1320 635.5 1272 c 132,-1,52
 600 1224 600 1224 600 1121 c 6,0,1
EndSplineSet
Validated: 1
Layer: 2
SplineSet
600 960 m 5
 920 960 l 5
 960 960 990 930.334960938 990 890 c 132
 990 849.666992188 960 820 920 820 c 6
 600 820 l 5
 600 140 l 5
 920 140 l 6
 960 140 990 110.334960938 990 70 c 132
 990 29.6669921875 960.334960938 0 920 0 c 6
 280 0 l 6
 239.666992188 0 210 29.6650390625 210 70 c 132
 210 110.333007812 240 140 280 140 c 6
 460 140 l 5
 460 820 l 5
 280 820 l 6
 240 820 210 849.665039062 210 890 c 132
 210 930.333007812 240 960 280 960 c 6
 460 960 l 5
 460 1121 l 21
 460 1394.00195312 612 1460 780 1460 c 7
 843.198242188 1460 917 1449 991 1427 c 5
 1020 1418 1040 1392 1040 1360 c 4
 1040 1321 1009 1290 970 1290 c 4
 963 1290 955 1291 949 1293 c 5
 893.354492188 1309.47558594 835.625976562 1320 780 1320 c 7
 623.997070312 1320 600 1243 600 1121 c 5
 600 960 l 5
EndSplineSet
Substitution2: "Single Substitution lookup 352 subtable" f.spacer
Substitution2: "Single Substitution lookup 350 subtable" f.spacer
Substitution2: "Single Substitution lookup 348 subtable" f.spacer
Substitution2: "Single Substitution lookup 346 subtable" f.spacer
Substitution2: "'aalt' Access All Alternates lookup 0 subtable" f.spacer
EndChar

StartChar: g
Encoding: 73 103 172
Width: 1200
GlyphClass: 2
Flags: W
AnchorPoint: "Anchor-0" 613 1053 basechar 0
LayerCount: 6
Fore
SplineSet
176 -328 m 1,0,1
 156 -306 156 -306 156 -278 c 0,2,3
 156 -249 156 -249 176.5 -228.5 c 128,-1,4
 197 -208 197 -208 226 -208 c 0,5,6
 254 -208 254 -208 275 -229 c 0,7,8
 363 -320 363 -320 490 -320 c 0,9,10
 614 -320 614 -320 702 -232 c 128,-1,11
 790 -144 790 -144 790 -20 c 2,12,-1
 790 121 l 1,13,14
 728 54 728 54 662.5 17 c 128,-1,15
 597 -20 597 -20 515 -20 c 0,16,17
 385 -20 385 -20 294 48.5 c 128,-1,18
 203 117 203 117 161.5 227.5 c 128,-1,19
 120 338 120 338 120 480 c 132,-1,20
 120 622 120 622 161.5 732.5 c 128,-1,21
 203 843 203 843 294 911.5 c 128,-1,22
 385 980 385 980 515 980 c 0,23,24
 597 980 597 980 662.5 943 c 128,-1,25
 728 906 728 906 790 839 c 1,26,-1
 790 890 l 2,27,28
 790 919 790 919 810.5 939.5 c 128,-1,29
 831 960 831 960 860 960 c 2,30,-1
 1020 960 l 2,31,32
 1049 960 1049 960 1069.5 939.5 c 128,-1,33
 1090 919 1090 919 1090 890 c 128,-1,34
 1090 861 1090 861 1069.5 840.5 c 128,-1,35
 1049 820 1049 820 1020 820 c 2,36,-1
 930 820 l 1,37,-1
 930 -20 l 2,38,39
 930 -202 930 -202 801 -331 c 128,-1,40
 672 -460 672 -460 490 -460 c 0,41,42
 400 -460 400 -460 318.5 -425 c 128,-1,43
 237 -390 237 -390 176 -328 c 1,0,1
794 330 m 1,44,-1
 794 630 l 1,45,46
 757 721 757 721 680.5 780.5 c 128,-1,47
 604 840 604 840 519 840 c 0,48,49
 412 840 412 840 338 735 c 128,-1,50
 264 630 264 630 264 480 c 128,-1,51
 264 330 264 330 338 225 c 128,-1,52
 412 120 412 120 519 120 c 0,53,54
 604 120 604 120 680.5 179.5 c 128,-1,55
 757 239 757 239 794 330 c 1,44,-1
EndSplineSet
Validated: 1
Layer: 2
SplineSet
176 -328 m 1
 164 -315 156 -297 156 -278 c 0
 156 -239 187 -208 226 -208 c 0
 246 -208 262 -216 275 -229 c 1
 329 -285 406 -320 490 -320 c 0
 656 -320 790 -186 790 -20 c 1
 790 121 l 1
 717 43 633 -20 515 -20 c 3
 246 -20 120 204 120 480 c 0
 120 756 246 980 515 980 c 3
 633 980 717 917 790 839 c 1
 790 890 l 17
 790 929 821 960 860 960 c 1
 860 960 l 1
 1020 960 l 1
 1059 960 1090 929 1090 890 c 0
 1090 851 1059 820 1020 820 c 1
 930 820 l 1
 930 -20 l 1
 930 -263 733 -460 490 -460 c 4
 367 -460 256 -409 176 -328 c 1
794 330 m 1
 794 630 l 1
 746 749 634 840 519 840 c 3
 375 840 264 679 264 480 c 0
 264 281 375 120 519 120 c 3
 634 120 746 211 794 330 c 1
EndSplineSet
Substitution2: "'cv02' Character Variants 02 lookup 362 subtable" g.cv02
Substitution2: "'aalt' Access All Alternates lookup 0 subtable" g.cv02
EndChar

StartChar: h
Encoding: 74 104 177
Width: 1200
GlyphClass: 2
Flags: W
AnchorPoint: "Anchor-2" 600 527 basechar 0
AnchorPoint: "Anchor-1" 600 0 basechar 0
AnchorPoint: "Anchor-0" 600 1477 basechar 0
LayerCount: 6
Fore
SplineSet
1060 0 m 2,0,1
 1089 0 1089 0 1109.5 20.5 c 128,-1,2
 1130 41 1130 41 1130 70 c 128,-1,3
 1130 99 1130 99 1109.5 119.5 c 128,-1,4
 1089 140 1089 140 1060 140 c 2,5,-1
 970 140 l 1,6,-1
 970 664 l 2,7,8
 970 818 970 818 887 899 c 128,-1,9
 804 980 804 980 650 980 c 0,10,11
 601 980 601 980 556.5 961 c 128,-1,12
 512 942 512 942 480 910.5 c 128,-1,13
 448 879 448 879 427.5 850.5 c 128,-1,14
 407 822 407 822 390 790 c 1,15,-1
 390 1370 l 2,16,17
 390 1399 390 1399 369.5 1419.5 c 128,-1,18
 349 1440 349 1440 320 1440 c 2,19,-1
 160 1440 l 2,20,21
 131 1440 131 1440 110.5 1419.5 c 128,-1,22
 90 1399 90 1399 90 1370 c 128,-1,23
 90 1341 90 1341 110.5 1320.5 c 128,-1,24
 131 1300 131 1300 160 1300 c 2,25,-1
 250 1300 l 1,26,-1
 250 140 l 1,27,-1
 160 140 l 2,28,29
 131 140 131 140 110.5 119.5 c 128,-1,30
 90 99 90 99 90 70 c 128,-1,31
 90 41 90 41 110.5 20.5 c 128,-1,32
 131 0 131 0 160 0 c 2,33,-1
 480 0 l 2,34,35
 509 0 509 0 529.5 20.5 c 128,-1,36
 550 41 550 41 550 70 c 128,-1,37
 550 99 550 99 529.5 119.5 c 128,-1,38
 509 140 509 140 480 140 c 2,39,-1
 390 140 l 1,40,-1
 390 492 l 2,41,42
 390 626 390 626 466 733 c 128,-1,43
 542 840 542 840 640 840 c 0,44,45
 737 840 737 840 783.5 801 c 128,-1,46
 830 762 830 762 830 664 c 2,47,-1
 830 140 l 1,48,-1
 740 140 l 2,49,50
 711 140 711 140 690.5 119.5 c 128,-1,51
 670 99 670 99 670 70 c 128,-1,52
 670 41 670 41 690.5 20.5 c 128,-1,53
 711 0 711 0 740 0 c 2,54,-1
 1060 0 l 2,0,1
EndSplineSet
Validated: 9
Layer: 2
SplineSet
1060 0 m 5
 1099 0 1130 31 1130 70 c 4
 1130 109 1099 140 1060 140 c 5
 970 140 l 5
 970 664 l 6
 970 870 855 980 650 980 c 4
 510 980 427 861 390 790 c 5
 390 1370 l 6
 390 1409 359 1440 320 1440 c 5
 160 1440 l 5
 121 1440 90 1409 90 1370 c 4
 90 1331 121 1300 160 1300 c 5
 250 1300 l 5
 250 140 l 5
 160 140 l 5
 121 140 90 109 90 70 c 4
 90 31 121 0 160 0 c 5
 480 0 l 5
 519 0 550 31 550 70 c 4
 550 109 519 140 480 140 c 5
 390 140 l 5
 390 492 l 6
 390 670 508 840 640 840 c 4
 763 840 830 801 830 664 c 6
 830 140 l 5
 740 140 l 5
 701 140 670 109 670 70 c 4
 670 31 701 0 740 0 c 5
 1060 0 l 5
EndSplineSet
EndChar

StartChar: hbar
Encoding: 294 295 178
Width: 1200
GlyphClass: 2
Flags: W
AnchorPoint: "Anchor-2" 600 527 basechar 0
AnchorPoint: "Anchor-1" 600 0 basechar 0
AnchorPoint: "Anchor-0" 600 1477 basechar 0
LayerCount: 6
Fore
SplineSet
280 140 m 1,0,-1
 190 140 l 2,1,2
 161 140 161 140 140.5 119.5 c 128,-1,3
 120 99 120 99 120 70 c 128,-1,4
 120 41 120 41 140.5 20.5 c 128,-1,5
 161 0 161 0 190 0 c 2,6,-1
 510 0 l 2,7,8
 539 0 539 0 559.5 20.5 c 128,-1,9
 580 41 580 41 580 70 c 128,-1,10
 580 99 580 99 559.5 119.5 c 128,-1,11
 539 140 539 140 510 140 c 2,12,-1
 420 140 l 1,13,-1
 420 492 l 2,14,15
 420 626 420 626 496 733 c 128,-1,16
 572 840 572 840 670 840 c 0,17,18
 767 840 767 840 813.5 801 c 128,-1,19
 860 762 860 762 860 664 c 2,20,-1
 860 140 l 1,21,-1
 770 140 l 2,22,23
 741 140 741 140 720.5 119.5 c 128,-1,24
 700 99 700 99 700 70 c 128,-1,25
 700 41 700 41 720.5 20.5 c 128,-1,26
 741 0 741 0 770 0 c 2,27,-1
 1090 0 l 2,28,29
 1119 0 1119 0 1139.5 20.5 c 128,-1,30
 1160 41 1160 41 1160 70 c 128,-1,31
 1160 99 1160 99 1139.5 119.5 c 128,-1,32
 1119 140 1119 140 1090 140 c 2,33,-1
 1000 140 l 1,34,-1
 1000 664 l 2,35,36
 1000 818 1000 818 917 899 c 128,-1,37
 834 980 834 980 680 980 c 0,38,39
 631 980 631 980 586.5 961 c 128,-1,40
 542 942 542 942 510 910.5 c 128,-1,41
 478 879 478 879 457.5 850.5 c 128,-1,42
 437 822 437 822 420 790 c 1,43,-1
 420 1073 l 1,44,-1
 772 1157 l 2,45,46
 795 1162 795 1162 810 1181 c 128,-1,47
 825 1200 825 1200 825 1225 c 0,48,49
 825 1254 825 1254 804.5 1274.5 c 128,-1,50
 784 1295 784 1295 755 1295 c 0,51,52
 748 1295 748 1295 738 1293 c 2,53,-1
 420 1217 l 1,54,-1
 420 1370 l 2,55,56
 420 1399 420 1399 399.5 1419.5 c 128,-1,57
 379 1440 379 1440 350 1440 c 2,58,-1
 190 1440 l 2,59,60
 161 1440 161 1440 140.5 1419.5 c 128,-1,61
 120 1399 120 1399 120 1370 c 128,-1,62
 120 1341 120 1341 140.5 1320.5 c 128,-1,63
 161 1300 161 1300 190 1300 c 2,64,-1
 280 1300 l 1,65,-1
 280 1183 l 1,66,-1
 93 1138 l 2,67,68
 70 1133 70 1133 55 1114 c 128,-1,69
 40 1095 40 1095 40 1070 c 0,70,71
 40 1041 40 1041 60.5 1020.5 c 128,-1,72
 81 1000 81 1000 110 1000 c 0,73,74
 117 1000 117 1000 127 1002 c 2,75,-1
 280 1039 l 1,76,-1
 280 140 l 1,0,-1
EndSplineSet
Validated: 9
Layer: 2
SplineSet
280 140 m 1
 190 140 l 1
 151 140 120 109 120 70 c 0
 120 31 151 0 190 0 c 1
 510 0 l 1
 549 0 580 31 580 70 c 0
 580 109 549 140 510 140 c 1
 420 140 l 1
 420 492 l 2
 420 670 538 840 670 840 c 0
 793 840 860 801 860 664 c 2
 860 140 l 1
 770 140 l 1
 731 140 700 109 700 70 c 0
 700 31 731 0 770 0 c 1
 1090 0 l 1
 1129 0 1160 31 1160 70 c 0
 1160 109 1129 140 1090 140 c 1
 1000 140 l 1
 1000 664 l 2
 1000 870 885 980 680 980 c 0
 540 980 457 861 420 790 c 1
 420 1073 l 1
 772 1157 l 5
 803 1164 825 1192 825 1225 c 4
 825 1264 794 1295 755 1295 c 4
 749 1295 743 1294 738 1293 c 5
 420 1217 l 1
 420 1370 l 1
 420 1409 389 1440 350 1440 c 1
 190 1440 l 1
 151 1440 120 1409 120 1370 c 0
 120 1331 151 1300 190 1300 c 1
 280 1300 l 1
 280 1183 l 1
 93 1138 l 5
 62 1131 40 1103 40 1070 c 4
 40 1031 71 1000 110 1000 c 4
 116 1000 122 1001 127 1002 c 5
 280 1039 l 1
 280 140 l 1
EndSplineSet
EndChar

StartChar: i
Encoding: 75 105 180
Width: 1200
GlyphClass: 2
Flags: W
HStem: 0 133<241 566 734 1031> 920 133<251 566> 1309 237<514.067 688.448>
VStem: 479 244<1344.58 1510.93> 566 168<133 920>
AnchorPoint: "Anchor-1" 600 0 basechar 0
LayerCount: 6
Fore
SplineSet
190 890 m 128,-1,1
 190 920 190 920 210 940 c 128,-1,2
 230 960 230 960 260 960 c 2,3,4
 260 960 260 960 600 960 c 2,5,6
 630 960 630 960 650 940 c 128,-1,7
 670 920 670 920 670 890 c 2,8,9
 670 890 670 890 670 140 c 1,10,-1
 940 140 l 2,11,12
 970 140 970 140 990 120 c 128,-1,13
 1010 100 1010 100 1010 70 c 128,-1,14
 1010 40 1010 40 990 20 c 128,-1,15
 970 0 970 0 940 0 c 2,16,17
 940 0 940 0 260 0 c 2,18,19
 230 0 230 0 210 20 c 128,-1,20
 190 40 190 40 190 70 c 128,-1,21
 190 100 190 100 210 120 c 128,-1,22
 230 140 230 140 260 140 c 2,23,24
 260 140 260 140 530 140 c 1,25,-1
 530 820 l 1,26,-1
 260 820 l 2,27,28
 230 820 230 820 210 840 c 128,-1,0
 190 860 190 860 190 890 c 128,-1,1
480 1320 m 128,-1,30
 480 1370 480 1370 515 1405 c 128,-1,31
 550 1440 550 1440 600 1440 c 128,-1,32
 650 1440 650 1440 685 1405 c 128,-1,33
 720 1370 720 1370 720 1320 c 128,-1,34
 720 1270 720 1270 685 1235 c 128,-1,35
 650 1200 650 1200 600 1200 c 128,-1,36
 550 1200 550 1200 515 1235 c 128,-1,29
 480 1270 480 1270 480 1320 c 128,-1,30
EndSplineSet
Validated: 1
Layer: 2
SplineSet
480 1320 m 4
 480 1386 534 1440 600 1440 c 4
 666 1440 720 1386 720 1320 c 4
 720 1254 666 1200 600 1200 c 4
 534 1200 480 1254 480 1320 c 4
190 890 m 128
 190 849.665039062 220 820 260 820 c 2
 530 820 l 1
 530 140 l 1
 260 140 l 2
 220 140 190 110.333007812 190 70 c 128
 190 29.6650390625 219.666992188 0 260 0 c 2
 940 0 l 2
 980.334960938 0 1010 29.6669921875 1010 70 c 128
 1010 110.334960938 980 140 940 140 c 2
 670 140 l 1
 670 890 l 1
 670 930.334960938 640 960 600 960 c 2
 260 960 l 2
 220 960 190 930.333007812 190 890 c 128
EndSplineSet
Substitution2: "'cv06' Character Variants 06 lookup 366 subtable" i.cv06
Substitution2: "'cv05' Character Variants 05 lookup 365 subtable" i.cv05
Substitution2: "'cv04' Character Variants 04 lookup 364 subtable" i.cv04
Substitution2: "'cv03' Character Variants 03 lookup 363 subtable" i.cv03
Substitution2: "Single Substitution lookup 355 subtable" dotlessi
Substitution2: "Single Substitution lookup 354 subtable" dotlessi
Substitution2: "Single Substitution lookup 346 subtable" f_i.liga.ss10
Substitution2: "Single Substitution lookup 273 subtable" i.salt_low
Substitution2: "'locl' Localized Forms in Latin lookup 27 subtable" i.loclTRK
Substitution2: "'locl' Localized Forms in Latin lookup 23 subtable" i.loclTRK
Substitution2: "'locl' Localized Forms in Latin lookup 21 subtable" i.loclTRK
Substitution2: "'locl' Localized Forms in Latin lookup 18 subtable" i.loclTRK
Substitution2: "'locl' Localized Forms in Latin lookup 17 subtable" i.loclTRK
AlternateSubs2: "'aalt' Access All Alternates lookup 1 subtable" i.loclTRK i.cv03 i.cv04 i.cv05 i.cv06 i.salt_low f_i.liga.ss10
EndChar

StartChar: dotlessi
Encoding: 296 305 181
Width: 1200
GlyphClass: 2
Flags: W
AnchorPoint: "Anchor-0" 603 1053 basechar 0
LayerCount: 6
Fore
SplineSet
200 890 m 132,-1,1
 200 920 200 920 220 940 c 132,-1,2
 240 960 240 960 270 960 c 6,3,4
 270 960 270 960 600 960 c 6,5,6
 630 960 630 960 650 940 c 132,-1,7
 670 920 670 920 670 890 c 6,8,9
 670 890 670 890 670 140 c 5,10,-1
 930 140 l 6,11,12
 960 140 960 140 980 120 c 132,-1,13
 1000 100 1000 100 1000 70 c 132,-1,14
 1000 40 1000 40 980 20 c 132,-1,15
 960 0 960 0 930 0 c 6,16,17
 930 0 930 0 270 0 c 6,18,19
 240 0 240 0 220 20 c 132,-1,20
 200 40 200 40 200 70 c 132,-1,21
 200 100 200 100 220 120 c 132,-1,22
 240 140 240 140 270 140 c 6,23,24
 270 140 270 140 530 140 c 5,25,-1
 530 820 l 5,26,-1
 270 820 l 6,27,28
 240 820 240 820 220 840 c 132,-1,0
 200 860 200 860 200 890 c 132,-1,1
EndSplineSet
Validated: 1
Layer: 2
SplineSet
200 890 m 132
 200 849.665039062 230 820 270 820 c 6
 530 820 l 5
 530 140 l 5
 270 140 l 6
 230 140 200 110.333007812 200 70 c 132
 200 29.6650390625 229.666992188 0 270 0 c 6
 930 0 l 6
 970.334960938 0 1000 29.6669921875 1000 70 c 132
 1000 110.334960938 970 140 930 140 c 6
 670 140 l 5
 670 890 l 5
 670 930.334960938 640 960 600 960 c 6
 270 960 l 6
 230 960 200 930.333007812 200 890 c 132
EndSplineSet
Substitution2: "'cv06' Character Variants 06 lookup 366 subtable" dotlessi.cv06
Substitution2: "'cv05' Character Variants 05 lookup 365 subtable" dotlessi.cv05
Substitution2: "'cv04' Character Variants 04 lookup 364 subtable" dotlessi.cv04
Substitution2: "'cv03' Character Variants 03 lookup 363 subtable" dotlessi.cv03
AlternateSubs2: "'aalt' Access All Alternates lookup 1 subtable" dotlessi.cv03 dotlessi.cv04 dotlessi.cv05 dotlessi.cv06
EndChar

StartChar: ij
Encoding: 299 307 188
Width: 1200
GlyphClass: 1
Flags: W
LayerCount: 6
Fore
SplineSet
361 1322 m 132,-1,1
 361 1372 361 1372 396.5 1407 c 132,-1,2
 432 1442 432 1442 481 1442 c 132,-1,3
 530 1442 530 1442 565.5 1407 c 132,-1,4
 601 1372 601 1372 601 1322 c 132,-1,5
 601 1272 601 1272 565.5 1237 c 132,-1,6
 530 1202 530 1202 481 1202 c 132,-1,7
 432 1202 432 1202 396.5 1237 c 132,-1,0
 361 1272 361 1272 361 1322 c 132,-1,1
551 820 m 5,8,-1
 951 820 l 5,9,-1
 951 -121 l 6,10,11
 951 -224 951 -224 915.5 -272 c 132,-1,12
 880 -320 880 -320 771 -320 c 4,13,14
 693 -320 693 -320 602 -293 c 4,15,16
 593 -290 593 -290 581 -290 c 4,17,18
 552 -290 552 -290 531.5 -310.5 c 132,-1,19
 511 -331 511 -331 511 -360 c 4,20,21
 511 -384 511 -384 524.5 -402 c 132,-1,22
 538 -420 538 -420 560 -427 c 4,23,24
 671 -460 671 -460 771 -460 c 4,25,26
 825 -460 825 -460 869.5 -451 c 132,-1,27
 914 -442 914 -442 956 -419 c 132,-1,28
 998 -396 998 -396 1027 -358.5 c 132,-1,29
 1056 -321 1056 -321 1073.5 -260.5 c 132,-1,30
 1091 -200 1091 -200 1091 -121 c 6,31,-1
 1091 890 l 6,32,33
 1091 920 1091 920 1071 940 c 132,-1,34
 1051 960 1051 960 1021 960 c 6,35,-1
 481 960 l 5,36,-1
 141 960 l 6,37,38
 111 960 111 960 91 940 c 132,-1,39
 71 920 71 920 71 890 c 132,-1,40
 71 860 71 860 91 840 c 132,-1,41
 111 820 111 820 141 820 c 6,42,-1
 411 820 l 5,43,-1
 411 140 l 5,44,-1
 141 140 l 6,45,46
 111 140 111 140 91 120 c 132,-1,47
 71 100 71 100 71 70 c 132,-1,48
 71 40 71 40 91 20 c 132,-1,49
 111 0 111 0 141 0 c 6,50,-1
 821 0 l 6,51,52
 851 0 851 0 871 20 c 132,-1,53
 891 40 891 40 891 70 c 132,-1,54
 891 100 891 100 871 120 c 132,-1,55
 851 140 851 140 821 140 c 6,56,-1
 551 140 l 5,57,-1
 551 820 l 5,8,-1
901 1320 m 132,-1,59
 901 1370 901 1370 936.5 1405 c 132,-1,60
 972 1440 972 1440 1021 1440 c 132,-1,61
 1070 1440 1070 1440 1105.5 1405 c 132,-1,62
 1141 1370 1141 1370 1141 1320 c 132,-1,63
 1141 1270 1141 1270 1105.5 1235 c 132,-1,64
 1070 1200 1070 1200 1021 1200 c 132,-1,65
 972 1200 972 1200 936.5 1235 c 132,-1,58
 901 1270 901 1270 901 1320 c 132,-1,59
EndSplineSet
Validated: 9
Layer: 2
SplineSet
361 1322 m 4
 361 1388 415 1442 481 1442 c 4
 547 1442 601 1388 601 1322 c 4
 601 1256 547 1202 481 1202 c 4
 415 1202 361 1256 361 1322 c 4
551 820 m 5
 951 820 l 5
 951 -121 l 5
 951 -243 927.002929688 -320 771 -320 c 7
 715.374023438 -320 657.645507812 -309.475585938 602 -293 c 5
 596 -291 588 -290 581 -290 c 4
 542 -290 511 -321 511 -360 c 4
 511 -392 531 -418 560 -427 c 5
 634 -449 707.801757812 -460 771 -460 c 7
 939 -460 1091 -394.001953125 1091 -121 c 7
 1091 890 l 5
 1091 930.334960938 1061 960 1021 960 c 6
 481 960 l 6
 141 960 l 6
 101 960 71 930.333007812 71 890 c 132
 71 849.665039062 101 820 141 820 c 6
 411 820 l 5
 411 140 l 5
 141 140 l 6
 101 140 71 110.333007812 71 70 c 132
 71 29.6650390625 100.666992188 0 141 0 c 6
 821 0 l 6
 861.334960938 0 891 29.6669921875 891 70 c 132
 891 110.334960938 861 140 821 140 c 6
 551 140 l 5
 551 820 l 5
901 1320 m 4
 901 1386 955 1440 1021 1440 c 4
 1087 1440 1141 1386 1141 1320 c 4
 1141 1254 1087 1200 1021 1200 c 4
 955 1200 901 1254 901 1320 c 4
EndSplineSet
EndChar

StartChar: j
Encoding: 76 106 192
Width: 1200
GlyphClass: 2
Flags: W
AnchorPoint: "Anchor-0" 735 1053 basechar 0
LayerCount: 6
Fore
SplineSet
700 -121 m 6,0,-1
 700 820 l 5,1,-1
 430 820 l 6,2,3
 400 820 400 820 380 840 c 132,-1,4
 360 860 360 860 360 890 c 132,-1,5
 360 920 360 920 380 940 c 132,-1,6
 400 960 400 960 430 960 c 6,7,-1
 770 960 l 6,8,9
 800 960 800 960 820 940 c 132,-1,10
 840 920 840 920 840 890 c 6,11,-1
 840 -121 l 6,12,13
 840 -200 840 -200 822.5 -260.5 c 132,-1,14
 805 -321 805 -321 776 -358.5 c 132,-1,15
 747 -396 747 -396 705 -419 c 132,-1,16
 663 -442 663 -442 618.5 -451 c 132,-1,17
 574 -460 574 -460 520 -460 c 4,18,19
 420 -460 420 -460 309 -427 c 4,20,21
 287 -420 287 -420 273.5 -402 c 132,-1,22
 260 -384 260 -384 260 -360 c 4,23,24
 260 -331 260 -331 280.5 -310.5 c 132,-1,25
 301 -290 301 -290 330 -290 c 4,26,27
 342 -290 342 -290 351 -293 c 4,28,29
 442 -320 442 -320 520 -320 c 4,30,31
 629 -320 629 -320 664.5 -272 c 132,-1,32
 700 -224 700 -224 700 -121 c 6,0,-1
650 1320 m 128,-1,34
 650 1370 650 1370 685 1405 c 128,-1,35
 720 1440 720 1440 770 1440 c 128,-1,36
 820 1440 820 1440 855 1405 c 128,-1,37
 890 1370 890 1370 890 1320 c 128,-1,38
 890 1270 890 1270 855 1235 c 128,-1,39
 820 1200 820 1200 770 1200 c 128,-1,40
 720 1200 720 1200 685 1235 c 128,-1,33
 650 1270 650 1270 650 1320 c 128,-1,34
EndSplineSet
Validated: 1
Layer: 2
SplineSet
700 -121 m 5
 700 820 l 1
 430 820 l 2
 390 820 360 849.665039062 360 890 c 128
 360 930.333007812 390 960 430 960 c 2
 770 960 l 2
 809.999023438 960 840 930.334960938 840 890 c 1
 840 -121 l 7
 840 -394.001953125 688 -460 520 -460 c 7
 456.801757812 -460 383 -449 309 -427 c 5
 280 -418 260 -392 260 -360 c 4
 260 -321 291 -290 330 -290 c 4
 337 -290 345 -291 351 -293 c 5
 406.645507812 -309.475585938 464.374023438 -320 520 -320 c 7
 676.002929688 -320 700 -243 700 -121 c 5
650 1320 m 0
 650 1386 704 1440 770 1440 c 0
 836 1440 890 1386 890 1320 c 0
 890 1254 836 1200 770 1200 c 0
 704 1200 650 1254 650 1320 c 0
EndSplineSet
Layer: 5
SplineSet
700 -121 m 6
 700 820 l 5
 430 820 l 6
 410 820 393.333333333 826.666666667 380 840 c 132
 366.666666667 853.333333333 360 870 360 890 c 132
 360 910 366.666666667 926.666666667 380 940 c 132
 393.333333333 953.333333333 410 960 430 960 c 6
 770 960 l 6
 790 960 806.666666667 953.333333333 820 940 c 132
 833.333333333 926.666666667 840 910 840 890 c 6
 840 -121 l 6
 840 -173.666666667 834.166666667 -220.166666667 822.5 -260.5 c 132
 810.833333333 -300.833333333 795.333333333 -333.5 776 -358.5 c 132
 756.666666667 -383.5 733 -403.666666667 705 -419 c 132
 677 -434.333333333 648.166666667 -445 618.5 -451 c 132
 588.833333333 -457 556 -460 520 -460 c 4
 453.333333333 -460 383 -449 309 -427 c 4
 294.333333333 -422.333333333 282.5 -414 273.5 -402 c 132
 264.5 -390 260 -376 260 -360 c 4
 260 -340.666666667 266.833333333 -324.166666667 280.5 -310.5 c 132
 294.166666667 -296.833333333 310.666666667 -290 330 -290 c 4
 338 -290 345 -291 351 -293 c 4
 411.666666667 -311 468 -320 520 -320 c 4
 592.666666667 -320 640.833333333 -304 664.5 -272 c 132
 688.166666667 -240 700 -189.666666667 700 -121 c 6
EndSplineSet
Substitution2: "Single Substitution lookup 348 subtable" f_j.liga.ss10
Substitution2: "Single Substitution lookup 273 subtable" j.salt_low
AlternateSubs2: "'aalt' Access All Alternates lookup 1 subtable" j.salt_low f_j.liga.ss10
EndChar

StartChar: uni0237
Encoding: 303 567 193
Width: 1200
GlyphClass: 2
Flags: W
AnchorPoint: "Anchor-0" 735 1053 basechar 0
LayerCount: 6
Fore
SplineSet
650 -121 m 6,0,-1
 650 820 l 5,1,-1
 390 820 l 6,2,3
 360 820 360 820 340 840 c 132,-1,4
 320 860 320 860 320 890 c 132,-1,5
 320 920 320 920 340 940 c 132,-1,6
 360 960 360 960 390 960 c 6,7,-1
 720 960 l 6,8,9
 750 960 750 960 770 940 c 132,-1,10
 790 920 790 920 790 890 c 6,11,-1
 790 -121 l 6,12,13
 790 -200 790 -200 772.5 -260.5 c 132,-1,14
 755 -321 755 -321 726 -358.5 c 132,-1,15
 697 -396 697 -396 655 -419 c 132,-1,16
 613 -442 613 -442 568.5 -451 c 132,-1,17
 524 -460 524 -460 470 -460 c 4,18,19
 370 -460 370 -460 259 -427 c 4,20,21
 237 -420 237 -420 223.5 -402 c 132,-1,22
 210 -384 210 -384 210 -360 c 4,23,24
 210 -331 210 -331 230.5 -310.5 c 132,-1,25
 251 -290 251 -290 280 -290 c 4,26,27
 292 -290 292 -290 301 -293 c 4,28,29
 392 -320 392 -320 470 -320 c 4,30,31
 579 -320 579 -320 614.5 -272 c 132,-1,32
 650 -224 650 -224 650 -121 c 6,0,-1
EndSplineSet
Validated: 1
Layer: 2
SplineSet
650 -121 m 5
 650 820 l 5
 390 820 l 6
 350 820 320 849.665039062 320 890 c 132
 320 930.333007812 350 960 390 960 c 6
 720 960 l 6
 759.999641415 960 790 930.334960938 790 890 c 5
 790 -121 l 7
 790 -394.001953125 638 -460 470 -460 c 7
 406.801757812 -460 333 -449 259 -427 c 5
 230 -418 210 -392 210 -360 c 4
 210 -321 241 -290 280 -290 c 4
 287 -290 295 -291 301 -293 c 5
 356.645507812 -309.475585938 414.374023438 -320 470 -320 c 7
 626.002929688 -320 650 -243 650 -121 c 5
EndSplineSet
EndChar

StartChar: k
Encoding: 77 107 195
Width: 1200
GlyphClass: 2
Flags: W
HStem: 0 21G<212 380 898.983 1138> 1033 20G<845.502 1083>
VStem: 212 168<0 1477>
DStem2: 609 579 399 575 0.674511 -0.738265<0 635.205> 399 575 609 579 0.707107 0.707107<151.321 667.509>
AnchorPoint: "Anchor-1" 611 0 basechar 0
AnchorPoint: "Anchor-0" 600 1477 basechar 0
LayerCount: 6
Fore
SplineSet
390 274 m 5,0,-1
 580 464 l 5,1,-1
 796 140 l 5,2,-1
 720 140 l 6,3,4
 691 140 691 140 670.5 119.5 c 132,-1,5
 650 99 650 99 650 70 c 132,-1,6
 650 41 650 41 670.5 20.5 c 132,-1,7
 691 0 691 0 720 0 c 6,8,-1
 1040 0 l 6,9,10
 1069 0 1069 0 1089.5 20.5 c 132,-1,11
 1110 41 1110 41 1110 70 c 132,-1,12
 1110 99 1110 99 1089.5 119.5 c 132,-1,13
 1069 140 1069 140 1040 140 c 6,14,-1
 964 140 l 5,15,-1
 681 565 l 5,16,-1
 936 820 l 5,17,-1
 1000 820 l 6,18,19
 1029 820 1029 820 1049.5 840.5 c 132,-1,20
 1070 861 1070 861 1070 890 c 132,-1,21
 1070 919 1070 919 1049.5 939.5 c 132,-1,22
 1029 960 1029 960 1000 960 c 6,23,-1
 680 960 l 6,24,25
 651 960 651 960 630.5 939.5 c 132,-1,26
 610 919 610 919 610 890 c 132,-1,27
 610 861 610 861 630.5 840.5 c 132,-1,28
 651 820 651 820 680 820 c 6,29,-1
 740 820 l 5,30,-1
 390 470 l 5,31,-1
 390 1370 l 6,32,33
 387 1378 387 1378 380.5 1389.5 c 132,-1,34
 374 1401 374 1401 355.5 1420.5 c 132,-1,35
 337 1440 337 1440 320 1440 c 6,36,-1
 160 1440 l 6,37,38
 131 1440 131 1440 110.5 1419.5 c 132,-1,39
 90 1399 90 1399 90 1370 c 132,-1,40
 90 1341 90 1341 110.5 1320.5 c 132,-1,41
 131 1300 131 1300 160 1300 c 6,42,-1
 250 1300 l 5,43,-1
 250 140 l 5,44,-1
 160 140 l 6,45,46
 131 140 131 140 110.5 119.5 c 132,-1,47
 90 99 90 99 90 70 c 132,-1,48
 90 41 90 41 110.5 20.5 c 132,-1,49
 131 0 131 0 160 0 c 6,50,-1
 480 0 l 6,51,52
 509 0 509 0 529.5 20.5 c 132,-1,53
 550 41 550 41 550 70 c 132,-1,54
 550 99 550 99 529.5 119.5 c 132,-1,55
 509 140 509 140 480 140 c 6,56,-1
 390 140 l 5,57,-1
 390 274 l 5,0,-1
EndSplineSet
Validated: 9
Layer: 2
SplineSet
390 274 m 1
 580 464 l 5
 796 140 l 5
 720 140 l 1
 681 140 650 109 650 70 c 0
 650 31 681 0 720 0 c 1
 1040 0 l 1
 1079 0 1110 31 1110 70 c 0
 1110 109 1079 140 1040 140 c 1
 964 140 l 5
 681 565 l 5
 936 820 l 1
 1000 820 l 1
 1039 820 1070 851 1070 890 c 0
 1070 929 1039 960 1000 960 c 1
 680 960 l 1
 641 960 610 929 610 890 c 0
 610 851 641 820 680 820 c 1
 740 820 l 1
 390 470 l 1
 390 1370 l 1
 390 1370 359 1440 320 1440 c 1
 160 1440 l 1
 121 1440 90 1409 90 1370 c 0
 90 1331 121 1300 160 1300 c 1
 250 1300 l 1
 250 140 l 1
 160 140 l 1
 121 140 90 109 90 70 c 0
 90 31 121 0 160 0 c 1
 480 0 l 1
 519 0 550 31 550 70 c 0
 550 109 519 140 480 140 c 1
 390 140 l 1
 390 274 l 1
EndSplineSet
EndChar

StartChar: kgreenlandic
Encoding: 306 312 197
Width: 1200
GlyphClass: 2
Flags: W
AnchorPoint: "Anchor-1" 600 0 basechar 0
AnchorPoint: "Anchor-0" 600 1053 basechar 0
LayerCount: 6
Fore
SplineSet
250 820 m 5,0,-1
 160 820 l 6,1,2
 131 820 131 820 110.5 840.5 c 132,-1,3
 90 861 90 861 90 890 c 132,-1,4
 90 919 90 919 110.5 939.5 c 132,-1,5
 131 960 131 960 160 960 c 6,6,-1
 480 960 l 6,7,8
 509 960 509 960 529.5 939.5 c 132,-1,9
 550 919 550 919 550 890 c 132,-1,10
 550 861 550 861 529.5 840.5 c 132,-1,11
 509 820 509 820 480 820 c 6,12,-1
 390 820 l 5,13,-1
 390 470 l 5,14,-1
 740 820 l 5,15,-1
 680 820 l 6,16,17
 651 820 651 820 630.5 840.5 c 132,-1,18
 610 861 610 861 610 890 c 132,-1,19
 610 919 610 919 630.5 939.5 c 132,-1,20
 651 960 651 960 680 960 c 6,21,22
 680 960 680 960 1000 960 c 6,23,24
 1029 960 1029 960 1049.5 939.5 c 132,-1,25
 1070 919 1070 919 1070 890 c 132,-1,26
 1070 861 1070 861 1049.5 840.5 c 132,-1,27
 1029 820 1029 820 1000 820 c 6,28,-1
 936 820 l 5,29,-1
 681 565 l 5,30,-1
 964 140 l 5,31,-1
 1040 140 l 6,32,33
 1069 140 1069 140 1089.5 119.5 c 132,-1,34
 1110 99 1110 99 1110 70 c 132,-1,35
 1110 41 1110 41 1089.5 20.5 c 132,-1,36
 1069 0 1069 0 1040 0 c 6,37,-1
 720 0 l 6,38,39
 691 0 691 0 670.5 20.5 c 132,-1,40
 650 41 650 41 650 70 c 132,-1,41
 650 99 650 99 670.5 119.5 c 132,-1,42
 691 140 691 140 720 140 c 6,43,-1
 796 140 l 5,44,-1
 580 464 l 5,45,-1
 390 274 l 5,46,-1
 390 140 l 5,47,-1
 480 140 l 6,48,49
 509 140 509 140 529.5 119.5 c 132,-1,50
 550 99 550 99 550 70 c 132,-1,51
 550 41 550 41 529.5 20.5 c 132,-1,52
 509 0 509 0 480 0 c 6,53,-1
 160 0 l 6,54,55
 131 0 131 0 110.5 20.5 c 132,-1,56
 90 41 90 41 90 70 c 132,-1,57
 90 99 90 99 110.5 119.5 c 132,-1,58
 131 140 131 140 160 140 c 6,59,-1
 250 140 l 5,60,-1
 250 820 l 5,0,-1
EndSplineSet
Validated: 1
Layer: 2
SplineSet
250 820 m 5
 160 820 l 5
 121 820 90 851 90 890 c 4
 90 929 121 960 160 960 c 5
 480 960 l 5
 519 960 550 929 550 890 c 4
 550 851 519 820 480 820 c 5
 390 820 l 5
 390 470 l 5
 740 820 l 5
 680 820 l 5
 641 820 610 851 610 890 c 4
 610 929 641 960 680 960 c 5
 1000 960 l 5
 1039 960 1070 929 1070 890 c 4
 1070 851 1039 820 1000 820 c 5
 936 820 l 5
 681 565 l 5
 964 140 l 5
 1040 140 l 5
 1079 140 1110 109 1110 70 c 4
 1110 31 1079 0 1040 0 c 5
 720 0 l 5
 681 0 650 31 650 70 c 4
 650 109 681 140 720 140 c 5
 796 140 l 5
 580 464 l 5
 390 274 l 5
 390 140 l 5
 480 140 l 5
 519 140 550 109 550 70 c 4
 550 31 519 0 480 0 c 5
 160 0 l 5
 121 0 90 31 90 70 c 4
 90 109 121 140 160 140 c 5
 250 140 l 5
 250 820 l 5
EndSplineSet
EndChar

StartChar: l
Encoding: 78 108 198
Width: 1200
GlyphClass: 2
Flags: W
HStem: -23 140<654.665 970.924> 1344 133<120 443>
VStem: 443 168<153.74 1344>
AnchorPoint: "Anchor-2" 1121 766 basechar 0
AnchorPoint: "Anchor-1" 721 0 basechar 0
AnchorPoint: "Anchor-0" 530 1477 basechar 0
LayerCount: 6
Fore
SplineSet
690 1370 m 6,0,-1
 690 140 l 5,1,-1
 950 140 l 6,2,3
 980 140 980 140 1000 120 c 132,-1,4
 1020 100 1020 100 1020 70 c 132,-1,5
 1020 40 1020 40 1000 20 c 132,-1,6
 980 0 980 0 950 0 c 6,7,-1
 290 0 l 6,8,9
 260 0 260 0 240 20 c 132,-1,10
 220 40 220 40 220 70 c 132,-1,11
 220 100 220 100 240 120 c 132,-1,12
 260 140 260 140 290 140 c 6,13,-1
 550 140 l 5,14,-1
 550 1300 l 5,15,-1
 320 1300 l 6,16,17
 290 1300 290 1300 270 1320 c 132,-1,18
 250 1340 250 1340 250 1370 c 132,-1,19
 250 1400 250 1400 270 1420 c 132,-1,20
 290 1440 290 1440 320 1440 c 6,21,-1
 620 1440 l 6,22,23
 650 1440 650 1440 670 1420 c 132,-1,24
 690 1400 690 1400 690 1370 c 6,0,-1
EndSplineSet
Validated: 1
Layer: 2
SplineSet
690 1370 m 133
 690 140 l 5
 950 140 l 6
 990 140 1020 110.334960938 1020 70 c 132
 1020 29.6669921875 990.334960938 0 950 0 c 6
 290 0 l 6
 249.666992188 0 220 29.6650390625 220 70 c 132
 220 110.333007812 250 140 290 140 c 6
 550 140 l 5
 550 1300 l 5
 320 1300 l 6
 280 1300 250 1329.66503906 250 1370 c 132
 250 1410.33300781 279.671875 1440 320 1440 c 6
 620 1440 l 5
 660.333007812 1440 690 1410.33496094 690 1370 c 133
EndSplineSet
Substitution2: "'cv10' Character Variants 10 lookup 370 subtable" l.cv10
Substitution2: "'cv09' Character Variants 09 lookup 369 subtable" l.cv09
Substitution2: "'cv08' Character Variants 08 lookup 368 subtable" l.cv08
Substitution2: "'cv07' Character Variants 07 lookup 367 subtable" l.cv07
Substitution2: "Single Substitution lookup 350 subtable" f_l.liga.ss10
Substitution2: "Single Substitution lookup 344 subtable" F_l.liga.ss10
Substitution2: "Single Substitution lookup 342 subtable" T_l.liga.ss10
Substitution2: "Single Substitution lookup 273 subtable" l.salt_low
AlternateSubs2: "'aalt' Access All Alternates lookup 1 subtable" F_l.liga.ss10 T_l.liga.ss10 l.cv07 l.cv08 l.cv09 l.cv10 l.salt_low f_l.liga.ss10
EndChar

StartChar: lslash
Encoding: 311 322 203
Width: 1200
GlyphClass: 2
Flags: W
AnchorPoint: "Anchor-2" 1121 766 basechar 0
AnchorPoint: "Anchor-1" 721 0 basechar 0
AnchorPoint: "Anchor-0" 530 1477 basechar 0
LayerCount: 6
Fore
SplineSet
690 1370 m 6,0,-1
 690 140 l 5,1,-1
 950 140 l 6,2,3
 980 140 980 140 1000 120 c 132,-1,4
 1020 100 1020 100 1020 70 c 132,-1,5
 1020 40 1020 40 1000 20 c 132,-1,6
 980 0 980 0 950 0 c 6,7,-1
 290 0 l 6,8,9
 260 0 260 0 240 20 c 132,-1,10
 220 40 220 40 220 70 c 132,-1,11
 220 100 220 100 240 120 c 132,-1,12
 260 140 260 140 290 140 c 6,13,-1
 550 140 l 5,14,-1
 550 1300 l 5,15,-1
 320 1300 l 6,16,17
 290 1300 290 1300 270 1320 c 132,-1,18
 250 1340 250 1340 250 1370 c 132,-1,19
 250 1400 250 1400 270 1420 c 132,-1,20
 290 1440 290 1440 320 1440 c 6,21,-1
 620 1440 l 6,22,23
 650 1440 650 1440 670 1420 c 132,-1,24
 690 1400 690 1400 690 1370 c 6,0,-1
589 784 m 5,25,-1
 809 894 l 6,26,27
 822 901 822 901 840 901 c 4,28,29
 869 901 869 901 889.5 880.5 c 132,-1,30
 910 860 910 860 910 831 c 4,31,32
 910 787 910 787 871 768 c 6,33,-1
 651 658 l 5,34,-1
 431 548 l 6,35,36
 418 541 418 541 400 541 c 4,37,38
 371 541 371 541 350.5 561.5 c 132,-1,39
 330 582 330 582 330 611 c 4,40,41
 330 655 330 655 369 674 c 6,42,-1
 589 784 l 5,25,-1
EndSplineSet
Validated: 5
Layer: 2
SplineSet
690 1370 m 133
 690 140 l 5
 950 140 l 6
 990 140 1020 110.334960938 1020 70 c 132
 1020 29.6669921875 990.334960938 0 950 0 c 6
 290 0 l 6
 249.666992188 0 220 29.6650390625 220 70 c 132
 220 110.333007812 250 140 290 140 c 6
 550 140 l 5
 550 1300 l 5
 320 1300 l 6
 280 1300 250 1329.66503906 250 1370 c 132
 250 1410.33300781 279.671875 1440 320 1440 c 6
 620 1440 l 5
 660.333007812 1440 690 1410.33496094 690 1370 c 133
589 784 m 5
 809 894 l 5
 818 899 829 901 840 901 c 4
 879 901 910 870 910 831 c 4
 910 803 894 779 871 768 c 5
 651 658 l 5
 431 548 l 5
 422 543 411 541 400 541 c 4
 361 541 330 572 330 611 c 4
 330 639 346 663 369 674 c 5
 589 784 l 5
EndSplineSet
Substitution2: "'cv10' Character Variants 10 lookup 370 subtable" lslash.cv10
Substitution2: "'cv09' Character Variants 09 lookup 369 subtable" lslash.cv09
Substitution2: "'cv08' Character Variants 08 lookup 368 subtable" lslash.cv08
Substitution2: "'cv07' Character Variants 07 lookup 367 subtable" lslash.cv07
AlternateSubs2: "'aalt' Access All Alternates lookup 1 subtable" lslash.cv07 lslash.cv08 lslash.cv09 lslash.cv10
EndChar

StartChar: m
Encoding: 79 109 204
Width: 1200
GlyphClass: 2
Flags: W
HStem: 0 21G<101 256 521 678 943 1099> 944 131<337.831 507.811 754.911 930.582> 1033 20G<101 234.639>
VStem: 101 155<0 874.108> 101 132<931 1053> 521 157<0 872.744> 943 156<0 898.612>
AnchorPoint: "Anchor-1" 600 0 basechar 0
AnchorPoint: "Anchor-0" 600 1053 basechar 0
LayerCount: 6
Fore
SplineSet
664 779 m 17,0,1
 650 889 650 889 603 935 c 128,-1,2
 556 981 556 981 476 981 c 0,3,4
 422 981 422 981 368 923.5 c 128,-1,5
 314 866 314 866 300 805 c 1,6,-1
 300 890 l 2,7,8
 300 919 300 919 279.5 939.5 c 128,-1,9
 259 960 259 960 230 960 c 2,10,-1
 90 960 l 2,11,12
 61 960 61 960 40.5 939.5 c 128,-1,13
 20 919 20 919 20 890 c 128,-1,14
 20 861 20 861 40.5 840.5 c 128,-1,15
 61 820 61 820 90 820 c 2,16,-1
 160 820 l 1,17,-1
 160 140 l 1,18,-1
 90 140 l 2,19,20
 61 140 61 140 40.5 119.5 c 128,-1,21
 20 99 20 99 20 70 c 128,-1,22
 20 41 20 41 40.5 20.5 c 128,-1,23
 61 0 61 0 90 0 c 2,24,-1
 370 0 l 2,25,26
 399 0 399 0 419.5 20.5 c 128,-1,27
 440 41 440 41 440 70 c 128,-1,28
 440 99 440 99 419.5 119.5 c 128,-1,29
 399 140 399 140 370 140 c 2,30,-1
 300 140 l 1,31,-1
 300 492 l 2,32,33
 300 568 300 568 320.5 647.5 c 128,-1,34
 341 727 341 727 380.5 784 c 128,-1,35
 420 841 420 841 466 841 c 0,36,37
 488 841 488 841 501.5 825 c 128,-1,38
 515 809 515 809 521 778.5 c 128,-1,39
 527 748 527 748 528.5 723.5 c 128,-1,40
 530 699 530 699 530 664 c 2,41,-1
 530 70 l 2,42,43
 530 41 530 41 550.5 20.5 c 128,-1,44
 571 0 571 0 600 0 c 2,45,-1
 740 0 l 2,46,47
 769 0 769 0 789.5 20.5 c 128,-1,48
 810 41 810 41 810 70 c 128,-1,49
 810 99 810 99 789.5 119.5 c 128,-1,50
 769 140 769 140 740 140 c 2,51,-1
 670 140 l 1,52,-1
 670 492 l 2,53,54
 670 568 670 568 690.5 647.5 c 128,-1,55
 711 727 711 727 750.5 784 c 128,-1,56
 790 841 790 841 836 841 c 0,57,58
 858 841 858 841 871.5 825 c 128,-1,59
 885 809 885 809 891 778.5 c 128,-1,60
 897 748 897 748 898.5 723.5 c 128,-1,61
 900 699 900 699 900 664 c 2,62,-1
 900 70 l 2,63,64
 900 41 900 41 920.5 20.5 c 128,-1,65
 941 0 941 0 970 0 c 2,66,-1
 1110 0 l 2,67,68
 1139 0 1139 0 1159.5 20.5 c 128,-1,69
 1180 41 1180 41 1180 70 c 128,-1,70
 1180 99 1180 99 1159.5 119.5 c 128,-1,71
 1139 140 1139 140 1110 140 c 2,72,-1
 1040 140 l 1,73,-1
 1040 664 l 2,74,75
 1040 840 1040 840 992.5 910.5 c 128,-1,76
 945 981 945 981 847 981 c 0,77,78
 793 981 793 981 740 924 c 128,-1,79
 687 867 687 867 671 805 c 2,80,-1
 664 779 l 17,0,1
EndSplineSet
Validated: 9
Layer: 2
SplineSet
664 779 m 17
 643.870117188 931.76171875 577.838013278 981 476 981 c 0
 400 981 317 882 300 805 c 1
 300 890 l 2
 300 928.952268398 269 960 230 960 c 1
 90 960 l 1
 51 960 20 929 20 890 c 0
 20 851 51 820 90 820 c 1
 160 820 l 1
 160 140 l 1
 90 140 l 1
 51 140 20 109 20 70 c 0
 20 31 51 0 90 0 c 1
 370 0 l 1
 409 0 440 31 440 70 c 0
 440 109 409 140 370 140 c 1
 300 140 l 1
 300 492 l 2
 300 640 368 841 466 841 c 0
 527 841 530 737 530 664 c 26
 530 70 l 1
 530 31 561 0 600 0 c 1
 740 0 l 1
 779 0 810 31 810 70 c 0
 810 109 779 140 740 140 c 1
 670 140 l 1
 670 492 l 1
 670 640 738 841 836 841 c 0
 897 841 900 737 900 664 c 30
 900 70 l 5
 900 31 931 0 970 0 c 5
 1110 0 l 5
 1149 0 1180 31 1180 70 c 4
 1180 109 1149 140 1110 140 c 5
 1040 140 l 5
 1040 664 l 6
 1040 908 971 981 847 981 c 0
 771 981 691 881 671 805 c 2
 664 779 l 17
EndSplineSet
EndChar

StartChar: n
Encoding: 80 110 205
Width: 1200
GlyphClass: 2
Flags: W
AnchorPoint: "Anchor-1" 602 0 basechar 0
AnchorPoint: "Anchor-0" 600 1053 basechar 0
LayerCount: 6
Fore
SplineSet
1060 0 m 6,0,1
 1089 0 1089 0 1109.5 20.5 c 132,-1,2
 1130 41 1130 41 1130 70 c 132,-1,3
 1130 99 1130 99 1109.5 119.5 c 132,-1,4
 1089 140 1089 140 1060 140 c 6,5,-1
 970 140 l 5,6,-1
 970 664 l 6,7,8
 970 818 970 818 887 899 c 132,-1,9
 804 980 804 980 650 980 c 4,10,11
 601 980 601 980 556.5 961 c 132,-1,12
 512 942 512 942 480 910.5 c 132,-1,13
 448 879 448 879 427.5 850.5 c 132,-1,14
 407 822 407 822 390 790 c 5,15,-1
 390 890 l 6,16,17
 390 919 390 919 369.5 939.5 c 132,-1,18
 349 960 349 960 320 960 c 6,19,-1
 160 960 l 6,20,21
 131 960 131 960 110.5 939.5 c 132,-1,22
 90 919 90 919 90 890 c 132,-1,23
 90 861 90 861 110.5 840.5 c 132,-1,24
 131 820 131 820 160 820 c 6,25,-1
 250 820 l 5,26,-1
 250 140 l 5,27,-1
 160 140 l 6,28,29
 131 140 131 140 110.5 119.5 c 132,-1,30
 90 99 90 99 90 70 c 132,-1,31
 90 41 90 41 110.5 20.5 c 132,-1,32
 131 0 131 0 160 0 c 6,33,-1
 480 0 l 6,34,35
 509 0 509 0 529.5 20.5 c 132,-1,36
 550 41 550 41 550 70 c 132,-1,37
 550 99 550 99 529.5 119.5 c 132,-1,38
 509 140 509 140 480 140 c 6,39,-1
 390 140 l 5,40,-1
 390 492 l 6,41,42
 390 626 390 626 466 733 c 132,-1,43
 542 840 542 840 640 840 c 4,44,45
 737 840 737 840 783.5 801 c 132,-1,46
 830 762 830 762 830 664 c 6,47,-1
 830 140 l 5,48,-1
 740 140 l 6,49,50
 711 140 711 140 690.5 119.5 c 132,-1,51
 670 99 670 99 670 70 c 132,-1,52
 670 41 670 41 690.5 20.5 c 132,-1,53
 711 0 711 0 740 0 c 6,54,-1
 1060 0 l 6,0,1
EndSplineSet
Validated: 9
Layer: 2
SplineSet
1060 0 m 5
 1099 0 1130 31 1130 70 c 4
 1130 109 1099 140 1060 140 c 5
 970 140 l 5
 970 664 l 6
 970 870 855 980 650 980 c 4
 510 980 427 861 390 790 c 5
 390 890 l 6
 390 929 359 960 320 960 c 5
 160 960 l 5
 121 960 90 929 90 890 c 4
 90 851 121 820 160 820 c 5
 250 820 l 5
 250 140 l 5
 160 140 l 5
 121 140 90 109 90 70 c 4
 90 31 121 0 160 0 c 5
 480 0 l 5
 519 0 550 31 550 70 c 4
 550 109 519 140 480 140 c 5
 390 140 l 5
 390 492 l 6
 390 670 508 840 640 840 c 4
 763 840 830 801 830 664 c 6
 830 140 l 5
 740 140 l 5
 701 140 670 109 670 70 c 4
 670 31 701 0 740 0 c 5
 1060 0 l 5
EndSplineSet
EndChar

StartChar: eng
Encoding: 316 331 211
Width: 1200
GlyphClass: 1
Flags: W
LayerCount: 6
Fore
SplineSet
830 -110 m 6,0,1
 830 -200 830 -200 797.5 -260 c 132,-1,2
 765 -320 765 -320 710 -320 c 4,3,4
 646 -320 646 -320 614 -242 c 4,5,6
 596 -200 596 -200 550 -200 c 4,7,8
 521 -200 521 -200 500.5 -220.5 c 132,-1,9
 480 -241 480 -241 480 -270 c 4,10,11
 480 -285 480 -285 486 -298 c 4,12,13
 518 -374 518 -374 576 -417 c 132,-1,14
 634 -460 634 -460 710 -460 c 4,15,16
 828 -460 828 -460 899 -359.5 c 132,-1,17
 970 -259 970 -259 970 -110 c 6,18,-1
 970 664 l 6,19,20
 970 818 970 818 887 899 c 132,-1,21
 804 980 804 980 650 980 c 4,22,23
 601 980 601 980 556.5 961 c 132,-1,24
 512 942 512 942 480 910.5 c 132,-1,25
 448 879 448 879 427.5 850.5 c 132,-1,26
 407 822 407 822 390 790 c 5,27,-1
 390 890 l 6,28,29
 390 919 390 919 369.5 939.5 c 132,-1,30
 349 960 349 960 320 960 c 6,31,-1
 160 960 l 6,32,33
 131 960 131 960 110.5 939.5 c 132,-1,34
 90 919 90 919 90 890 c 132,-1,35
 90 861 90 861 110.5 840.5 c 132,-1,36
 131 820 131 820 160 820 c 6,37,-1
 250 820 l 5,38,-1
 250 140 l 5,39,-1
 160 140 l 6,40,41
 131 140 131 140 110.5 119.5 c 132,-1,42
 90 99 90 99 90 70 c 132,-1,43
 90 41 90 41 110.5 20.5 c 132,-1,44
 131 0 131 0 160 0 c 6,45,-1
 480 0 l 6,46,47
 509 0 509 0 529.5 20.5 c 132,-1,48
 550 41 550 41 550 70 c 132,-1,49
 550 99 550 99 529.5 119.5 c 132,-1,50
 509 140 509 140 480 140 c 6,51,-1
 390 140 l 5,52,-1
 390 492 l 6,53,54
 390 626 390 626 466 733 c 132,-1,55
 542 840 542 840 640 840 c 4,56,57
 737 840 737 840 783.5 801 c 132,-1,58
 830 762 830 762 830 664 c 6,59,-1
 830 -110 l 6,0,1
EndSplineSet
Validated: 9
Layer: 2
SplineSet
830 -110 m 5
 830 -226 786 -320 710 -320 c 4
 667 -320 634 -290 614 -242 c 5
 603.311523438 -217.15625 579.013671875 -200 550 -200 c 4
 511 -200 480 -231 480 -270 c 4
 480 -279.986328125 482.032226562 -289.448242188 485.711914062 -298 c 5
 527.711914062 -396 606 -460 710 -460 c 4
 872 -460 970 -303 970 -110 c 5
 970 664 l 6
 970 870 855 980 650 980 c 4
 510 980 427 861 390 790 c 5
 390 890 l 6
 390 929 359 960 320 960 c 5
 160 960 l 5
 121 960 90 929 90 890 c 4
 90 851 121 820 160 820 c 5
 250 820 l 5
 250 140 l 5
 160 140 l 5
 121 140 90 109 90 70 c 4
 90 31 121 0 160 0 c 5
 480 0 l 5
 519 0 550 31 550 70 c 4
 550 109 519 140 480 140 c 5
 390 140 l 5
 390 492 l 6
 390 670 508 840 640 840 c 4
 763 840 830 801 830 664 c 6
 830 -110 l 5
EndSplineSet
EndChar

StartChar: o
Encoding: 81 111 212
Width: 1210
GlyphClass: 2
Flags: W
AnchorPoint: "Anchor-1" 610 0 basechar 0
AnchorPoint: "Anchor-0" 610 1053 basechar 0
LayerCount: 6
Fore
SplineSet
180 480 m 128,-1,1
 180 235 180 235 292 107.5 c 128,-1,2
 404 -20 404 -20 600 -20 c 128,-1,3
 796 -20 796 -20 908 107.5 c 128,-1,4
 1020 235 1020 235 1020 480 c 128,-1,5
 1020 725 1020 725 908 852.5 c 128,-1,6
 796 980 796 980 600 980 c 128,-1,7
 404 980 404 980 292 852.5 c 128,-1,0
 180 725 180 725 180 480 c 128,-1,1
320 480 m 128,-1,9
 320 656 320 656 394.5 748 c 128,-1,10
 469 840 469 840 600 840 c 128,-1,11
 731 840 731 840 805.5 748 c 128,-1,12
 880 656 880 656 880 480 c 128,-1,13
 880 304 880 304 805.5 212 c 128,-1,14
 731 120 731 120 600 120 c 128,-1,15
 469 120 469 120 394.5 212 c 128,-1,8
 320 304 320 304 320 480 c 128,-1,9
EndSplineSet
Validated: 9
Layer: 2
SplineSet
180 480 m 128
 180 146.666666667 344 -20 600 -20 c 128
 856 -20 1020 146.666992188 1020 480 c 128
 1020 813.333007812 856 980 600 980 c 128
 344 980 180 813.333007812 180 480 c 128
320 480 m 128
 320 720 429 840 600 840 c 128
 771 840 880 720 880 480 c 132
 880 240 771 120 600 120 c 128
 429 120 320 240 320 480 c 128
EndSplineSet
Substitution2: "Single Substitution lookup 12 subtable" ordmasculine
Substitution2: "'aalt' Access All Alternates lookup 0 subtable" ordmasculine
EndChar

StartChar: oacute
Encoding: 180 243 213
Width: 1200
GlyphClass: 2
Flags: W
AnchorPoint: "Anchor-0" 600 1400 basechar 0
LayerCount: 6
Fore
SplineSet
180 480 m 0,0,1
 180 235 180 235 291.5 107.5 c 0,2,3
 403 -20 403 -20 600 -20.000000001 c 0,4,5
 796 -20 796 -20 908 107.5 c 0,6,7
 1020 235 1020 235 1020 480 c 0,8,9
 1020 725 1020 725 908 852.5 c 0,10,11
 796 980 796 980 600 980 c 0,12,13
 404 980 404 980 292 852.5 c 0,14,15
 180 725 180 725 180 480 c 0,0,1
320 480 m 0,16,17
 320 656 320 656 394.5 748 c 0,18,19
 469 840 469 840 600 840 c 0,20,21
 731 840 731 840 805.5 748 c 0,22,23
 880 656 880 656 880 480 c 0,24,25
 880 304 880 304 805.5 212 c 0,26,27
 731 120 731 120 600 120 c 0,28,29
 469 120 469 120 394.5 212 c 0,30,31
 320 304 320 304 320 480 c 0,16,17
EndSplineSet
Refer: 1671 180 N 1 0 0 1 -16 0 2
Validated: 9
Substitution2: "'locl' Localized Forms in Latin lookup 22 subtable" oacute.loclPLK
Substitution2: "'aalt' Access All Alternates lookup 0 subtable" oacute.loclPLK
EndChar

StartChar: ocircumflex
Encoding: 181 244 215
Width: 1200
GlyphClass: 2
Flags: W
AnchorPoint: "Anchor-0" 600 1400 basechar 0
LayerCount: 6
Fore
SplineSet
180 480 m 0,0,1
 180 235 180 235 291.5 107.5 c 0,2,3
 403 -20 403 -20 600 -20.000000001 c 0,4,5
 796 -20 796 -20 908 107.5 c 0,6,7
 1020 235 1020 235 1020 480 c 0,8,9
 1020 725 1020 725 908 852.5 c 0,10,11
 796 980 796 980 600 980 c 0,12,13
 404 980 404 980 292 852.5 c 0,14,15
 180 725 180 725 180 480 c 0,0,1
320 480 m 0,16,17
 320 656 320 656 394.5 748 c 0,18,19
 469 840 469 840 600 840 c 0,20,21
 731 840 731 840 805.5 748 c 0,22,23
 880 656 880 656 880 480 c 0,24,25
 880 304 880 304 805.5 212 c 0,26,27
 731 120 731 120 600 120 c 0,28,29
 469 120 469 120 394.5 212 c 0,30,31
 320 304 320 304 320 480 c 0,16,17
EndSplineSet
Refer: 1673 710 N 1 0 0 1 0 0 2
Validated: 9
Layer: 2
SplineSet
600 1590 m 4
 616 1590 630 1585 642 1576 c 5
 910 1370 l 5
 922 1361 930 1347 930 1330 c 4
 930 1302 908 1280 880 1280 c 4
 870 1280 862 1283 854 1287 c 5
 600 1439 l 5
 346 1287 l 5
 338 1283 330 1280 320 1280 c 4
 292 1280 270 1302 270 1330 c 4
 270 1347 278 1361 290 1370 c 5
 558 1576 l 5
 570 1585 584 1590 600 1590 c 4
EndSplineSet
EndChar

StartChar: odieresis
Encoding: 183 246 216
Width: 1200
GlyphClass: 2
Flags: W
AnchorPoint: "Anchor-0" 600 1400 basechar 0
LayerCount: 6
Fore
SplineSet
180 480 m 0,0,1
 180 235 180 235 291.5 107.5 c 0,2,3
 403 -20 403 -20 600 -20.000000001 c 0,4,5
 796 -20 796 -20 908 107.5 c 0,6,7
 1020 235 1020 235 1020 480 c 0,8,9
 1020 725 1020 725 908 852.5 c 0,10,11
 796 980 796 980 600 980 c 0,12,13
 404 980 404 980 292 852.5 c 0,14,15
 180 725 180 725 180 480 c 0,0,1
320 480 m 0,16,17
 320 656 320 656 394.5 748 c 0,18,19
 469 840 469 840 600 840 c 0,20,21
 731 840 731 840 805.5 748 c 0,22,23
 880 656 880 656 880 480 c 0,24,25
 880 304 880 304 805.5 212 c 0,26,27
 731 120 731 120 600 120 c 0,28,29
 469 120 469 120 394.5 212 c 0,30,31
 320 304 320 304 320 480 c 0,16,17
EndSplineSet
Refer: 1668 168 N 1 0 0 1 0 0 2
Validated: 9
Layer: 2
SplineSet
700 1400 m 0
 700 1458 747 1505 805 1505 c 0
 863 1505 910 1458 910 1400 c 0
 910 1342 863 1295 805 1295 c 0
 747 1295 700 1342 700 1400 c 0
290 1400 m 0
 290 1458 337 1505 395 1505 c 0
 453 1505 500 1458 500 1400 c 0
 500 1342 453 1295 395 1295 c 0
 337 1295 290 1342 290 1400 c 0
180 480 m 132
 180 146.666666667 344 -20 600 -20 c 132
 856 -20 1020 146.666992188 1020 480 c 132
 1020 813.333007812 856 980 600 980 c 132
 344 980 180 813.333007812 180 480 c 132
320 480 m 132
 320 720 429 840 600 840 c 132
 771 840 880 720 880 480 c 132
 880 240 771 120 600 120 c 132
 429 120 320 240 320 480 c 132
EndSplineSet
EndChar

StartChar: ograve
Encoding: 179 242 217
Width: 1200
GlyphClass: 2
Flags: W
AnchorPoint: "Anchor-0" 600 1400 basechar 0
LayerCount: 6
Fore
SplineSet
360 1470 m 0,0,1
 360 1503 360 1503 383.5 1526.5 c 128,-1,2
 407 1550 407 1550 440 1550 c 0,3,4
 476 1550 476 1550 500 1523 c 2,5,-1
 804.9609375 1190 l 2,6,7
 820 1173.31716507 820 1173.31716507 820 1150 c 0,8,9
 820 1125 820 1125 802.5 1107.5 c 128,-1,10
 785 1090 785 1090 760 1090 c 0,11,12
 736.682834946 1090 736.682834946 1090 720 1105.0390625 c 2,13,-1
 387 1410 l 2,14,15
 360 1434 360 1434 360 1470 c 0,0,1
180 480 m 128,-1,17
 180 235 180 235 291.5 107.5 c 128,-1,18
 403 -20 403 -20 600 -20.000000001 c 0,19,20
 796 -20 796 -20 908 107.5 c 128,-1,21
 1020 235 1020 235 1020 480 c 128,-1,22
 1020 725 1020 725 908 852.5 c 128,-1,23
 796 980 796 980 600 980 c 128,-1,24
 404 980 404 980 292 852.5 c 128,-1,16
 180 725 180 725 180 480 c 128,-1,17
320 480 m 128,-1,26
 320 656 320 656 394.5 748 c 128,-1,27
 469 840 469 840 600 840 c 128,-1,28
 731 840 731 840 805.5 748 c 128,-1,29
 880 656 880 656 880 480 c 128,-1,30
 880 304 880 304 805.5 212 c 128,-1,31
 731 120 731 120 600 120 c 128,-1,32
 469 120 469 120 394.5 212 c 128,-1,25
 320 304 320 304 320 480 c 128,-1,26
EndSplineSet
Validated: 9
Layer: 2
SplineSet
320 480 m 132
 320 720 429 840 600 840 c 132
 771 840 880 720 880 480 c 132
 880 240 771 120 600 120 c 132
 429 120 320 240 320 480 c 132
180 480 m 128
 180 146.666666667 344 -20 600 -20 c 128
 856 -20 1020 146.666992188 1020 480 c 128
 1020 813.333007812 856 980 600 980 c 128
 344 980 180 813.333007812 180 480 c 128
360 1470 m 0
 360 1514 396 1550 440 1550 c 0
 463.829101562 1550 485.311523438 1539.66992188 500 1523 c 1
 804.9609375 1190 l 1
 814.547851562 1179.36523438 820 1165.33007812 820 1150 c 0
 820 1117 793 1090 760 1090 c 0
 744.669921875 1090 730.634765625 1095.45214844 720 1105.0390625 c 1
 387 1410 l 1
 370.330078125 1424.68847656 360 1446.17089844 360 1470 c 0
EndSplineSet
EndChar

StartChar: ohungarumlaut
Encoding: 318 337 218
Width: 1210
GlyphClass: 2
Flags: W
AnchorPoint: "Anchor-1" 600 0 basechar 0
AnchorPoint: "Anchor-0" 600 1053 basechar 0
LayerCount: 6
Fore
SplineSet
747 1300 m 6,0,1
 730 1270 730 1270 695 1270 c 4,2,3
 670 1270 670 1270 652.5 1287.5 c 4,4,5
 635 1305 635 1305 635 1330 c 4,6,7
 635 1345 635 1345 640 1355 c 6,8,-1
 777 1651 l 6,9,10
 797 1695 797 1695 845 1695 c 4,11,12
 876 1695 876 1695 898 1673 c 4,13,14
 920 1651 920 1651 920 1620 c 4,15,16
 920 1601 920 1601 910 1583 c 6,17,-1
 747 1300 l 6,0,1
397 1300 m 6,18,19
 380 1270 380 1270 345 1270 c 4,20,21
 320 1270 320 1270 302.5 1287.5 c 4,22,23
 285 1305 285 1305 285 1330 c 4,24,25
 285 1345 285 1345 290 1355 c 6,26,-1
 427 1651 l 6,27,28
 447 1695 447 1695 495 1695 c 4,29,30
 526 1695 526 1695 548 1673 c 4,31,32
 570 1651 570 1651 570 1620 c 4,33,34
 570 1601 570 1601 560 1583 c 6,35,-1
 397 1300 l 6,18,19
EndSplineSet
Refer: 212 111 N 1 0 0 1 0 0 3
Validated: 9
Layer: 2
SplineSet
747 1300 m 5
 737 1282 717 1270 695 1270 c 4
 662 1270 635 1297 635 1330 c 4
 635 1339 636 1347 640 1355 c 5
 777 1651 l 5
 789 1677 815 1695 845 1695 c 4
 886 1695 920 1661 920 1620 c 4
 920 1607 916 1594 910 1583 c 5
 747 1300 l 5
397 1300 m 5
 387 1282 367 1270 345 1270 c 4
 312 1270 285 1297 285 1330 c 4
 285 1339 286 1347 290 1355 c 5
 427 1651 l 5
 439 1677 465 1695 495 1695 c 4
 536 1695 570 1661 570 1620 c 4
 570 1607 566 1594 560 1583 c 5
 397 1300 l 5
EndSplineSet
EndChar

StartChar: oslash
Encoding: 185 248 220
Width: 1200
GlyphClass: 2
Flags: W
AnchorPoint: "Anchor-0" 600 1053 basechar 0
LayerCount: 6
Fore
SplineSet
962 1048 m 2,0,-1
 362 -152 l 2,1,2
 342 -190 342 -190 300 -190 c 0,3,4
 271 -190 271 -190 250.5 -169.5 c 128,-1,5
 230 -149 230 -149 230 -120 c 0,6,7
 230 -104 230 -104 238 -88 c 2,8,-1
 838 1112 l 2,9,10
 858 1150 858 1150 900 1150 c 0,11,12
 929 1150 929 1150 949.5 1129.5 c 128,-1,13
 970 1109 970 1109 970 1080 c 0,14,15
 970 1064 970 1064 962 1048 c 2,0,-1
180 480 m 128,-1,17
 180 725 180 725 292 852.5 c 128,-1,18
 404 980 404 980 600 980 c 128,-1,19
 796 980 796 980 908 852.5 c 128,-1,20
 1020 725 1020 725 1020 480 c 128,-1,21
 1020 235 1020 235 908 107.5 c 128,-1,22
 796 -20 796 -20 600 -20 c 128,-1,23
 404 -20 404 -20 292 107.5 c 128,-1,16
 180 235 180 235 180 480 c 128,-1,17
320 480 m 128,-1,25
 320 304 320 304 394.5 212 c 128,-1,26
 469 120 469 120 600 120 c 128,-1,27
 731 120 731 120 805.5 212 c 128,-1,28
 880 304 880 304 880 480 c 128,-1,29
 880 656 880 656 805.5 748 c 128,-1,30
 731 840 731 840 600 840 c 128,-1,31
 469 840 469 840 394.5 748 c 128,-1,24
 320 656 320 656 320 480 c 128,-1,25
EndSplineSet
Validated: 5
Layer: 2
SplineSet
962 1048 m 5
 362 -152 l 5
 350 -175 327 -190 300 -190 c 4
 261 -190 230 -159 230 -120 c 4
 230 -108 233 -98 238 -88 c 5
 838 1112 l 5
 850 1135 873 1150 900 1150 c 4
 939 1150 970 1119 970 1080 c 4
 970 1068 967 1058 962 1048 c 5
180 480 m 128
 180 813.333007812 344 980 600 980 c 128
 856 980 1020 813.333007812 1020 480 c 128
 1020 146.666992188 856 -20 600 -20 c 128
 344 -20 180 146.666666667 180 480 c 128
320 480 m 128
 320 240 429 120 600 120 c 128
 771 120 880 240 880 480 c 128
 880 720 771 840 600 840 c 128
 429 840 320 720 320 480 c 128
EndSplineSet
EndChar

StartChar: otilde
Encoding: 182 245 222
Width: 1200
GlyphClass: 2
Flags: W
AnchorPoint: "Anchor-1" 600 0 basechar 0
AnchorPoint: "Anchor-0" 584 1053 basechar 0
LayerCount: 6
Fore
SplineSet
180 480 m 4,0,1
 180 235 180 235 291.5 107.5 c 4,2,3
 403 -20 403 -20 600 -20.000000001 c 4,4,5
 796 -20 796 -20 908 107.5 c 4,6,7
 1020 235 1020 235 1020 480 c 4,8,9
 1020 725 1020 725 908 852.5 c 4,10,11
 796 980 796 980 600 980 c 4,12,13
 404 980 404 980 292 852.5 c 4,14,15
 180 725 180 725 180 480 c 4,0,1
320 480 m 4,16,17
 320 656 320 656 394.5 748 c 4,18,19
 469 840 469 840 600 840 c 4,20,21
 731 840 731 840 805.5 748 c 4,22,23
 880 656 880 656 880 480 c 4,24,25
 880 304 880 304 805.5 212 c 4,26,27
 731 120 731 120 600 120 c 4,28,29
 469 120 469 120 394.5 212 c 4,30,31
 320 304 320 304 320 480 c 4,16,17
EndSplineSet
Refer: 1678 732 N 1 0 0 1 -16 0 2
Validated: 9
Layer: 2
SplineSet
180 480 m 132
 180 146.666666667 344 -20 600 -20 c 132
 856 -20 1020 146.666992188 1020 480 c 132
 1020 813.333007812 856 980 600 980 c 132
 344 980 180 813.333007812 180 480 c 132
320 480 m 132
 320 720 429 840 600 840 c 132
 771 840 880 720 880 480 c 132
 880 240 771 120 600 120 c 132
 429 120 320 240 320 480 c 132
EndSplineSet
EndChar

StartChar: oe
Encoding: 321 339 223
Width: 1200
GlyphClass: 1
Flags: W
LayerCount: 6
Fore
SplineSet
300 840 m 132,-1,1
 178 840 178 840 119 750.5 c 132,-1,2
 60 661 60 661 60 480 c 132,-1,3
 60 299 60 299 119 209.5 c 132,-1,4
 178 120 178 120 300 120 c 132,-1,5
 422 120 422 120 481 209.5 c 132,-1,6
 540 299 540 299 540 480 c 132,-1,7
 540 661 540 661 481 750.5 c 132,-1,0
 422 840 422 840 300 840 c 132,-1,1
888 980 m 4,8,9
 1257 980 1257 980 1268 496 c 4,10,11
 1266 468 1266 468 1246 449 c 132,-1,12
 1226 430 1226 430 1198 430 c 6,13,-1
 650 430 l 5,14,15
 665 269 665 269 717.5 195 c 132,-1,16
 770 121 770 121 888 121 c 4,17,18
 930 121 930 121 968 132.5 c 132,-1,19
 1006 144 1006 144 1032.5 159 c 132,-1,20
 1059 174 1059 174 1116 210 c 4,21,22
 1132 220 1132 220 1153 220 c 4,23,24
 1182 220 1182 220 1202.5 199.5 c 132,-1,25
 1223 179 1223 179 1223 150 c 4,26,27
 1223 110 1223 110 1190 90 c 4,28,29
 1095 28 1095 28 1034 4 c 132,-1,30
 973 -20 973 -20 888 -20 c 4,31,32
 693 -20 693 -20 596 123 c 5,33,34
 500 -20 500 -20 300 -20 c 4,35,36
 113 -20 113 -20 16.5 105.5 c 132,-1,37
 -80 231 -80 231 -80 480 c 132,-1,38
 -80 729 -80 729 16.5 854.5 c 132,-1,39
 113 980 113 980 300 980 c 4,40,41
 498 980 498 980 594 840 c 5,42,43
 688 980 688 980 888 980 c 4,8,9
1121 570 m 5,44,45
 1096 713 1096 713 1046.5 776 c 132,-1,46
 997 839 997 839 888 839 c 132,-1,47
 779 839 779 839 729.5 776 c 132,-1,48
 680 713 680 713 655 570 c 5,49,-1
 1121 570 l 5,44,45
EndSplineSet
Validated: 1
Layer: 2
SplineSet
300 840 m 132
 136 840 60 720 60 480 c 132
 60 240 136 120 300 120 c 132
 464 120 540 240 540 480 c 132
 540 720 464 840 300 840 c 132
888 980 m 4
 1138 980 1261 816 1268 496 c 5
 1266 459 1236 430 1198 430 c 5
 650 430 l 5
 669 225 724 121 888 121 c 4
 976 121 1023 151 1116 210 c 5
 1127 217 1139 220 1153 220 c 4
 1192 220 1223 189 1223 150 c 4
 1223 125 1210 102 1190 90 c 5
 1076 16 1009 -20 888 -20 c 4
 753.32053042 -20 660 29 596 123 c 5
 532 28 433 -20 300 -20 c 132
 52 -20 -80 147 -80 480 c 132
 -80 813 52 980 300 980 c 132
 431 980 529.845703125 933 593.845703125 840 c 5
 656.4140625 932.922851562 754.056501206 980 888 980 c 4
1121 570 m 5
 1090 748 1041 839 888 839 c 4
 735 839 686 748 655 570 c 5
 1121 570 l 5
EndSplineSet
EndChar

StartChar: p
Encoding: 82 112 224
Width: 1200
GlyphClass: 2
Flags: W
AnchorPoint: "Anchor-1" 600 0 basechar 0
AnchorPoint: "Anchor-0" 600 1053 basechar 0
LayerCount: 6
Fore
SplineSet
180 -440 m 6,0,1
 151 -440 151 -440 130.5 -419.5 c 132,-1,2
 110 -399 110 -399 110 -370 c 132,-1,3
 110 -341 110 -341 130.5 -320.5 c 132,-1,4
 151 -300 151 -300 180 -300 c 6,5,-1
 270 -300 l 5,6,-1
 270 820 l 5,7,-1
 180 820 l 6,8,9
 151 820 151 820 130.5 840.5 c 132,-1,10
 110 861 110 861 110 890 c 132,-1,11
 110 919 110 919 130.5 939.5 c 132,-1,12
 151 960 151 960 180 960 c 6,13,-1
 340 960 l 6,14,15
 369 960 369 960 389.5 939.5 c 132,-1,16
 410 919 410 919 410 890 c 6,17,-1
 410 839 l 5,18,19
 472 906 472 906 537.5 943 c 132,-1,20
 603 980 603 980 685 980 c 4,21,22
 815 980 815 980 906 911.5 c 132,-1,23
 997 843 997 843 1038.5 732.5 c 132,-1,24
 1080 622 1080 622 1080 480 c 132,-1,25
 1080 338 1080 338 1038.5 227.5 c 132,-1,26
 997 117 997 117 906 48.5 c 132,-1,27
 815 -20 815 -20 685 -20 c 4,28,29
 603 -20 603 -20 537.5 17 c 132,-1,30
 472 54 472 54 410 121 c 5,31,-1
 410 -300 l 5,32,-1
 590 -300 l 6,33,34
 620 -300 620 -300 640 -320 c 132,-1,35
 660 -340 660 -340 660 -370 c 132,-1,36
 660 -400 660 -400 640 -420 c 132,-1,37
 620 -440 620 -440 590 -440 c 6,38,-1
 180 -440 l 6,0,1
410 630 m 1,39,-1
 410 330 l 1,40,41
 447 239 447 239 523.5 179.5 c 128,-1,42
 600 120 600 120 685 120 c 0,43,44
 792 120 792 120 866 225 c 128,-1,45
 940 330 940 330 940 480 c 128,-1,46
 940 630 940 630 866 735 c 128,-1,47
 792 840 792 840 685 840 c 0,48,49
 600 840 600 840 523.5 780.5 c 128,-1,50
 447 721 447 721 410 630 c 1,39,-1
EndSplineSet
Validated: 1
Layer: 2
SplineSet
180 -440 m 5
 141 -440 110 -409 110 -370 c 4
 110 -331 141 -300 180 -300 c 5
 270 -300 l 5
 270 820 l 5
 180 820 l 5
 141 820 110 851 110 890 c 4
 110 929 141 960 180 960 c 5
 340 960 l 5
 379 960 410 929 410 890 c 5
 410 839 l 5
 483 917 567 980 685 980 c 7
 954 980 1080 756 1080 480 c 4
 1080 204 954 -20 685 -20 c 7
 567 -20 483 43 410 121 c 5
 410 -300 l 5
 590 -300 l 21
 630 -300 660 -329.665039062 660 -370 c 132
 660 -410.333007812 630.334960938 -440 590 -440 c 5
 180 -440 l 5
410 630 m 5
 410 330 l 5
 458 211 569.982421875 120 685 120 c 7
 829 120 940 281 940 480 c 4
 940 679 829 840 685 840 c 7
 569.982421875 840 458 749 410 630 c 5
EndSplineSet
EndChar

StartChar: thorn
Encoding: 191 254 225
Width: 1200
GlyphClass: 2
Flags: W
AnchorPoint: "Anchor-1" 600 -399 basechar 0
AnchorPoint: "Anchor-0" 600 1477 basechar 0
LayerCount: 6
Fore
SplineSet
675 0 m 2,0,-1
 450 0 l 1,1,-1
 450 -250 l 1,2,-1
 630 -250 l 2,3,4
 660 -250 660 -250 680 -270 c 128,-1,5
 700 -290 700 -290 700 -320 c 128,-1,6
 700 -350 700 -350 680 -370 c 128,-1,7
 660 -390 660 -390 630 -390 c 2,8,-1
 220 -390 l 2,9,10
 191 -390 191 -390 170.5 -369.5 c 128,-1,11
 150 -349 150 -349 150 -320 c 128,-1,12
 150 -291 150 -291 170.5 -270.5 c 128,-1,13
 191 -250 191 -250 220 -250 c 2,14,-1
 310 -250 l 1,15,-1
 310 1159 l 1,16,-1
 228 1160 l 2,17,18
 199 1160 199 1160 178.5 1180.5 c 128,-1,19
 158 1201 158 1201 158 1230 c 128,-1,20
 158 1259 158 1259 178.5 1279.5 c 128,-1,21
 199 1300 199 1300 228 1300 c 2,22,-1
 630 1300 l 2,23,24
 660 1300 660 1300 680 1280 c 128,-1,25
 700 1260 700 1260 700 1230 c 128,-1,26
 700 1200 700 1200 680 1180 c 128,-1,27
 660 1160 660 1160 630 1160 c 2,28,-1
 450 1160 l 1,29,-1
 450 910 l 1,30,-1
 675 910 l 2,31,32
 835 910 835 910 947.5 776.5 c 128,-1,33
 1060 643 1060 643 1060 455 c 128,-1,34
 1060 267 1060 267 947.5 133.5 c 128,-1,35
 835 0 835 0 675 0 c 2,0,-1
675 140 m 2,36,37
 776 140 776 140 848 232.5 c 128,-1,38
 920 325 920 325 920 455 c 128,-1,39
 920 585 920 585 848 677.5 c 128,-1,40
 776 770 776 770 675 770 c 2,41,42
 675 770 675 770 450 770 c 1,43,-1
 450 140 l 1,44,-1
 675 140 l 2,36,37
EndSplineSet
Validated: 1
Layer: 2
SplineSet
675 0 m 5
 450 0 l 5
 450 -250 l 5
 630 -250 l 6
 670 -250 700 -279.665039062 700 -320 c 132
 700 -360.333007812 670.334960938 -390 630 -390 c 5
 220 -390 l 5
 181 -390 150 -359 150 -320 c 7
 150 -281 181 -250 220 -250 c 5
 310 -250 l 5
 310 1159 l 5
 228 1160 l 5
 189 1160 158 1191 158 1230 c 7
 158 1269 189 1300 228 1300 c 5
 630 1300 l 5
 670.334960938 1300 700 1270.33300781 700 1230 c 132
 700 1189.66503906 670 1160 630 1160 c 6
 450 1160 l 5
 450 910 l 5
 675 910 l 5
 888 910 1060 706 1060 455 c 4
 1060 204 888 0 675 0 c 5
675 140 m 5
 450 140 l 5
 450 770 l 5
 675 770 l 5
 810 770 920 629 920 455 c 4
 920 281 810 140 675 140 c 5
EndSplineSet
EndChar

StartChar: q
Encoding: 83 113 226
Width: 1200
GlyphClass: 2
Flags: W
AnchorPoint: "Anchor-1" 600 0 basechar 0
AnchorPoint: "Anchor-0" 600 1053 basechar 0
LayerCount: 6
Fore
SplineSet
1020 -440 m 6,0,1
 1049 -440 1049 -440 1069.5 -419.5 c 132,-1,2
 1090 -399 1090 -399 1090 -370 c 132,-1,3
 1090 -341 1090 -341 1069.5 -320.5 c 132,-1,4
 1049 -300 1049 -300 1020 -300 c 6,5,-1
 930 -300 l 5,6,-1
 930 820 l 5,7,-1
 1020 820 l 6,8,9
 1049 820 1049 820 1069.5 840.5 c 132,-1,10
 1090 861 1090 861 1090 890 c 132,-1,11
 1090 919 1090 919 1069.5 939.5 c 132,-1,12
 1049 960 1049 960 1020 960 c 6,13,-1
 860 960 l 6,14,15
 831 960 831 960 810.5 939.5 c 132,-1,16
 790 919 790 919 790 890 c 6,17,-1
 790 839 l 5,18,19
 728 906 728 906 662.5 943 c 132,-1,20
 597 980 597 980 515 980 c 4,21,22
 385 980 385 980 294 911.5 c 132,-1,23
 203 843 203 843 161.5 732.5 c 132,-1,24
 120 622 120 622 120 480 c 132,-1,25
 120 338 120 338 161.5 227.5 c 132,-1,26
 203 117 203 117 294 48.5 c 132,-1,27
 385 -20 385 -20 515 -20 c 4,28,29
 597 -20 597 -20 662.5 17 c 132,-1,30
 728 54 728 54 790 121 c 5,31,-1
 790 -300 l 5,32,-1
 610 -300 l 6,33,34
 580 -300 580 -300 560 -320 c 132,-1,35
 540 -340 540 -340 540 -370 c 132,-1,36
 540 -400 540 -400 560 -420 c 132,-1,37
 580 -440 580 -440 610 -440 c 6,38,-1
 1020 -440 l 6,0,1
790 630 m 1,39,-1
 790 330 l 1,40,41
 753 239 753 239 676.5 179.5 c 128,-1,42
 600 120 600 120 515 120 c 0,43,44
 408 120 408 120 334 225 c 128,-1,45
 260 330 260 330 260 480 c 128,-1,46
 260 630 260 630 334 735 c 128,-1,47
 408 840 408 840 515 840 c 0,48,49
 600 840 600 840 676.5 780.5 c 128,-1,50
 753 721 753 721 790 630 c 1,39,-1
EndSplineSet
Validated: 9
Layer: 2
SplineSet
1020 -440 m 5
 1059 -440 1090 -409 1090 -370 c 4
 1090 -331 1059 -300 1020 -300 c 5
 930 -300 l 5
 930 820 l 5
 1020 820 l 5
 1059 820 1090 851 1090 890 c 4
 1090 929 1059 960 1020 960 c 5
 860 960 l 5
 821 960 790 929 790 890 c 5
 790 839 l 5
 717 917 633 980 515 980 c 7
 246 980 120 756 120 480 c 4
 120 204 246 -20 515 -20 c 7
 633 -20 717 43 790 121 c 5
 790 -300 l 5
 610 -300 l 21
 570 -300 540 -329.665039062 540 -370 c 132
 540 -410.333007812 569.665039062 -440 610 -440 c 5
 1020 -440 l 5
790 630 m 1
 790 330 l 1
 742 211 630.017578125 120 515 120 c 3
 371 120 260 281 260 480 c 0
 260 679 371 840 515 840 c 3
 630.017578125 840 742 749 790 630 c 1
EndSplineSet
EndChar

